<?xml version="1.0" encoding="utf-8"?>
<!-- Generator: Adobe Illustrator 17.1.0, SVG Export Plug-In . SVG Version: 6.00 Build 0)  -->
<!DOCTYPE svg PUBLIC "-//W3C//DTD SVG 1.1//EN" "http://www.w3.org/Graphics/SVG/1.1/DTD/svg11.dtd">
<svg version="1.1" id="Layer_1" xmlns="http://www.w3.org/2000/svg" xmlns:xlink="http://www.w3.org/1999/xlink" x="0px" y="0px"
	 viewBox="0 0 238.551 127.178" enable-background="new 0 0 238.551 127.178" xml:space="preserve">
<path fill-rule="evenodd" clip-rule="evenodd" d="M2.185,21.842c0,0.824,0.065,1.086-0.851,1.086c-0.117,0-0.327-0.014-0.327,0.156
	c0,0.145,0.104,0.17,0.222,0.17c0.497,0,0.994-0.052,1.491-0.052s0.968,0.052,1.465,0.052c0.118,0,0.222-0.025,0.222-0.17
	c0-0.17-0.222-0.156-0.34-0.156c-0.903-0.014-0.851-0.249-0.851-1.086v-2.434c0-0.444,0.131-0.444,0.654-0.444
	c0.392,0,1.073,0,1.583,0.117c0.288,0.065,0.393,0.458,0.458,0.838c0.013,0.078,0.052,0.223,0.17,0.223
	c0.065,0,0.144-0.026,0.144-0.236c-0.013-0.418-0.039-0.811-0.065-1.229c0.026-0.366,0.052-0.759,0.065-1.125
	c0-0.104-0.078-0.131-0.144-0.131c-0.118,0-0.157,0.145-0.17,0.223c-0.065,0.379-0.131,0.863-0.458,0.902
	c-0.51,0.065-1.19,0.053-1.583,0.053c-0.537,0-0.654,0-0.654-0.615v-1.857c0-0.17-0.026-0.536,0.17-0.628
	c0.209-0.092,0.89-0.092,1.112-0.092c1.164,0,1.949,0.014,2.302,1.256c0.026,0.092,0.079,0.275,0.209,0.275
	c0.196,0,0.13-0.406,0.13-0.511v-0.915c0-0.196,0.052-0.458-0.209-0.458c-1.504,0-2.996,0.052-4.487,0.052
	c-0.419,0-0.811-0.052-1.229-0.052c-0.118,0-0.223,0.039-0.223,0.17c0,0.17,0.209,0.183,0.34,0.183c0.903,0,0.851,0.235,0.851,1.047
	V21.842z"/>
<path fill-rule="evenodd" clip-rule="evenodd" d="M11.129,20.154c0.039-0.013,0.104-0.053,0.144-0.053
	c0.131,0,0.092,0.314,0.092,0.366v0.785c0,0.432-0.013,0.654-0.327,0.981c-0.314,0.313-0.759,0.523-1.217,0.523
	c-0.483,0-0.902-0.262-0.902-0.772c0-0.628,0.51-0.968,1.021-1.229L11.129,20.154z M9.873,20.494
	c-0.732,0.34-1.936,0.902-1.936,1.831c0,0.654,0.615,1.034,1.229,1.034c1.138,0,1.988-0.994,2.106-0.994
	c0.183,0,0.249,0.915,0.89,0.915c0.34,0,0.667-0.196,0.929-0.379c0.092-0.079,0.314-0.262,0.314-0.405
	c0-0.053-0.039-0.105-0.091-0.105c-0.118,0-0.262,0.327-0.589,0.327c-0.471,0-0.458-0.759-0.458-1.046v-3.088
	c0-0.353,0.052-0.68-0.262-0.954c-0.301-0.262-0.785-0.341-1.19-0.341c-0.837,0-1.727,0.354-2.342,0.903
	c-0.249,0.209-0.549,0.588-0.549,0.929c0,0.131,0.065,0.156,0.17,0.156c0.157,0,0.432-0.104,0.562-0.17
	c0.209-0.092,0.275-0.274,0.367-0.471c0.301-0.667,0.706-1.099,1.504-1.099c0.812,0,0.837,0.536,0.837,1.177v0.576
	c0,0.497-0.013,0.51-0.484,0.732L9.873,20.494z"/>
<path fill-rule="evenodd" clip-rule="evenodd" d="M15.878,21.122c0-0.497,0.013-0.458,0.406-0.759
	c0.065-0.052,0.196-0.183,0.301-0.183c0.131,0,0.314,0.274,0.379,0.366l1.217,1.596c0.091,0.117,0.314,0.393,0.314,0.55
	c0,0.274-0.314,0.248-0.51,0.248c-0.105,0-0.223,0.078-0.223,0.209c0,0.118,0.118,0.104,0.209,0.104
	c0.406,0,0.824-0.052,1.216-0.052c0.419,0,0.864,0.052,1.282,0.052c0.091,0,0.209,0.014,0.209-0.117
	c0-0.144-0.157-0.196-0.275-0.196c-0.484,0-0.667-0.314-0.955-0.667l-1.975-2.512c-0.052-0.053-0.092-0.092-0.092-0.17
	c0-0.118,0.249-0.288,0.327-0.354l0.994-0.785c0.51-0.392,0.837-0.706,1.504-0.732c0.118,0,0.262-0.013,0.262-0.156
	c0-0.131-0.118-0.105-0.223-0.105h-2.302c-0.104,0-0.288-0.025-0.288,0.118c0,0.223,0.353,0.17,0.497,0.183
	c0.144,0,0.418,0,0.418,0.21c0,0.196-0.392,0.497-0.536,0.614l-1.936,1.531c-0.026,0.026-0.105,0.091-0.144,0.091
	c-0.079,0-0.079-0.209-0.079-0.274v-5.69c0-0.104,0.013-0.209-0.117-0.209c-0.092,0-0.209,0.092-0.275,0.144
	c-0.314,0.21-0.811,0.34-1.177,0.405c-0.079,0.014-0.183,0.053-0.183,0.145c0,0.17,0.222,0.131,0.34,0.131
	c0.628,0,0.51,0.575,0.51,1.06v5.952c0,0.562,0.118,1.007-0.589,1.072c-0.144,0.013-0.366-0.013-0.366,0.184
	c0,0.104,0.092,0.13,0.183,0.13c0.406,0,0.824-0.052,1.243-0.052c0.392,0,0.811,0.052,1.229,0.052c0.091,0,0.157-0.039,0.157-0.144
	c0-0.17-0.235-0.157-0.366-0.17c-0.706-0.065-0.589-0.51-0.589-1.072V21.122z"/>
<path fill-rule="evenodd" clip-rule="evenodd" d="M26.863,17.786c0-0.144,0.065-0.327-0.144-0.327h-1.517
	c-0.104,0-0.183-0.025-0.183,0.092c0,0.17,0.249,0.17,0.366,0.17c0.707,0,0.576,0.497,0.576,1.047v2.499
	c0,0.366,0.052,0.667-0.223,0.968c-0.366,0.405-0.837,0.588-1.399,0.588c-0.484,0-1.047-0.17-1.308-0.602
	c-0.236-0.379-0.236-1.033-0.236-1.465v-2.825c0-0.196,0.065-0.472-0.209-0.472h-1.465c-0.104,0-0.17-0.025-0.17,0.079
	c0,0.183,0.235,0.183,0.353,0.183c0.72,0,0.589,0.497,0.589,1.047v1.988c0,0.641-0.026,1.308,0.393,1.845
	c0.379,0.497,0.902,0.759,1.543,0.759c1.19,0,1.805-0.916,2.001-0.916c0.17,0,0.104,0.471,0.104,0.536v0.314
	c0,0.065,0,0.104,0.065,0.104c0.039,0,0.118-0.065,0.144-0.078c0.379-0.288,0.85-0.433,1.308-0.562
	c0.079-0.026,0.275-0.053,0.275-0.171c0-0.091-0.092-0.104-0.17-0.104l-0.17,0.014c-0.628,0.052-0.523-0.354-0.523-0.863V17.786z"/>
<path fill-rule="evenodd" clip-rule="evenodd" d="M30.275,14.241c0-0.104,0.013-0.209-0.118-0.209c-0.092,0-0.209,0.092-0.274,0.144
	c-0.314,0.21-0.811,0.34-1.178,0.405c-0.079,0.014-0.183,0.053-0.183,0.145c0,0.17,0.223,0.131,0.34,0.131
	c0.628,0,0.51,0.575,0.51,1.06v5.952c0,0.562,0.118,1.007-0.589,1.072c-0.144,0.013-0.366-0.013-0.366,0.184
	c0,0.104,0.092,0.13,0.183,0.13c0.406,0,0.824-0.052,1.243-0.052c0.393,0,0.811,0.052,1.23,0.052c0.091,0,0.157-0.039,0.157-0.144
	c0-0.17-0.235-0.157-0.366-0.17c-0.707-0.065-0.589-0.51-0.589-1.072V14.241z"/>
<path fill-rule="evenodd" clip-rule="evenodd" d="M33.333,18.022c0-0.366,0.183-0.287,0.484-0.287h0.732
	c0.301,0,0.406,0.065,0.406-0.21c0-0.104,0-0.183-0.118-0.183h-1.295c-0.184,0-0.209-0.092-0.209-0.262v-0.929
	c0-0.078-0.013-0.157-0.104-0.157c-0.066,0-0.105,0.065-0.131,0.118c-0.301,0.628-0.68,0.955-1.243,1.321
	c-0.065,0.052-0.157,0.104-0.157,0.196c0,0.156,0.34,0.104,0.406,0.104c0.248,0,0.327-0.04,0.327,0.235v3.361
	c0,0.523-0.052,1.19,0.288,1.622c0.222,0.275,0.588,0.406,0.941,0.406c0.458,0,0.89-0.196,1.217-0.497
	c0.092-0.065,0.262-0.236,0.262-0.366c0-0.04-0.04-0.092-0.092-0.092c-0.104,0-0.458,0.458-0.942,0.458
	c-0.785,0-0.771-0.969-0.771-1.531V18.022z"/>
<path fill-rule="evenodd" clip-rule="evenodd" d="M37.164,19.33c-0.144,0-0.444,0.039-0.444-0.17s0.222-0.615,0.327-0.759
	c0.406-0.55,1.034-0.877,1.701-0.877c0.418,0,0.851,0.105,1.138,0.406c0.183,0.196,0.34,0.497,0.34,0.771
	c0,0.313-0.196,0.458-0.484,0.523c-0.379,0.092-1.112,0.104-1.518,0.104H37.164z M41.114,19.644c0.131,0,0.157-0.117,0.157-0.222
	c0-0.432-0.196-0.994-0.458-1.321c-0.458-0.562-1.177-0.812-1.884-0.812c-0.89,0-1.701,0.301-2.354,0.877
	c-0.693,0.602-0.942,1.295-0.942,2.185c0,1.635,1.269,3.009,2.982,3.009c0.811,0,1.452-0.21,2.067-0.733
	c0.092-0.078,0.51-0.431,0.51-0.588c0-0.053-0.04-0.104-0.104-0.104c-0.17,0-0.654,0.85-1.937,0.85
	c-1.583,0-2.538-1.269-2.538-2.733c0-0.432,0.131-0.406,0.536-0.406H41.114z"/>
<path fill-rule="evenodd" clip-rule="evenodd" d="M43.535,18.022c0-0.366,0.183-0.287,0.484-0.287h0.733
	c0.301,0,0.405,0.065,0.405-0.21c0-0.104,0-0.183-0.118-0.183h-1.295c-0.183,0-0.209-0.092-0.209-0.262v-0.929
	c0-0.078-0.013-0.157-0.104-0.157c-0.065,0-0.105,0.065-0.131,0.118c-0.301,0.628-0.681,0.955-1.243,1.321
	c-0.065,0.052-0.157,0.104-0.157,0.196c0,0.156,0.34,0.104,0.406,0.104c0.249,0,0.327-0.04,0.327,0.235v3.361
	c0,0.523-0.052,1.19,0.288,1.622c0.222,0.275,0.588,0.406,0.942,0.406c0.458,0,0.89-0.196,1.216-0.497
	c0.092-0.065,0.262-0.236,0.262-0.366c0-0.04-0.039-0.092-0.092-0.092c-0.104,0-0.458,0.458-0.941,0.458
	c-0.785,0-0.772-0.969-0.772-1.531V18.022z"/>
<path fill-rule="evenodd" clip-rule="evenodd" d="M49.053,20.154c0.039-0.013,0.104-0.053,0.144-0.053
	c0.131,0,0.092,0.314,0.092,0.366v0.785c0,0.432-0.013,0.654-0.327,0.981c-0.314,0.313-0.759,0.523-1.217,0.523
	c-0.483,0-0.902-0.262-0.902-0.772c0-0.628,0.51-0.968,1.021-1.229L49.053,20.154z M47.797,20.494
	c-0.732,0.34-1.936,0.902-1.936,1.831c0,0.654,0.615,1.034,1.229,1.034c1.138,0,1.988-0.994,2.106-0.994
	c0.183,0,0.249,0.915,0.89,0.915c0.34,0,0.667-0.196,0.929-0.379c0.092-0.079,0.314-0.262,0.314-0.405
	c0-0.053-0.039-0.105-0.091-0.105c-0.118,0-0.262,0.327-0.589,0.327c-0.471,0-0.458-0.759-0.458-1.046v-3.088
	c0-0.353,0.052-0.68-0.262-0.954c-0.301-0.262-0.785-0.341-1.19-0.341c-0.837,0-1.727,0.354-2.342,0.903
	c-0.249,0.209-0.549,0.588-0.549,0.929c0,0.131,0.065,0.156,0.17,0.156c0.157,0,0.432-0.104,0.562-0.17
	c0.209-0.092,0.275-0.274,0.366-0.471c0.301-0.667,0.707-1.099,1.504-1.099c0.811,0,0.837,0.536,0.837,1.177v0.576
	c0,0.497-0.013,0.51-0.484,0.732L47.797,20.494z"/>
<path fill-rule="evenodd" clip-rule="evenodd" fill="#B4162C" d="M56.47,22.286c-0.354,0-1.217,0.262-1.217,0.693
	c0,0.184,0.104,0.262,0.288,0.262c0.406,0,0.837-0.72,1.243-0.72c0.274,0,0.641,0.21,1.085,0.419
	c0.432,0.209,0.942,0.419,1.452,0.419s1.073-0.171,1.426-0.55c0.249-0.262,0.432-0.667,0.432-1.021c0-0.117-0.039-0.536-0.222-0.536
	c-0.052,0-0.105,0.039-0.105,0.092c0,0.078,0.065,0.209,0.065,0.366c0,0.497-0.471,0.759-0.929,0.759
	c-0.209,0-0.418-0.053-0.628-0.104c-0.536-0.118-1.021-0.223-1.583-0.223c-0.327,0-0.654,0.039-0.981,0.144l1.976-1.648l2.041-1.831
	c0.432-0.379,0.51-0.418,1.007-0.72c0.17-0.104,0.759-0.393,0.759-0.667c0-0.144-0.157-0.196-0.288-0.196
	c-0.379,0-0.771,0.562-1.02,0.812l-0.301,0.026c-0.562,0.052-1.033-0.21-1.478-0.432c-0.432-0.21-0.837-0.419-1.282-0.419
	c-0.929,0-1.622,0.667-1.622,1.596c0,0.092-0.013,0.393,0.157,0.393c0.104,0,0.079-0.157,0.079-0.223
	c-0.026-0.575,0.327-0.85,0.89-0.85c0.314,0,0.602,0.078,0.916,0.156c0.432,0.105,0.876,0.196,1.321,0.196
	c0.393,0,0.771-0.078,1.138-0.196c-1.295,0.877-2.524,1.832-3.61,2.97l-0.575,0.602L56.47,22.286z"/>
<path fill-rule="evenodd" clip-rule="evenodd" fill="#B4162C" d="M68.163,18.14c0,0.602-1.073,2.093-1.439,2.551
	c-0.458,0.576-1.622,1.976-2.42,1.976c-0.418,0-0.602-0.432-0.602-0.798c0-0.824,0.693-2.146,1.19-2.773
	c0.549-0.72,1.478-1.636,2.433-1.636C67.771,17.459,68.163,17.655,68.163,18.14z M68.359,17.669
	c-0.274-0.354-0.562-0.458-1.007-0.458c-1.19,0-2.368,0.745-3.166,1.583c-0.746,0.785-1.504,2.105-1.504,3.218
	c0,0.641,0.301,1.348,1.034,1.348c1.543,0,3.296-2.499,4.029-3.702l-0.798,2.59c-0.065,0.223-0.144,0.484-0.144,0.732
	c0,0.223,0.118,0.38,0.354,0.38c0.523,0,1.229-0.615,1.557-0.969c0.157-0.17,0.693-0.85,0.693-1.085
	c0-0.053-0.039-0.105-0.091-0.105c-0.091,0-0.183,0.171-0.223,0.236c-0.157,0.248-0.771,1.072-1.099,1.072
	c-0.104,0-0.131-0.092-0.131-0.196c0-0.117,0.079-0.327,0.104-0.432l1.348-4.422c0.013-0.052,0.065-0.195,0.065-0.261
	c0-0.184-0.366-0.118-0.445-0.118c-0.432,0-0.406,0.065-0.536,0.471L68.359,17.669z"/>
<path fill-rule="evenodd" clip-rule="evenodd" fill="#B4162C" d="M74.285,22.666c-0.013,0.052-0.091,0.301-0.091,0.366
	c0,0.196,0.249,0.17,0.366,0.17c0.523,0,0.484-0.104,0.628-0.589c0.249-0.837,1.099-2.446,1.583-3.205
	c0.144-0.235,0.942-1.412,1.295-1.412s-0.013,0.641,0.641,0.641c0.392,0,0.602-0.419,0.602-0.771c0-0.406-0.262-0.654-0.654-0.654
	c-1.125,0-2.407,2.643-2.891,3.506l0.562-1.845c0.091-0.288,0.183-0.575,0.183-0.89c0-0.288-0.091-0.771-0.483-0.771
	c-0.432,0-1.034,0.536-1.309,0.851c-0.13,0.144-0.667,0.771-0.667,0.98c0,0.053,0.039,0.092,0.091,0.092
	c0.079,0,0.157-0.144,0.196-0.196l0.118-0.17c0.157-0.223,0.667-0.877,0.968-0.877c0.144,0,0.17,0.157,0.17,0.275
	c0,0.235-0.091,0.523-0.157,0.759L74.285,22.666z"/>
<path fill-rule="evenodd" clip-rule="evenodd" fill="#B4162C" d="M84.238,18.14c0,0.602-1.073,2.093-1.439,2.551
	c-0.458,0.576-1.622,1.976-2.42,1.976c-0.419,0-0.602-0.432-0.602-0.798c0-0.824,0.693-2.146,1.19-2.773
	c0.55-0.72,1.479-1.636,2.433-1.636C83.845,17.459,84.238,17.655,84.238,18.14z M84.434,17.669
	c-0.275-0.354-0.562-0.458-1.007-0.458c-1.19,0-2.368,0.745-3.166,1.583c-0.745,0.785-1.504,2.105-1.504,3.218
	c0,0.641,0.301,1.348,1.033,1.348c1.543,0,3.296-2.499,4.029-3.702l-0.798,2.59c-0.065,0.223-0.144,0.484-0.144,0.732
	c0,0.223,0.118,0.38,0.354,0.38c0.523,0,1.229-0.615,1.557-0.969c0.157-0.17,0.693-0.85,0.693-1.085
	c0-0.053-0.039-0.105-0.092-0.105c-0.091,0-0.183,0.171-0.222,0.236c-0.157,0.248-0.772,1.072-1.099,1.072
	c-0.104,0-0.13-0.092-0.13-0.196c0-0.117,0.078-0.327,0.104-0.432l1.347-4.422c0.013-0.052,0.065-0.195,0.065-0.261
	c0-0.184-0.366-0.118-0.444-0.118c-0.432,0-0.406,0.065-0.537,0.471L84.434,17.669z"/>
<path fill-rule="evenodd" clip-rule="evenodd" fill="#B4162C" d="M91.799,17.878c0-0.55-1.047-0.667-1.426-0.667
	c-0.968,0-2.067,0.615-2.747,1.282c-0.707,0.692-1.256,1.688-1.256,2.694c0,1.178,0.811,2.172,2.027,2.172
	c0.916,0,1.714-0.576,2.329-1.204c0.118-0.117,0.549-0.588,0.549-0.784c0-0.04-0.039-0.079-0.078-0.079
	c-0.223,0-1.021,1.413-2.486,1.413c-0.916,0-1.334-0.706-1.334-1.557c0-0.929,0.51-2.08,1.125-2.76
	c0.34-0.367,0.968-0.89,1.504-0.89c0.602,0,0.484,0.771,1.308,0.771C91.55,18.271,91.799,18.14,91.799,17.878z M90.347,15.877
	l-0.641-1.321c-0.157-0.341-0.131-0.354-0.536-0.354c-0.079,0-0.223-0.013-0.223,0.104c0,0.092,0.118,0.274,0.157,0.354l0.667,1.295
	c0.196,0.379,0.131,0.34,0.576,0.34c0.262,0,0.275,0,0.471-0.156l1.831-1.518c0.079-0.065,0.249-0.171,0.249-0.301
	c0-0.145-0.183-0.118-0.288-0.118c-0.288,0-0.301,0.026-0.523,0.223L90.347,15.877z"/>
<path fill-rule="evenodd" clip-rule="evenodd" fill="#B4162C" d="M97.45,19.866l-0.576,1.857c-0.092,0.314-0.235,0.824-0.235,1.151
	c0,0.223,0.079,0.484,0.353,0.484c0.615,0,1.413-0.654,1.792-1.086c0.105-0.118,0.667-0.824,0.667-1.007
	c0-0.053-0.04-0.092-0.092-0.092c-0.065,0-0.118,0.092-0.157,0.144c-0.209,0.354-0.929,1.295-1.374,1.295
	c-0.144,0-0.209-0.144-0.209-0.262c0-0.156,0.065-0.393,0.118-0.549l1.269-4.147c0.026-0.078,0.079-0.222,0.079-0.313
	c0-0.196-0.34-0.131-0.445-0.131c-0.497,0-0.406,0.065-0.549,0.549c-0.406,1.309-1.047,2.473-1.949,3.507
	c-0.366,0.431-1.452,1.504-2.067,1.504c-0.235,0-0.353-0.145-0.353-0.366c0-0.184,0.091-0.458,0.144-0.628l1.047-3.127
	c0.091-0.261,0.196-0.588,0.196-0.863c0-0.274-0.092-0.575-0.419-0.575c-0.484,0-1.138,0.562-1.439,0.863
	c-0.131,0.144-0.706,0.851-0.706,1.072c0,0.053,0.013,0.079,0.065,0.079c0.118,0,0.236-0.21,0.288-0.288
	c0.17-0.248,0.759-1.021,1.099-1.021c0.144,0,0.183,0.104,0.183,0.223c0,0.131-0.104,0.393-0.144,0.51l-1.021,2.97
	c-0.104,0.301-0.249,0.746-0.249,1.06c0,0.393,0.144,0.681,0.562,0.681c0.798,0,1.688-0.667,2.25-1.178
	c0.798-0.72,1.177-1.321,1.779-2.185L97.45,19.866z"/>
<path fill-rule="evenodd" clip-rule="evenodd" fill="#B4162C" d="M106.856,18.899c0.104-0.274,0.248-0.654,0.248-0.955
	c0-0.471-0.366-0.732-0.811-0.732c-1.688,0-3.218,2.303-3.938,3.61l-0.026-0.026l0.562-1.792c0.104-0.354,0.222-0.771,0.222-1.151
	c0-0.379-0.131-0.641-0.536-0.641c-0.549,0-1.229,0.654-1.557,1.046c-0.105,0.105-0.562,0.707-0.562,0.851
	c0,0.065,0.052,0.092,0.104,0.092c0.079,0,0.118-0.078,0.144-0.144c0.157-0.275,0.876-1.151,1.217-1.151
	c0.196,0,0.261,0.144,0.261,0.313c0,0.223-0.091,0.511-0.157,0.72l-1.165,3.807c-0.026,0.065-0.078,0.235-0.078,0.301
	c0,0.223,0.274,0.157,0.405,0.157c0.418,0,0.418-0.065,0.537-0.444c0.313-1.021,1.321-2.761,2.014-3.585
	c0.406-0.471,1.23-1.438,1.923-1.438c0.301,0,0.458,0.17,0.458,0.458c0,0.235-0.104,0.483-0.183,0.706l-0.929,2.473
	c-0.157,0.405-0.353,0.954-0.353,1.399c0,0.379,0.17,0.589,0.562,0.589c0.536,0,1.321-0.759,1.661-1.139
	c0.104-0.104,0.589-0.706,0.589-0.876c0-0.053-0.052-0.092-0.092-0.092c-0.079,0-0.131,0.078-0.157,0.131
	c-0.223,0.327-0.955,1.242-1.374,1.242c-0.157,0-0.249-0.091-0.249-0.261c0-0.184,0.131-0.497,0.196-0.668L106.856,18.899z"/>
<path fill-rule="evenodd" clip-rule="evenodd" fill="#B4162C" d="M113.618,18.14c0,0.602-1.072,2.093-1.439,2.551
	c-0.458,0.576-1.622,1.976-2.42,1.976c-0.418,0-0.602-0.432-0.602-0.798c0-0.824,0.693-2.146,1.19-2.773
	c0.549-0.72,1.478-1.636,2.433-1.636C113.226,17.459,113.618,17.655,113.618,18.14z M113.814,17.669
	c-0.274-0.354-0.562-0.458-1.007-0.458c-1.19,0-2.368,0.745-3.166,1.583c-0.746,0.785-1.504,2.105-1.504,3.218
	c0,0.641,0.301,1.348,1.034,1.348c1.543,0,3.296-2.499,4.029-3.702l-0.798,2.59c-0.065,0.223-0.144,0.484-0.144,0.732
	c0,0.223,0.118,0.38,0.354,0.38c0.523,0,1.229-0.615,1.557-0.969c0.157-0.17,0.693-0.85,0.693-1.085c0-0.053-0.04-0.105-0.092-0.105
	c-0.091,0-0.183,0.171-0.222,0.236c-0.157,0.248-0.772,1.072-1.099,1.072c-0.104,0-0.131-0.092-0.131-0.196
	c0-0.117,0.079-0.327,0.105-0.432l1.347-4.422c0.013-0.052,0.065-0.195,0.065-0.261c0-0.184-0.366-0.118-0.445-0.118
	c-0.432,0-0.405,0.065-0.536,0.471L113.814,17.669z"/>
<path fill-rule="evenodd" clip-rule="evenodd" fill="#B4162C" d="M115.986,21.697c-0.104,0.341-0.235,0.785-0.235,1.151
	c0,0.301,0.065,0.511,0.405,0.511c0.549,0,1.295-0.759,1.596-1.139c0.13-0.157,0.549-0.693,0.549-0.929
	c0-0.052-0.013-0.092-0.065-0.092c-0.105,0-0.157,0.105-0.196,0.171c-0.157,0.274-0.824,1.19-1.138,1.19
	c-0.131,0-0.183-0.118-0.183-0.223c0-0.184,0.079-0.366,0.131-0.523l2.237-7.3c0.013-0.052,0.079-0.248,0.079-0.313
	s-0.04-0.118-0.105-0.118c-0.039,0-0.091,0.04-0.117,0.053c-0.432,0.327-0.981,0.471-1.505,0.497c-0.13,0-0.392-0.013-0.392,0.17
	c0,0.092,0.065,0.145,0.157,0.145l0.209-0.014c0.222-0.013,0.51,0.026,0.51,0.327c0,0.117-0.092,0.419-0.131,0.536L115.986,21.697z"
	/>
<path fill-rule="evenodd" clip-rule="evenodd" fill="#B4162C" d="M125.717,18.899c0.105-0.274,0.249-0.654,0.249-0.955
	c0-0.471-0.366-0.732-0.811-0.732c-1.688,0-3.218,2.303-3.938,3.61l-0.026-0.026l0.562-1.792c0.104-0.354,0.222-0.771,0.222-1.151
	c0-0.379-0.131-0.641-0.536-0.641c-0.549,0-1.23,0.654-1.557,1.046c-0.105,0.105-0.562,0.707-0.562,0.851
	c0,0.065,0.052,0.092,0.104,0.092c0.079,0,0.118-0.078,0.144-0.144c0.157-0.275,0.876-1.151,1.216-1.151
	c0.196,0,0.262,0.144,0.262,0.313c0,0.223-0.091,0.511-0.157,0.72l-1.165,3.807c-0.026,0.065-0.079,0.235-0.079,0.301
	c0,0.223,0.275,0.157,0.406,0.157c0.418,0,0.418-0.065,0.536-0.444c0.314-1.021,1.321-2.761,2.015-3.585
	c0.406-0.471,1.23-1.438,1.923-1.438c0.301,0,0.458,0.17,0.458,0.458c0,0.235-0.105,0.483-0.183,0.706l-0.929,2.473
	c-0.157,0.405-0.353,0.954-0.353,1.399c0,0.379,0.17,0.589,0.562,0.589c0.536,0,1.321-0.759,1.661-1.139
	c0.104-0.104,0.588-0.706,0.588-0.876c0-0.053-0.052-0.092-0.091-0.092c-0.079,0-0.131,0.078-0.157,0.131
	c-0.222,0.327-0.955,1.242-1.374,1.242c-0.157,0-0.249-0.091-0.249-0.261c0-0.184,0.131-0.497,0.196-0.668L125.717,18.899z"/>
<path fill-rule="evenodd" clip-rule="evenodd" fill="#B4162C" d="M130.688,15.511c0-0.249-0.17-0.458-0.432-0.458
	c-0.379,0-0.667,0.497-0.667,0.837c0,0.249,0.13,0.484,0.405,0.484C130.4,16.374,130.688,15.877,130.688,15.511z M127.941,21.685
	c-0.092,0.314-0.235,0.812-0.235,1.151c0,0.301,0.065,0.523,0.405,0.523c0.55,0,1.282-0.759,1.596-1.151
	c0.131-0.17,0.549-0.707,0.549-0.929c0-0.053-0.013-0.092-0.079-0.092c-0.091,0-0.144,0.092-0.183,0.17
	c-0.157,0.262-0.824,1.19-1.151,1.19c-0.118,0-0.17-0.104-0.17-0.235c0-0.17,0.065-0.354,0.118-0.523l0.968-3.14
	c0.079-0.235,0.222-0.706,0.222-0.955c0-0.287-0.091-0.483-0.405-0.483c-0.497,0-1.217,0.641-1.543,0.955
	c-0.105,0.104-0.641,0.68-0.641,0.85c0,0.065,0.026,0.105,0.079,0.105c0.17,0,0.902-1.151,1.347-1.151
	c0.131,0,0.157,0.131,0.157,0.235c0,0.117-0.079,0.34-0.105,0.444L127.941,21.685z"/>
<path fill-rule="evenodd" clip-rule="evenodd" fill="#B4162C" d="M133.054,20.874c0.354,0.313,0.72,0.68,0.72,1.189
	c0,0.576-0.628,1.008-1.165,1.008c-1.164,0-1.399-1.413-1.753-1.413c-0.183,0-0.235,0.366-0.261,0.472
	c-0.026,0.091-0.118,0.313-0.118,0.418c0,0.157,0.183,0.288,0.301,0.366c0.418,0.274,1.007,0.445,1.504,0.445
	c0.536,0,1.112-0.171,1.557-0.484c0.366-0.274,0.759-0.798,0.759-1.282c0-1.347-2.159-2.171-2.159-3.218
	c0-0.523,0.418-0.876,0.929-0.876c0.55,0,0.903,0.353,1.269,0.719c0.079,0.079,0.288,0.301,0.405,0.301
	c0.17,0,0.196-0.274,0.236-0.379c0.026-0.104,0.091-0.274,0.091-0.38c0-0.457-1.321-0.549-1.583-0.549
	c-1.034,0-2.106,0.641-2.106,1.779c0,0.589,0.537,1.111,0.942,1.491L133.054,20.874z M134.192,15.877l-0.641-1.321
	c-0.157-0.341-0.13-0.354-0.536-0.354c-0.079,0-0.222-0.013-0.222,0.104c0,0.092,0.118,0.274,0.157,0.354l0.667,1.295
	c0.196,0.379,0.131,0.34,0.576,0.34c0.262,0,0.274,0,0.471-0.156l1.832-1.518c0.079-0.065,0.249-0.171,0.249-0.301
	c0-0.145-0.183-0.118-0.288-0.118c-0.288,0-0.301,0.026-0.523,0.223L134.192,15.877z"/>
<path fill-rule="evenodd" clip-rule="evenodd" fill="#B4162C" d="M138.155,17.747h1.007c0.079,0,0.262,0.013,0.301-0.078
	c0.039-0.092,0.052-0.118,0.052-0.184c0-0.117-0.262-0.078-0.288-0.078h-0.981l0.34-1.086c0.026-0.078,0.078-0.248,0.078-0.34
	c0-0.17-0.327-0.118-0.418-0.118c-0.157,0-0.379-0.039-0.458,0.144l-0.431,1.4h-0.785c-0.196,0-0.353-0.014-0.353,0.235
	c0,0.131,0.235,0.104,0.301,0.104h0.746l-1.165,3.794c-0.104,0.327-0.248,0.771-0.248,1.125c0,0.301,0.118,0.693,0.484,0.693
	c0.602,0,1.413-0.916,1.74-1.36c0.079-0.105,0.393-0.537,0.393-0.681c0-0.052-0.04-0.104-0.105-0.104s-0.104,0.092-0.144,0.157
	c-0.052,0.091-0.184,0.262-0.236,0.353c-0.183,0.249-0.667,0.877-0.981,0.877c-0.157,0-0.209-0.145-0.209-0.275
	c0-0.17,0.105-0.471,0.157-0.628L138.155,17.747z"/>
<path fill-rule="evenodd" clip-rule="evenodd" fill="#B4162C" d="M141.882,18.624c0.118-0.302,0.249-0.615,0.249-0.942
	c0-0.301-0.157-0.471-0.458-0.471c-0.34,0-0.759,0.274-1.021,0.471c-0.418,0.314-0.641,0.536-0.942,0.955
	c-0.039,0.065-0.17,0.235-0.17,0.314c0,0.052,0.026,0.104,0.079,0.104c0.065,0,0.131-0.079,0.157-0.118
	c0.17-0.262,0.876-1.086,1.204-1.086c0.118,0,0.183,0.079,0.183,0.196c0,0.145-0.144,0.445-0.196,0.576l-0.942,2.328
	c-0.131,0.327-0.366,0.941-0.366,1.282c0,0.811,0.432,1.125,1.19,1.125c2.146,0,4.343-3.389,4.343-5.338
	c0-0.313-0.13-0.941-0.536-0.941c-0.274,0-0.445,0.34-0.445,0.575c0,0.262,0.118,0.445,0.249,0.642
	c0.118,0.183,0.157,0.313,0.157,0.536c0,1.399-1.884,4.095-3.388,4.095c-0.393,0-0.667-0.302-0.667-0.681
	c0-0.313,0.144-0.693,0.261-0.994L141.882,18.624z"/>
<path fill-rule="evenodd" clip-rule="evenodd" fill="#B4162C" d="M150.437,19.173c0,1.413-0.941,3.898-2.629,3.898
	c-1.06,0-1.348-0.929-1.348-1.831c0-1.466,0.902-3.768,2.655-3.768C150.136,17.473,150.437,18.283,150.437,19.173z M151.34,19.762
	c0-1.295-0.929-2.551-2.302-2.551c-1.818,0-3.519,1.792-3.519,3.598c0,1.269,0.811,2.551,2.198,2.551c0.916,0,1.923-0.55,2.564-1.19
	C150.908,21.541,151.34,20.638,151.34,19.762z"/>
<path fill-rule="evenodd" clip-rule="evenodd" fill="#B4162C" d="M159.162,15.511c0-0.249-0.17-0.458-0.432-0.458
	c-0.379,0-0.667,0.497-0.667,0.837c0,0.249,0.131,0.484,0.406,0.484C158.873,16.374,159.162,15.877,159.162,15.511z M156.415,21.685
	c-0.092,0.314-0.235,0.812-0.235,1.151c0,0.301,0.065,0.523,0.405,0.523c0.549,0,1.282-0.759,1.596-1.151
	c0.13-0.17,0.549-0.707,0.549-0.929c0-0.053-0.013-0.092-0.079-0.092c-0.092,0-0.144,0.092-0.183,0.17
	c-0.157,0.262-0.824,1.19-1.151,1.19c-0.118,0-0.17-0.104-0.17-0.235c0-0.17,0.065-0.354,0.118-0.523l0.968-3.14
	c0.078-0.235,0.222-0.706,0.222-0.955c0-0.287-0.092-0.483-0.406-0.483c-0.497,0-1.216,0.641-1.543,0.955
	c-0.104,0.104-0.641,0.68-0.641,0.85c0,0.065,0.026,0.105,0.078,0.105c0.17,0,0.903-1.151,1.348-1.151
	c0.13,0,0.157,0.131,0.157,0.235c0,0.117-0.079,0.34-0.104,0.444L156.415,21.685z"/>
<path fill-rule="evenodd" clip-rule="evenodd" fill="#B4162C" d="M166.145,18.899c0.104-0.274,0.249-0.654,0.249-0.955
	c0-0.471-0.366-0.732-0.811-0.732c-1.688,0-3.218,2.303-3.938,3.61l-0.026-0.026l0.562-1.792c0.105-0.354,0.223-0.771,0.223-1.151
	c0-0.379-0.131-0.641-0.537-0.641c-0.549,0-1.229,0.654-1.556,1.046c-0.105,0.105-0.562,0.707-0.562,0.851
	c0,0.065,0.052,0.092,0.104,0.092c0.078,0,0.118-0.078,0.144-0.144c0.157-0.275,0.876-1.151,1.216-1.151
	c0.196,0,0.262,0.144,0.262,0.313c0,0.223-0.092,0.511-0.157,0.72l-1.164,3.807c-0.026,0.065-0.079,0.235-0.079,0.301
	c0,0.223,0.275,0.157,0.406,0.157c0.418,0,0.418-0.065,0.536-0.444c0.314-1.021,1.321-2.761,2.015-3.585
	c0.405-0.471,1.229-1.438,1.923-1.438c0.301,0,0.458,0.17,0.458,0.458c0,0.235-0.105,0.483-0.183,0.706l-0.929,2.473
	c-0.157,0.405-0.353,0.954-0.353,1.399c0,0.379,0.17,0.589,0.562,0.589c0.537,0,1.321-0.759,1.662-1.139
	c0.104-0.104,0.588-0.706,0.588-0.876c0-0.053-0.052-0.092-0.091-0.092c-0.079,0-0.131,0.078-0.157,0.131
	c-0.222,0.327-0.955,1.242-1.374,1.242c-0.157,0-0.249-0.091-0.249-0.261c0-0.184,0.131-0.497,0.196-0.668L166.145,18.899z"/>
<path fill-rule="evenodd" clip-rule="evenodd" fill="#B4162C" d="M174.699,15.511c0-0.249-0.17-0.458-0.432-0.458
	c-0.379,0-0.667,0.497-0.667,0.837c0,0.249,0.131,0.484,0.405,0.484C174.412,16.374,174.699,15.877,174.699,15.511z M171.952,21.685
	c-0.092,0.314-0.235,0.812-0.235,1.151c0,0.301,0.065,0.523,0.405,0.523c0.55,0,1.282-0.759,1.596-1.151
	c0.131-0.17,0.549-0.707,0.549-0.929c0-0.053-0.013-0.092-0.079-0.092c-0.091,0-0.144,0.092-0.183,0.17
	c-0.157,0.262-0.824,1.19-1.151,1.19c-0.118,0-0.17-0.104-0.17-0.235c0-0.17,0.065-0.354,0.118-0.523l0.968-3.14
	c0.079-0.235,0.223-0.706,0.223-0.955c0-0.287-0.092-0.483-0.406-0.483c-0.497,0-1.217,0.641-1.543,0.955
	c-0.104,0.104-0.641,0.68-0.641,0.85c0,0.065,0.026,0.105,0.079,0.105c0.17,0,0.902-1.151,1.347-1.151
	c0.131,0,0.157,0.131,0.157,0.235c0,0.117-0.079,0.34-0.105,0.444L171.952,21.685z"/>
<path fill-rule="evenodd" clip-rule="evenodd" fill="#B4162C" d="M181.683,18.899c0.104-0.274,0.249-0.654,0.249-0.955
	c0-0.471-0.366-0.732-0.811-0.732c-1.688,0-3.218,2.303-3.938,3.61l-0.026-0.026l0.562-1.792c0.105-0.354,0.222-0.771,0.222-1.151
	c0-0.379-0.13-0.641-0.536-0.641c-0.549,0-1.229,0.654-1.557,1.046c-0.104,0.105-0.562,0.707-0.562,0.851
	c0,0.065,0.052,0.092,0.104,0.092c0.079,0,0.118-0.078,0.144-0.144c0.157-0.275,0.876-1.151,1.217-1.151
	c0.196,0,0.261,0.144,0.261,0.313c0,0.223-0.091,0.511-0.157,0.72l-1.165,3.807c-0.026,0.065-0.078,0.235-0.078,0.301
	c0,0.223,0.274,0.157,0.405,0.157c0.419,0,0.419-0.065,0.537-0.444c0.313-1.021,1.321-2.761,2.014-3.585
	c0.406-0.471,1.23-1.438,1.923-1.438c0.301,0,0.458,0.17,0.458,0.458c0,0.235-0.104,0.483-0.183,0.706l-0.929,2.473
	c-0.157,0.405-0.353,0.954-0.353,1.399c0,0.379,0.17,0.589,0.562,0.589c0.536,0,1.321-0.759,1.661-1.139
	c0.104-0.104,0.589-0.706,0.589-0.876c0-0.053-0.052-0.092-0.092-0.092c-0.079,0-0.131,0.078-0.157,0.131
	c-0.223,0.327-0.955,1.242-1.374,1.242c-0.157,0-0.249-0.091-0.249-0.261c0-0.184,0.131-0.497,0.196-0.668L181.683,18.899z"/>
<path fill-rule="evenodd" clip-rule="evenodd" fill="#B4162C" d="M185.751,17.747h1.046c0.079,0,0.235,0.026,0.301-0.065
	c0.04-0.092,0.052-0.131,0.052-0.183c0-0.118-0.262-0.092-0.301-0.092h-0.994l0.249-0.798c0.17-0.562,0.393-1.36,0.785-1.793
	c0.144-0.17,0.406-0.379,0.641-0.379c0.576,0,0.079,0.981,0.89,0.981c0.34,0,0.562-0.223,0.562-0.576
	c0-0.549-0.471-0.759-0.955-0.759c-0.628,0-1.517,0.511-1.949,0.955c-0.523,0.55-0.837,1.426-1.046,2.146l-0.065,0.223h-0.759
	c-0.209,0-0.366-0.014-0.366,0.248c0,0.131,0.235,0.092,0.301,0.092h0.719l-1.688,5.521c-0.183,0.602-0.51,1.727-0.837,2.236
	c-0.157,0.249-0.367,0.472-0.681,0.472c-0.262,0-0.262-0.184-0.249-0.393c0.013-0.38-0.131-0.771-0.562-0.771
	c-0.314,0-0.562,0.235-0.562,0.549c0,0.615,0.681,0.837,1.19,0.837c0.798,0,1.426-0.497,1.845-1.124
	c0.405-0.615,0.562-1.19,0.771-1.885L185.751,17.747z"/>
<path fill-rule="evenodd" clip-rule="evenodd" fill="#B4162C" d="M192.015,19.173c0,1.413-0.942,3.898-2.629,3.898
	c-1.06,0-1.348-0.929-1.348-1.831c0-1.466,0.903-3.768,2.656-3.768C191.714,17.473,192.015,18.283,192.015,19.173z M192.917,19.762
	c0-1.295-0.929-2.551-2.302-2.551c-1.818,0-3.519,1.792-3.519,3.598c0,1.269,0.811,2.551,2.197,2.551c0.916,0,1.923-0.55,2.564-1.19
	C192.486,21.541,192.917,20.638,192.917,19.762z"/>
<path fill-rule="evenodd" clip-rule="evenodd" fill="#B4162C" d="M194.094,22.666c-0.013,0.052-0.091,0.301-0.091,0.366
	c0,0.196,0.249,0.17,0.366,0.17c0.523,0,0.484-0.104,0.628-0.589c0.249-0.837,1.099-2.446,1.583-3.205
	c0.144-0.235,0.942-1.412,1.295-1.412s-0.013,0.641,0.641,0.641c0.393,0,0.602-0.419,0.602-0.771c0-0.406-0.262-0.654-0.654-0.654
	c-1.125,0-2.407,2.643-2.891,3.506l0.562-1.845c0.092-0.288,0.183-0.575,0.183-0.89c0-0.288-0.091-0.771-0.484-0.771
	c-0.432,0-1.034,0.536-1.308,0.851c-0.131,0.144-0.667,0.771-0.667,0.98c0,0.053,0.04,0.092,0.092,0.092
	c0.079,0,0.157-0.144,0.196-0.196l0.118-0.17c0.157-0.223,0.667-0.877,0.968-0.877c0.144,0,0.17,0.157,0.17,0.275
	c0,0.235-0.092,0.523-0.157,0.759L194.094,22.666z"/>
<path fill-rule="evenodd" clip-rule="evenodd" fill="#B4162C" d="M201.313,20.625l0.536-1.74c0.104-0.34,0.196-0.706,0.196-1.059
	c0-0.249-0.026-0.615-0.354-0.615c-0.536,0-1.216,0.641-1.569,0.994c-0.105,0.104-0.654,0.746-0.654,0.89
	c0,0.052,0.026,0.104,0.092,0.104c0.104,0,0.209-0.184,0.262-0.262c0.157-0.235,0.824-1.007,1.125-1.007
	c0.118,0,0.157,0.144,0.157,0.235c0,0.248-0.079,0.483-0.144,0.719l-1.164,3.781c-0.026,0.104-0.079,0.262-0.079,0.379
	c0,0.209,0.288,0.157,0.418,0.157c0.458,0,0.393-0.014,0.55-0.51c0.327-1.1,1.164-2.617,1.857-3.532
	c0.262-0.341,1.073-1.348,1.596-1.348c0.274,0,0.379,0.223,0.379,0.471c0,0.262-0.104,0.589-0.183,0.838l-1.085,3.558
	c-0.013,0.053-0.105,0.327-0.105,0.38c0,0.195,0.354,0.144,0.445,0.144c0.458,0,0.418-0.078,0.537-0.484
	c0.301-0.994,1.059-2.433,1.648-3.296c0.327-0.484,1.19-1.622,1.845-1.622c0.288,0,0.432,0.117,0.432,0.432
	c0,0.313-0.235,0.941-0.34,1.242l-0.68,1.884c-0.131,0.38-0.366,1.021-0.366,1.413c0,0.354,0.131,0.589,0.51,0.589
	c0.549,0,1.243-0.654,1.57-1.034c0.144-0.156,0.654-0.771,0.654-1.007c0-0.052-0.039-0.092-0.104-0.092
	c-0.052,0-0.092,0.065-0.118,0.104c-0.209,0.327-0.929,1.348-1.348,1.348c-0.144,0-0.209-0.117-0.209-0.248
	c0-0.184,0.039-0.288,0.104-0.458l0.981-2.695c0.144-0.405,0.288-0.85,0.288-1.281c0-0.497-0.314-0.785-0.824-0.785
	c-0.693,0-1.531,0.693-1.949,1.19c-0.588,0.693-1.034,1.504-1.478,2.303l0.405-1.335c0.105-0.354,0.209-0.732,0.209-1.112
	c0-0.497-0.183-1.046-0.772-1.046c-1.216,0-2.551,2.185-3.1,3.126L201.313,20.625z"/>
<path fill-rule="evenodd" clip-rule="evenodd" fill="#B4162C" d="M215.545,18.14c0,0.602-1.073,2.093-1.439,2.551
	c-0.458,0.576-1.622,1.976-2.42,1.976c-0.418,0-0.602-0.432-0.602-0.798c0-0.824,0.693-2.146,1.19-2.773
	c0.549-0.72,1.478-1.636,2.433-1.636C215.153,17.459,215.545,17.655,215.545,18.14z M215.741,17.669
	c-0.274-0.354-0.562-0.458-1.007-0.458c-1.19,0-2.368,0.745-3.166,1.583c-0.746,0.785-1.504,2.105-1.504,3.218
	c0,0.641,0.301,1.348,1.033,1.348c1.543,0,3.296-2.499,4.029-3.702l-0.798,2.59c-0.065,0.223-0.144,0.484-0.144,0.732
	c0,0.223,0.118,0.38,0.354,0.38c0.523,0,1.229-0.615,1.557-0.969c0.157-0.17,0.693-0.85,0.693-1.085
	c0-0.053-0.039-0.105-0.092-0.105c-0.091,0-0.183,0.171-0.222,0.236c-0.157,0.248-0.772,1.072-1.099,1.072
	c-0.104,0-0.13-0.092-0.13-0.196c0-0.117,0.078-0.327,0.104-0.432l1.347-4.422c0.013-0.052,0.065-0.195,0.065-0.261
	c0-0.184-0.366-0.118-0.445-0.118c-0.432,0-0.405,0.065-0.536,0.471L215.741,17.669z"/>
<path fill-rule="evenodd" clip-rule="evenodd" fill="#B4162C" d="M220.032,17.747h1.007c0.079,0,0.262,0.013,0.301-0.078
	c0.039-0.092,0.052-0.118,0.052-0.184c0-0.117-0.262-0.078-0.288-0.078h-0.981l0.34-1.086c0.026-0.078,0.079-0.248,0.079-0.34
	c0-0.17-0.327-0.118-0.419-0.118c-0.157,0-0.379-0.039-0.458,0.144l-0.432,1.4h-0.785c-0.196,0-0.353-0.014-0.353,0.235
	c0,0.131,0.235,0.104,0.301,0.104h0.746l-1.164,3.794c-0.104,0.327-0.249,0.771-0.249,1.125c0,0.301,0.118,0.693,0.484,0.693
	c0.602,0,1.413-0.916,1.74-1.36c0.079-0.105,0.393-0.537,0.393-0.681c0-0.052-0.04-0.104-0.104-0.104
	c-0.065,0-0.105,0.092-0.144,0.157c-0.052,0.091-0.183,0.262-0.235,0.353c-0.183,0.249-0.667,0.877-0.981,0.877
	c-0.157,0-0.209-0.145-0.209-0.275c0-0.17,0.105-0.471,0.157-0.628L220.032,17.747z"/>
<path fill-rule="evenodd" clip-rule="evenodd" fill="#B4162C" d="M224.857,15.511c0-0.249-0.17-0.458-0.432-0.458
	c-0.379,0-0.667,0.497-0.667,0.837c0,0.249,0.131,0.484,0.405,0.484C224.57,16.374,224.857,15.877,224.857,15.511z M222.11,21.685
	c-0.091,0.314-0.235,0.812-0.235,1.151c0,0.301,0.065,0.523,0.405,0.523c0.55,0,1.282-0.759,1.596-1.151
	c0.131-0.17,0.549-0.707,0.549-0.929c0-0.053-0.013-0.092-0.079-0.092c-0.091,0-0.144,0.092-0.183,0.17
	c-0.157,0.262-0.824,1.19-1.151,1.19c-0.118,0-0.17-0.104-0.17-0.235c0-0.17,0.066-0.354,0.118-0.523l0.968-3.14
	c0.079-0.235,0.223-0.706,0.223-0.955c0-0.287-0.092-0.483-0.406-0.483c-0.497,0-1.217,0.641-1.543,0.955
	c-0.104,0.104-0.641,0.68-0.641,0.85c0,0.065,0.026,0.105,0.079,0.105c0.17,0,0.902-1.151,1.347-1.151
	c0.131,0,0.157,0.131,0.157,0.235c0,0.117-0.079,0.34-0.105,0.444L222.11,21.685z"/>
<path fill-rule="evenodd" clip-rule="evenodd" fill="#B4162C" d="M226.883,20.638c0.471-0.89,1.871-2.891,2.969-2.891
	c0.354,0,0.576,0.262,0.576,0.602c0,0.628-0.484,1.19-0.968,1.557c-0.628,0.472-1.478,0.732-2.263,0.732H226.883z M226.766,20.874
	c0.405-0.079,0.602,0.34,0.732,0.641c0.379,0.863,0.772,1.845,1.871,1.845c0.693,0,1.334-0.458,1.334-1.178
	c0-0.366-0.196-0.72-0.602-0.72c-0.196,0-0.327,0.171-0.327,0.354c0,0.471,0.562,0.274,0.562,0.72c0,0.301-0.288,0.497-0.562,0.497
	c-0.576,0-0.876-0.759-1.086-1.19c-0.196-0.419-0.405-0.877-0.863-1.047c0.772-0.117,1.609-0.235,2.289-0.641
	c0.641-0.38,1.229-1.008,1.229-1.792c0-0.615-0.471-1.151-1.099-1.151c-1.282,0-2.812,1.962-3.388,3.009l1.727-5.651
	c0.026-0.065,0.104-0.314,0.104-0.393c0-0.052-0.039-0.092-0.091-0.092c-0.04,0-0.105,0.026-0.144,0.04
	c-0.51,0.301-0.916,0.326-1.491,0.326c-0.104,0-0.301-0.013-0.301,0.131c0,0.145,0.131,0.131,0.236,0.131
	c0.235,0.014,0.576,0.04,0.576,0.354c0,0.184-0.118,0.55-0.17,0.732l-2.119,6.96c-0.026,0.078-0.078,0.235-0.078,0.313
	c0,0.183,0.34,0.131,0.431,0.131c0.51,0,0.406-0.118,0.589-0.602L226.766,20.874z"/>
<path fill-rule="evenodd" clip-rule="evenodd" fill="#B4162C" d="M236.654,19.173c0,1.413-0.942,3.898-2.629,3.898
	c-1.06,0-1.348-0.929-1.348-1.831c0-1.466,0.902-3.768,2.655-3.768C236.353,17.473,236.654,18.283,236.654,19.173z M237.557,19.762
	c0-1.295-0.929-2.551-2.302-2.551c-1.818,0-3.519,1.792-3.519,3.598c0,1.269,0.811,2.551,2.198,2.551c0.916,0,1.923-0.55,2.564-1.19
	C237.125,21.541,237.557,20.638,237.557,19.762z"/>
<path fill-rule="evenodd" clip-rule="evenodd" d="M70.682,7.505c0,0.653,0.013,1.242-0.471,1.739
	c-0.536,0.536-1.374,0.707-2.119,0.707c-0.719,0-1.714-0.184-2.119-0.851c-0.301-0.484-0.275-1.439-0.275-2.015V3.397
	c0-0.823-0.065-1.072,0.851-1.072c0.118,0,0.34,0,0.34-0.17c0-0.144-0.104-0.184-0.222-0.184c-0.497,0-0.994,0.053-1.491,0.053
	c-0.498,0-0.968-0.053-1.465-0.053c-0.131,0-0.223,0.04-0.223,0.184c0,0.17,0.209,0.17,0.327,0.17c0.916,0,0.851,0.249,0.851,1.072
	v4.108c0,0.863-0.013,1.608,0.771,2.171c0.654,0.458,1.662,0.602,2.433,0.602c0.863,0,1.806-0.131,2.459-0.693
	c0.707-0.614,0.719-1.242,0.719-2.079V3.423c0-0.602-0.065-1.099,0.681-1.099c0.118,0,0.418,0,0.418-0.184
	c0-0.156-0.17-0.17-0.275-0.17c-0.34,0-0.68,0.053-1.02,0.053c-0.393,0-0.785-0.053-1.177-0.053c-0.131,0-0.275,0.04-0.275,0.184
	c0,0.183,0.235,0.17,0.353,0.17c0.301,0,0.628,0.013,0.785,0.301c0.157,0.262,0.144,0.981,0.144,1.295V7.505z"/>
<path fill-rule="evenodd" clip-rule="evenodd" d="M73.01,8.786c0,0.562,0.118,1.008-0.588,1.073
	c-0.144,0.013-0.367-0.014-0.367,0.183c0,0.104,0.092,0.131,0.183,0.131c0.406,0,0.824-0.052,1.243-0.052
	c0.393,0,0.811,0.052,1.23,0.052c0.091,0,0.157-0.039,0.157-0.144c0-0.17-0.235-0.157-0.366-0.17
	c-0.707-0.065-0.588-0.511-0.588-1.073V6.589c0-0.523,0.039-0.812,0.418-1.203c0.34-0.354,0.798-0.562,1.295-0.562
	c0.51,0,0.981,0.209,1.23,0.588c0.235,0.354,0.235,0.877,0.235,1.295v2.08c0,0.562,0.118,1.008-0.589,1.073
	c-0.144,0.013-0.366-0.014-0.366,0.183c0,0.104,0.092,0.131,0.183,0.131c0.405,0,0.824-0.052,1.243-0.052
	c0.393,0,0.811,0.052,1.23,0.052c0.091,0,0.157-0.039,0.157-0.144c0-0.17-0.235-0.157-0.366-0.17
	c-0.707-0.065-0.589-0.511-0.589-1.073V6.72c0-0.628,0.026-1.269-0.392-1.806c-0.367-0.471-0.89-0.706-1.544-0.706
	c-1.19,0-1.923,1.072-2.145,1.072V4.417c0-0.091,0.013-0.209-0.118-0.209c-0.104,0-0.17,0.104-0.235,0.17
	c-0.209,0.249-0.771,0.589-1.085,0.681c-0.118,0.039-0.301,0.065-0.301,0.222c0,0.079,0.078,0.105,0.157,0.105h0.17
	c0.104,0,0.301,0.013,0.379,0.104c0.144,0.144,0.131,0.653,0.131,0.837V8.786z"/>
<path fill-rule="evenodd" clip-rule="evenodd" d="M81.013,3.07c0.379,0,0.576-0.301,0.576-0.654c0-0.314-0.209-0.628-0.549-0.628
	c-0.353,0-0.589,0.313-0.589,0.654C80.451,2.782,80.66,3.07,81.013,3.07z M81.471,4.417c0-0.091,0.013-0.209-0.118-0.209
	c-0.104,0-0.17,0.104-0.235,0.17c-0.209,0.249-0.772,0.589-1.086,0.681c-0.118,0.039-0.301,0.065-0.301,0.222
	c0,0.079,0.079,0.105,0.157,0.105h0.17c0.105,0,0.301,0.013,0.38,0.104c0.144,0.144,0.13,0.653,0.13,0.837v2.459
	c0,0.562,0.118,1.008-0.588,1.073c-0.144,0.013-0.366-0.014-0.366,0.183c0,0.104,0.091,0.131,0.183,0.131
	c0.405,0,0.824-0.052,1.243-0.052c0.393,0,0.811,0.052,1.229,0.052c0.092,0,0.157-0.039,0.157-0.144c0-0.17-0.235-0.157-0.367-0.17
	c-0.706-0.065-0.588-0.511-0.588-1.073V4.417z"/>
<path fill-rule="evenodd" clip-rule="evenodd" d="M85.929,8.931L84.595,5.66c-0.065-0.157-0.209-0.484-0.209-0.654
	c0-0.248,0.249-0.366,0.484-0.366c0.092,0,0.367,0.039,0.367-0.117c0-0.157-0.131-0.145-0.249-0.145H82.62
	c-0.104,0-0.196-0.013-0.196,0.118c0,0.144,0.144,0.144,0.249,0.144c0.549,0.026,0.615,0.274,0.811,0.759l1.896,4.578l0.079,0.17
	c0.013,0.053,0.052,0.131,0.118,0.131c0.104,0,0.196-0.261,0.223-0.301l1.87-4.055c0.223-0.484,0.458-1.204,1.073-1.282
	c0.104-0.013,0.327-0.013,0.327-0.17c0-0.118-0.065-0.092-0.17-0.092h-1.923c-0.105,0-0.196,0-0.196,0.118
	c0,0.144,0.235,0.144,0.353,0.144c0.235,0,0.51,0.092,0.51,0.354c0,0.156-0.104,0.418-0.17,0.562L85.929,8.931z"/>
<path fill-rule="evenodd" clip-rule="evenodd" d="M90.09,6.249c-0.144,0-0.445,0.039-0.445-0.171c0-0.209,0.222-0.614,0.327-0.758
	c0.406-0.55,1.034-0.877,1.701-0.877c0.418,0,0.851,0.104,1.138,0.405c0.183,0.196,0.34,0.497,0.34,0.772
	c0,0.313-0.196,0.457-0.484,0.522c-0.379,0.092-1.112,0.105-1.518,0.105H90.09z M94.04,6.563c0.131,0,0.157-0.118,0.157-0.223
	c0-0.432-0.196-0.994-0.458-1.321c-0.458-0.562-1.177-0.811-1.884-0.811c-0.889,0-1.7,0.301-2.354,0.877
	C88.808,5.687,88.56,6.38,88.56,7.269c0,1.636,1.269,3.009,2.982,3.009c0.811,0,1.452-0.209,2.067-0.732
	c0.092-0.078,0.51-0.432,0.51-0.589c0-0.052-0.04-0.104-0.104-0.104c-0.17,0-0.654,0.851-1.936,0.851
	c-1.583,0-2.538-1.269-2.538-2.734c0-0.432,0.131-0.405,0.537-0.405H94.04z"/>
<path fill-rule="evenodd" clip-rule="evenodd" d="M95.506,8.786c0,0.562,0.118,1.008-0.588,1.073
	c-0.144,0.013-0.366-0.014-0.366,0.183c0,0.104,0.091,0.131,0.183,0.131c0.405,0,0.824-0.052,1.243-0.052
	c0.393,0,0.811,0.052,1.229,0.052c0.092,0,0.157-0.039,0.157-0.144c0-0.17-0.236-0.157-0.366-0.17
	c-0.707-0.065-0.589-0.511-0.589-1.073V6.72c0-0.523-0.026-0.863,0.301-1.309c0.144-0.196,0.379-0.471,0.667-0.471
	c0.366,0,0.392,0.497,0.837,0.497c0.314,0,0.549-0.196,0.549-0.523c0-0.392-0.353-0.628-0.746-0.628
	c-0.902,0-1.413,1.047-1.543,1.047c-0.091,0-0.065-0.223-0.065-0.274V4.417c0-0.091,0.013-0.209-0.118-0.209
	c-0.104,0-0.17,0.104-0.235,0.17c-0.209,0.249-0.772,0.589-1.086,0.681c-0.118,0.039-0.301,0.065-0.301,0.222
	c0,0.079,0.079,0.105,0.157,0.105h0.17c0.104,0,0.301,0.013,0.379,0.104c0.144,0.144,0.13,0.653,0.13,0.837V8.786z"/>
<path fill-rule="evenodd" clip-rule="evenodd" d="M104.086,4.849c0.052-0.065,0.209-0.274,0.209-0.379
	c0-0.118-0.157-0.092-0.235-0.092h-3.192c-0.327,0-0.667,0.026-0.667-0.379c0-0.092-0.013-0.21-0.131-0.21
	c-0.131,0-0.209,0.288-0.235,0.366l-0.34,0.994c-0.013,0.04-0.091,0.249-0.091,0.302c0,0.064,0.052,0.104,0.118,0.104
	c0.104,0,0.17-0.131,0.222-0.21c0.144-0.209,0.418-0.432,0.654-0.536c0.314-0.144,0.719-0.104,1.046-0.104h1.308
	c0.065,0,0.223,0,0.223,0.092c0,0.078-0.118,0.235-0.157,0.288L99.338,9.69c-0.026,0.052-0.183,0.222-0.183,0.301
	c0,0.196,0.366,0.131,0.471,0.131h4.448c0.262,0.025,0.196-0.301,0.196-0.458l0.026-0.642c0-0.091,0.066-0.496-0.118-0.496
	c-0.13,0-0.157,0.17-0.183,0.261c-0.131,0.341-0.262,0.654-0.589,0.838c-0.34,0.183-0.916,0.196-1.308,0.196h-1.138
	c-0.052,0-0.458,0.025-0.458-0.105c0-0.091,0.157-0.274,0.209-0.326L104.086,4.849z"/>
<path fill-rule="evenodd" clip-rule="evenodd" d="M108.259,7.073c0.04-0.014,0.104-0.053,0.144-0.053
	c0.131,0,0.092,0.313,0.092,0.366v0.785c0,0.432-0.013,0.654-0.327,0.98c-0.314,0.314-0.759,0.523-1.217,0.523
	c-0.484,0-0.903-0.262-0.903-0.771c0-0.628,0.51-0.968,1.021-1.229L108.259,7.073z M107.003,7.413
	c-0.732,0.34-1.936,0.902-1.936,1.831c0,0.654,0.615,1.033,1.23,1.033c1.138,0,1.988-0.994,2.106-0.994
	c0.183,0,0.249,0.916,0.89,0.916c0.34,0,0.667-0.196,0.929-0.379c0.091-0.079,0.314-0.262,0.314-0.406
	c0-0.052-0.039-0.104-0.092-0.104c-0.118,0-0.262,0.327-0.589,0.327c-0.471,0-0.458-0.759-0.458-1.047V5.503
	c0-0.354,0.052-0.68-0.262-0.955c-0.301-0.262-0.785-0.34-1.19-0.34c-0.837,0-1.727,0.354-2.341,0.902
	c-0.249,0.21-0.549,0.589-0.549,0.929c0,0.131,0.065,0.157,0.17,0.157c0.157,0,0.432-0.104,0.562-0.17
	c0.209-0.092,0.274-0.274,0.366-0.471c0.301-0.667,0.707-1.099,1.504-1.099c0.811,0,0.837,0.536,0.837,1.177v0.575
	c0,0.497-0.013,0.511-0.484,0.733L107.003,7.413z"/>
<path fill-rule="evenodd" clip-rule="evenodd" d="M118.116,5.542c0.118-0.301,0.248-0.614,0.248-0.941
	c0-0.301-0.157-0.471-0.458-0.471c-0.34,0-0.759,0.274-1.021,0.471c-0.418,0.313-0.641,0.536-0.942,0.955
	c-0.039,0.065-0.17,0.235-0.17,0.313c0,0.053,0.026,0.104,0.079,0.104c0.065,0,0.13-0.078,0.157-0.117
	c0.17-0.262,0.876-1.086,1.204-1.086c0.118,0,0.183,0.078,0.183,0.196c0,0.144-0.144,0.444-0.196,0.575l-0.942,2.329
	c-0.131,0.326-0.366,0.941-0.366,1.281c0,0.812,0.432,1.125,1.19,1.125c2.145,0,4.343-3.388,4.343-5.337
	c0-0.313-0.13-0.941-0.536-0.941c-0.275,0-0.445,0.34-0.445,0.575c0,0.262,0.118,0.444,0.249,0.641
	c0.118,0.184,0.157,0.314,0.157,0.537c0,1.399-1.884,4.094-3.388,4.094c-0.393,0-0.667-0.301-0.667-0.68
	c0-0.314,0.144-0.693,0.261-0.994L118.116,5.542z"/>
<path fill-rule="evenodd" clip-rule="evenodd" d="M130.53,8.721c0.026-0.091,0.078-0.248,0.078-0.353
	c0-0.079-0.052-0.118-0.131-0.118c-0.144,0-0.222,0.235-0.274,0.34c-0.641,1.309-1.583,1.204-2.852,1.204
	c-0.222,0-0.536,0.052-0.536-0.262c0-0.118,0.065-0.327,0.104-0.445l1.779-5.795c0.197-0.628,0.275-1.007,1.151-0.994
	c0.131,0,0.393,0.026,0.393-0.17c0-0.144-0.131-0.157-0.249-0.157c-0.51,0.014-1.034,0.053-1.544,0.053
	c-0.405,0-0.811-0.039-1.216-0.053c-0.104,0-0.405-0.065-0.405,0.104c0,0.196,0.183,0.236,0.327,0.223
	c0.275-0.039,0.641-0.052,0.641,0.34c0,0.171-0.104,0.484-0.157,0.642l-1.688,5.507c-0.092,0.288-0.196,0.707-0.445,0.89
	c-0.183,0.145-0.471,0.145-0.693,0.145c-0.144,0.013-0.34,0.013-0.34,0.209c0,0.17,0.549,0.092,0.693,0.092h4.461
	c0.458,0,0.471,0,0.602-0.419L130.53,8.721z"/>
<path fill-rule="evenodd" clip-rule="evenodd" d="M133.969,5.556c0.079-0.235,0.223-0.707,0.223-0.942
	c0-0.287-0.091-0.483-0.405-0.483c-0.498,0-1.204,0.641-1.531,0.955c-0.104,0.091-0.654,0.667-0.654,0.837
	c0,0.065,0.026,0.104,0.092,0.104c0.17,0,0.89-1.138,1.347-1.138c0.118,0,0.157,0.13,0.157,0.235c0,0.104-0.092,0.327-0.118,0.432
	l-1.923,6.292c-0.118,0.405-0.262,1.06-0.798,1.06c-0.549,0-0.497-0.812-1.033-0.812c-0.249,0-0.445,0.21-0.445,0.458
	c0,0.497,0.602,0.654,1.007,0.654c0.576,0,1.164-0.288,1.57-0.693c0.523-0.536,0.811-1.348,1.02-2.041L133.969,5.556z
	 M134.898,2.429c0-0.248-0.157-0.458-0.419-0.458c-0.379,0-0.667,0.497-0.667,0.824c0,0.262,0.131,0.497,0.406,0.497
	C134.623,3.292,134.898,2.795,134.898,2.429z"/>
<path fill-rule="evenodd" clip-rule="evenodd" d="M139.906,6.785l-0.576,1.857c-0.091,0.313-0.235,0.824-0.235,1.151
	c0,0.223,0.079,0.483,0.353,0.483c0.615,0,1.413-0.653,1.792-1.085c0.105-0.118,0.667-0.824,0.667-1.008
	c0-0.052-0.039-0.092-0.092-0.092c-0.065,0-0.118,0.092-0.157,0.145c-0.209,0.353-0.929,1.295-1.374,1.295
	c-0.144,0-0.209-0.144-0.209-0.262c0-0.157,0.065-0.393,0.118-0.55l1.269-4.146c0.026-0.078,0.079-0.223,0.079-0.313
	c0-0.196-0.34-0.131-0.445-0.131c-0.497,0-0.405,0.065-0.549,0.549c-0.406,1.309-1.047,2.473-1.949,3.506
	c-0.366,0.432-1.452,1.505-2.067,1.505c-0.235,0-0.353-0.145-0.353-0.367c0-0.183,0.091-0.457,0.144-0.627l1.047-3.127
	c0.091-0.262,0.196-0.589,0.196-0.863s-0.092-0.575-0.419-0.575c-0.484,0-1.138,0.562-1.439,0.863
	C135.576,5.137,135,5.843,135,6.066c0,0.053,0.013,0.078,0.065,0.078c0.118,0,0.236-0.209,0.288-0.287
	c0.17-0.249,0.759-1.021,1.099-1.021c0.144,0,0.183,0.104,0.183,0.223c0,0.131-0.104,0.393-0.144,0.51l-1.021,2.97
	c-0.104,0.301-0.249,0.745-0.249,1.06c0,0.393,0.144,0.68,0.562,0.68c0.798,0,1.688-0.667,2.25-1.177
	c0.798-0.72,1.177-1.321,1.779-2.185L139.906,6.785z"/>
<path fill-rule="evenodd" clip-rule="evenodd" d="M148.082,5.883c0,1.569-1.622,4.173-3.349,4.173c-0.537,0-0.968-0.262-0.968-0.838
	c0-1.242,2.237-4.486,3.584-4.486C147.951,4.732,148.082,5.411,148.082,5.883z M143.373,7.23c-0.144,0.484-0.34,1.008-0.34,1.53
	c0,1.034,0.746,1.518,1.727,1.518c2.211,0,4.304-2.197,4.304-4.395c0-0.824-0.379-1.753-1.334-1.753
	c-1.269,0-2.852,1.948-3.427,2.982l1.805-5.979c0-0.092-0.039-0.131-0.118-0.131c-0.053,0-0.105,0.026-0.131,0.053
	c-0.458,0.287-0.824,0.327-1.348,0.327c-0.13,0-0.405,0.025-0.405,0.209c0,0.157,0.379,0.131,0.458,0.131
	c0.209,0,0.354,0.052,0.354,0.301c0,0.157-0.105,0.497-0.157,0.654L143.373,7.23z"/>
<path fill-rule="evenodd" clip-rule="evenodd" d="M149.861,8.616c-0.104,0.34-0.235,0.785-0.235,1.151
	c0,0.301,0.065,0.51,0.405,0.51c0.55,0,1.295-0.759,1.596-1.138c0.131-0.157,0.549-0.693,0.549-0.929
	c0-0.053-0.013-0.092-0.065-0.092c-0.105,0-0.157,0.104-0.196,0.17c-0.157,0.275-0.824,1.19-1.138,1.19
	c-0.131,0-0.184-0.117-0.184-0.222c0-0.184,0.079-0.366,0.131-0.523l2.237-7.3c0.013-0.052,0.079-0.248,0.079-0.313
	s-0.04-0.118-0.105-0.118c-0.039,0-0.091,0.039-0.118,0.053c-0.432,0.327-0.981,0.471-1.504,0.497c-0.131,0-0.393-0.014-0.393,0.17
	c0,0.092,0.065,0.144,0.157,0.144l0.209-0.013c0.222-0.014,0.51,0.026,0.51,0.327c0,0.117-0.092,0.418-0.131,0.536L149.861,8.616z"
	/>
<path fill-rule="evenodd" clip-rule="evenodd" d="M155.628,5.556c0.079-0.235,0.223-0.707,0.223-0.942
	c0-0.287-0.092-0.483-0.406-0.483c-0.497,0-1.203,0.641-1.53,0.955c-0.104,0.091-0.654,0.667-0.654,0.837
	c0,0.065,0.026,0.104,0.092,0.104c0.17,0,0.89-1.138,1.347-1.138c0.118,0,0.157,0.13,0.157,0.235c0,0.104-0.092,0.327-0.118,0.432
	l-1.923,6.292c-0.118,0.405-0.262,1.06-0.798,1.06c-0.549,0-0.497-0.812-1.033-0.812c-0.249,0-0.445,0.21-0.445,0.458
	c0,0.497,0.602,0.654,1.007,0.654c0.576,0,1.164-0.288,1.569-0.693c0.523-0.536,0.812-1.348,1.021-2.041L155.628,5.556z
	 M156.557,2.429c0-0.248-0.157-0.458-0.418-0.458c-0.379,0-0.667,0.497-0.667,0.824c0,0.262,0.131,0.497,0.406,0.497
	C156.283,3.292,156.557,2.795,156.557,2.429z"/>
<path fill-rule="evenodd" clip-rule="evenodd" d="M161.774,5.059c0,0.602-1.072,2.093-1.439,2.551
	c-0.458,0.575-1.622,1.975-2.42,1.975c-0.418,0-0.602-0.432-0.602-0.798c0-0.823,0.693-2.146,1.19-2.772
	c0.549-0.72,1.478-1.636,2.433-1.636C161.382,4.378,161.774,4.574,161.774,5.059z M161.971,4.587
	c-0.274-0.353-0.562-0.457-1.007-0.457c-1.19,0-2.368,0.745-3.166,1.582c-0.746,0.785-1.504,2.106-1.504,3.219
	c0,0.641,0.301,1.347,1.034,1.347c1.543,0,3.296-2.498,4.029-3.701l-0.798,2.59c-0.065,0.223-0.144,0.483-0.144,0.732
	c0,0.223,0.118,0.379,0.354,0.379c0.523,0,1.229-0.614,1.557-0.968c0.157-0.17,0.693-0.851,0.693-1.086
	c0-0.052-0.039-0.104-0.091-0.104c-0.091,0-0.183,0.17-0.223,0.235c-0.157,0.249-0.771,1.073-1.099,1.073
	c-0.104,0-0.131-0.092-0.131-0.196c0-0.118,0.079-0.327,0.105-0.432l1.347-4.422c0.013-0.052,0.065-0.196,0.065-0.262
	c0-0.183-0.366-0.117-0.445-0.117c-0.432,0-0.405,0.065-0.536,0.471L161.971,4.587z"/>
<path fill-rule="evenodd" clip-rule="evenodd" d="M170.448,5.817c0.104-0.275,0.249-0.654,0.249-0.955
	c0-0.472-0.366-0.732-0.811-0.732c-1.688,0-3.218,2.302-3.938,3.61l-0.026-0.026l0.562-1.792c0.105-0.354,0.222-0.772,0.222-1.151
	c0-0.38-0.13-0.641-0.536-0.641c-0.549,0-1.229,0.653-1.557,1.046c-0.104,0.104-0.562,0.707-0.562,0.851
	c0,0.065,0.052,0.092,0.104,0.092c0.079,0,0.118-0.079,0.144-0.145c0.157-0.274,0.876-1.15,1.217-1.15
	c0.196,0,0.261,0.144,0.261,0.313c0,0.223-0.091,0.511-0.157,0.72l-1.165,3.807c-0.026,0.065-0.078,0.235-0.078,0.301
	c0,0.223,0.274,0.157,0.406,0.157c0.418,0,0.418-0.065,0.536-0.445c0.314-1.021,1.321-2.76,2.014-3.584
	c0.406-0.471,1.23-1.439,1.923-1.439c0.301,0,0.458,0.171,0.458,0.458c0,0.235-0.105,0.484-0.184,0.707l-0.929,2.472
	c-0.157,0.406-0.353,0.955-0.353,1.4c0,0.379,0.17,0.588,0.562,0.588c0.536,0,1.321-0.759,1.661-1.138
	c0.105-0.104,0.589-0.706,0.589-0.876c0-0.053-0.052-0.092-0.092-0.092c-0.078,0-0.131,0.078-0.157,0.131
	c-0.222,0.327-0.955,1.242-1.374,1.242c-0.157,0-0.249-0.091-0.249-0.262c0-0.183,0.131-0.497,0.196-0.667L170.448,5.817z"/>
<path fill-rule="evenodd" clip-rule="evenodd" d="M175.418,2.429c0-0.248-0.17-0.458-0.432-0.458c-0.379,0-0.667,0.497-0.667,0.838
	c0,0.248,0.131,0.483,0.405,0.483C175.13,3.292,175.418,2.795,175.418,2.429z M172.671,8.604c-0.091,0.313-0.235,0.811-0.235,1.151
	c0,0.301,0.065,0.522,0.406,0.522c0.549,0,1.282-0.759,1.596-1.15c0.131-0.171,0.549-0.707,0.549-0.93
	c0-0.052-0.013-0.091-0.078-0.091c-0.092,0-0.144,0.091-0.184,0.17c-0.157,0.262-0.824,1.19-1.151,1.19
	c-0.118,0-0.17-0.104-0.17-0.235c0-0.17,0.065-0.354,0.118-0.523l0.968-3.14c0.079-0.235,0.223-0.706,0.223-0.955
	c0-0.287-0.092-0.483-0.406-0.483c-0.497,0-1.216,0.641-1.543,0.955c-0.104,0.104-0.641,0.68-0.641,0.85
	c0,0.065,0.026,0.104,0.079,0.104c0.17,0,0.903-1.15,1.347-1.15c0.131,0,0.157,0.13,0.157,0.235c0,0.117-0.079,0.34-0.105,0.444
	L172.671,8.604z"/>
<rect x="100.649" y="89.196" fill-rule="evenodd" clip-rule="evenodd" fill="#B4162C" width="36.979" height="36.979"/>
<path fill-rule="evenodd" clip-rule="evenodd" d="M112.917,87.998l-12.269-0.001v-7.118h0.229v6.777h12.04V87.998z M115.587,87.998
	h-1.878v-0.342h1.878V87.998z M119.678,87.998h-3.299v-0.342h3.299V87.998z M122.822,87.998h-2.352v-0.342h2.352V87.998z
	 M124.124,87.998h-0.511v-0.342h0.511V87.998z M137.637,87.999l-12.721-0.001v-0.342h12.301v-6.404h0.42V87.999z M137.217,80.501
	l0-8.127h0.421v8.127H137.217z M126.111,71.671h10.943v0.326L126.111,71.671z M118.29,72.736c0.12-0.161,0.458-0.396,0.855-0.396
	c0.498,0,0.902,0.367,0.902,0.497l0.002,2.313h-0.42l-0.002-2.177c0-0.115-0.293-0.44-0.736-0.44
	C118.652,72.534,118.437,72.63,118.29,72.736z M118.004,67.888l1.122-0.824l0.805,0.54c0.232,0.183,0.394,0.436,0.394,0.753v1.256
	h-0.345v-1.26c0-0.271-0.138-0.488-0.337-0.645l-0.688-0.462L118.004,67.888z M119.864,60.887l0.001-1.387l-1.827-0.333h2.17l0,1.72
	H119.864z M119.014,57.617v-6.583h0.229v6.583H119.014z M117.878,61.283h2.401l1.815,1.459h-0.48l-1.583-1.291L117.878,61.283z
	 M115.702,63.144h6.471l1.246,5.052l-0.344-0.005l-1.218-4.826L115.702,63.144z M100.63,79.521v-7.319h0.229v7.319H100.63z
	 M124.728,87.246h-0.414v-5.994h0.414V87.246z M113.978,80.525h10.149v0.344L113.978,80.525z M135.653,68.621l-1.114-3.149
	l-10.627-0.261h10.893l1.233,3.41H135.653z M116.801,67.585l2.328-1.499l2.401,1.499v2.401h-0.42v-2.319l-1.981-1.432
	L116.801,67.585z M118.955,64.067c0-0.096,0.077-0.173,0.172-0.173s0.173,0.077,0.173,0.173c0,0.096-0.078,0.173-0.173,0.173
	S118.955,64.163,118.955,64.067z M118.679,65.644l0.056-0.272l0.582,0.001l-0.19-0.812l0.462,1.083H118.679z M116.653,65.389
	c0-0.083,0.067-0.15,0.15-0.15c0.083,0,0.151,0.067,0.151,0.15c0,0.084-0.067,0.151-0.151,0.151
	C116.721,65.54,116.653,65.473,116.653,65.389z M116.5,66.628l0.019-0.224l0.458,0.001l-0.125-0.628l0.363,0.851H116.5z
	 M103.491,75.161l-0.346,0.001l0-1.819l-0.617-0.118h0.962V75.161z M113.101,79.521l0-7.146h0.41v7.146H113.101z M101.984,71.671
	h10.929v0.279L101.984,71.671z M113.105,87.246l0-5.994h0.405v5.994H113.105z M101.984,80.523h10.929v0.276L101.984,80.523z
	 M102.374,68.817l1.09-3.579h11.083v0.258h-10.915L102.374,68.817z M136.594,80.926l-11.535-0.403h11.526L136.594,80.926z
	 M106.365,75.161l-0.346,0.001l0-1.819l-0.617-0.118h0.962V75.161z M109.162,75.161l-0.346,0.001l0-1.819l-0.617-0.118h0.962V75.161
	z M111.972,75.161l-0.345,0.001v-1.819l-0.616-0.118h0.961V75.161z M116.007,75.161l-0.346,0.001l0-1.819l-0.617-0.118h0.962V75.161
	z M123.193,75.161l-0.346,0.001l0-1.819l-0.617-0.118h0.962V75.161z M126.891,75.161l-0.346,0.001l0-1.819l-0.617-0.118h0.962
	V75.161z M129.764,75.161l-0.346,0.001l0-1.819l-0.617-0.118h0.962V75.161z M132.561,75.161l-0.346,0.001l0-1.819l-0.617-0.118
	h0.962V75.161z M135.371,75.161l-0.345,0.001v-1.819l-0.616-0.118h0.961V75.161z M103.491,83.83h-0.346l0-1.819l-0.617-0.118h0.962
	V83.83z M106.365,83.83h-0.346l0-1.819l-0.617-0.118h0.962V83.83z M109.162,83.83h-0.346l0-1.819l-0.617-0.118h0.962V83.83z
	 M111.972,83.83h-0.345v-1.819l-0.616-0.118h0.961V83.83z M126.891,83.83h-0.346l0-1.819l-0.617-0.118h0.962V83.83z M129.764,83.83
	h-0.346l0-1.819l-0.617-0.118h0.962V83.83z M132.561,83.83h-0.346l0-1.819l-0.617-0.118h0.962V83.83z M135.371,83.83h-0.345v-1.819
	l-0.616-0.118h0.961V83.83z M103.491,86.984h-0.346l0-1.329l-0.617-0.118h0.962V86.984z M106.365,86.984h-0.346l0-1.329
	l-0.617-0.118h0.962V86.984z M109.162,86.984h-0.346l0-1.329l-0.617-0.118h0.962V86.984z M111.972,86.984h-0.345v-1.329
	l-0.616-0.118h0.961V86.984z M126.891,86.984h-0.346l0-1.329l-0.617-0.118h0.962V86.984z M129.764,86.984h-0.346l0-1.329
	l-0.617-0.118h0.962V86.984z M132.561,86.984h-0.346l0-1.329l-0.617-0.118h0.962V86.984z M135.371,86.984h-0.345v-1.329
	l-0.616-0.118h0.961V86.984z M114.459,70.824l-0.34,0.006v-1.878l-0.579-0.171h0.919V70.824z M114.459,68.186h-0.846v-0.332h0.475
	l-0.235-1.371L114.459,68.186z M124.706,70.824l-0.34,0.006v-1.878l-0.579-0.171h0.919V70.824z M124.706,68.186h-0.846v-0.332h0.475
	l-0.235-1.371L124.706,68.186z M137.637,71.129H137.3v-2.21l-0.865-0.338h1.202V71.129z M137.637,68.17h-1.138v-0.322h0.744
	l-0.301-2.088L137.637,68.17z M101.703,71.129h-0.336v-2.21l-0.865-0.338h1.202V71.129z M101.703,68.17h-1.138v-0.322h0.744
	l-0.301-2.088L101.703,68.17z M121.218,65.389c0-0.083,0.068-0.15,0.151-0.15s0.151,0.067,0.151,0.15
	c0,0.084-0.068,0.151-0.151,0.151S121.218,65.473,121.218,65.389z M121.051,66.628l0.019-0.224l0.458,0.001l-0.124-0.628
	l0.363,0.851H121.051z M120.293,87.246h-0.45l-0.002-4.342c0.004-0.638-0.438-1.08-0.983-1.08c-0.247,0-0.472,0.091-0.645,0.239
	c0.212-0.278,0.546-0.458,0.923-0.458c0.64,0,1.158,0.519,1.158,1.158L120.293,87.246z M123.386,87.246h-0.358l-0.002-4.114
	c0.003-0.492-0.305-0.834-0.684-0.834c-0.193,0-0.367,0.088-0.492,0.23c0.154-0.24,0.406-0.397,0.691-0.397
	c0.468,0,0.846,0.421,0.846,0.94L123.386,87.246z M116.175,87.246h-0.358l-0.001-4.114c0.003-0.492-0.305-0.834-0.684-0.834
	c-0.193,0-0.367,0.088-0.492,0.23c0.153-0.24,0.406-0.397,0.691-0.397c0.467,0,0.846,0.421,0.846,0.94L116.175,87.246z
	 M123.202,79.521h-0.331l-0.001-2.105c0.001-0.212-0.146-0.359-0.327-0.359c-0.095,0-0.18,0.04-0.24,0.104
	c0.083-0.146,0.239-0.245,0.418-0.245c0.266,0,0.48,0.216,0.48,0.48L123.202,79.521z M119.698,79.521l-0.002-2.082
	c0.003-0.491-0.337-0.832-0.757-0.832c-0.29,0-0.541,0.162-0.67,0.399c0.135-0.355,0.479-0.607,0.881-0.607
	c0.52,0,0.942,0.422,0.942,0.941l-0.001,2.181H119.698z M116.039,79.521h-0.331l-0.001-2.105c0.001-0.212-0.146-0.359-0.327-0.359
	c-0.094,0-0.18,0.04-0.24,0.104c0.083-0.146,0.239-0.245,0.418-0.245c0.266,0,0.48,0.216,0.48,0.48L116.039,79.521z M126.902,79.521
	h-0.331l-0.001-2.105c0.001-0.212-0.146-0.359-0.327-0.359c-0.094,0-0.18,0.04-0.24,0.104c0.083-0.146,0.239-0.245,0.418-0.245
	c0.266,0,0.48,0.216,0.48,0.48L126.902,79.521z M129.74,79.521h-0.331l0-2.105c0.001-0.212-0.146-0.359-0.327-0.359
	c-0.095,0-0.18,0.04-0.24,0.104c0.083-0.146,0.239-0.245,0.419-0.245c0.265,0,0.48,0.216,0.48,0.48L129.74,79.521z M132.553,79.521
	h-0.33l-0.001-2.105c0.001-0.212-0.146-0.359-0.327-0.359c-0.095,0-0.18,0.04-0.24,0.104c0.083-0.146,0.239-0.245,0.418-0.245
	c0.266,0,0.48,0.216,0.48,0.48L132.553,79.521z M135.341,79.521h-0.331l-0.001-2.105c0.001-0.212-0.146-0.359-0.327-0.359
	c-0.094,0-0.18,0.04-0.24,0.104c0.083-0.146,0.239-0.245,0.418-0.245c0.266,0,0.48,0.216,0.48,0.48L135.341,79.521z M111.949,79.521
	h-0.331l0-2.105c0.001-0.212-0.146-0.359-0.327-0.359c-0.095,0-0.18,0.04-0.24,0.104c0.083-0.146,0.239-0.245,0.419-0.245
	c0.265,0,0.48,0.216,0.48,0.48L111.949,79.521z M109.161,79.521h-0.331l-0.001-2.105c0.001-0.212-0.146-0.359-0.327-0.359
	c-0.095,0-0.18,0.04-0.24,0.104c0.083-0.146,0.239-0.245,0.418-0.245c0.266,0,0.48,0.216,0.48,0.48L109.161,79.521z M106.348,79.521
	h-0.331l0-2.105c0.001-0.212-0.146-0.359-0.327-0.359c-0.095,0-0.18,0.04-0.24,0.104c0.082-0.146,0.239-0.245,0.418-0.245
	c0.265,0,0.48,0.216,0.48,0.48L106.348,79.521z M103.509,79.521h-0.331l0-2.105c0.001-0.212-0.146-0.359-0.327-0.359
	c-0.095,0-0.18,0.04-0.24,0.104c0.083-0.146,0.239-0.245,0.419-0.245c0.265,0,0.48,0.216,0.48,0.48L103.509,79.521z M111.269,67.774
	c0-0.081,0.066-0.147,0.147-0.147c0.081,0,0.147,0.066,0.147,0.147s-0.066,0.147-0.147,0.147
	C111.335,67.921,111.269,67.855,111.269,67.774z M111.833,70.021h-0.305v-1.427c0-0.224-0.154-0.379-0.345-0.379
	c-0.061,0-0.118,0.016-0.168,0.043c0.087-0.086,0.207-0.14,0.338-0.14c0.266,0,0.479,0.216,0.479,0.48V70.021z M108.853,67.774
	c0-0.081,0.066-0.147,0.147-0.147c0.082,0,0.147,0.066,0.147,0.147s-0.066,0.147-0.147,0.147
	C108.919,67.921,108.853,67.855,108.853,67.774z M109.416,70.021h-0.304v-1.427c0-0.224-0.154-0.379-0.346-0.379
	c-0.061,0-0.118,0.016-0.168,0.043c0.087-0.086,0.207-0.14,0.339-0.14c0.265,0,0.479,0.216,0.479,0.48V70.021z M106.229,67.774
	c0-0.081,0.066-0.147,0.147-0.147c0.082,0,0.147,0.066,0.147,0.147s-0.066,0.147-0.147,0.147
	C106.295,67.921,106.229,67.855,106.229,67.774z M106.793,70.021h-0.305v-1.427c0-0.224-0.154-0.379-0.346-0.379
	c-0.061,0-0.118,0.016-0.168,0.043c0.087-0.086,0.207-0.14,0.339-0.14c0.265,0,0.479,0.216,0.479,0.48V70.021z M107.893,66.991
	h-0.266v-0.675c0-0.196-0.135-0.331-0.302-0.331c-0.053,0-0.103,0.014-0.146,0.037c0.076-0.075,0.18-0.122,0.296-0.122
	c0.232,0,0.419,0.188,0.419,0.421V66.991z M110.69,66.991h-0.266v-0.675c0-0.196-0.135-0.331-0.302-0.331
	c-0.053,0-0.104,0.014-0.147,0.037c0.076-0.075,0.181-0.122,0.296-0.122c0.232,0,0.419,0.188,0.419,0.421V66.991z M127.988,66.991
	h-0.266v-0.675c0-0.196-0.135-0.331-0.302-0.331c-0.053,0-0.104,0.014-0.147,0.037c0.076-0.075,0.181-0.122,0.296-0.122
	c0.232,0,0.419,0.188,0.419,0.421V66.991z M126.561,67.774c0-0.081,0.065-0.147,0.147-0.147s0.147,0.066,0.147,0.147
	s-0.066,0.147-0.147,0.147S126.561,67.855,126.561,67.774z M127.124,70.021h-0.304v-1.427c0-0.224-0.154-0.379-0.346-0.379
	c-0.061,0-0.118,0.016-0.168,0.043c0.087-0.086,0.207-0.14,0.338-0.14c0.266,0,0.479,0.216,0.479,0.48V70.021z M130.832,66.991
	h-0.266v-0.675c0-0.196-0.135-0.331-0.302-0.331c-0.053,0-0.103,0.014-0.146,0.037c0.076-0.075,0.18-0.122,0.296-0.122
	c0.232,0,0.419,0.188,0.419,0.421V66.991z M129.214,67.774c0-0.081,0.066-0.147,0.147-0.147c0.081,0,0.147,0.066,0.147,0.147
	s-0.066,0.147-0.147,0.147C129.28,67.921,129.214,67.855,129.214,67.774z M129.778,70.021h-0.305v-1.427
	c0-0.224-0.154-0.379-0.345-0.379c-0.061,0-0.118,0.016-0.168,0.043c0.087-0.086,0.207-0.14,0.338-0.14
	c0.265,0,0.479,0.216,0.479,0.48V70.021z M131.633,67.774c0-0.081,0.066-0.147,0.147-0.147c0.082,0,0.147,0.066,0.147,0.147
	s-0.066,0.147-0.147,0.147C131.699,67.921,131.633,67.855,131.633,67.774z M132.197,70.021h-0.305v-1.427
	c0-0.224-0.154-0.379-0.346-0.379c-0.061,0-0.118,0.016-0.167,0.043c0.086-0.086,0.206-0.14,0.338-0.14
	c0.265,0,0.479,0.216,0.479,0.48V70.021z M102.97,59.505c0-0.088,0.072-0.16,0.16-0.16s0.16,0.072,0.16,0.16
	c0,0.089-0.072,0.161-0.16,0.161S102.97,59.594,102.97,59.505z M103.926,64.734h-0.342l-0.002-1.795
	c0.003-0.472-0.324-0.8-0.728-0.8c-0.129,0-0.25,0.034-0.355,0.093c0.15-0.122,0.342-0.195,0.551-0.195
	c0.485,0,0.876,0.394,0.876,0.879V64.734z M103.764,61.635h-1.066l0.002-0.348l0.671,0.007l-0.213-1.362L103.764,61.635z
	 M134.539,59.505c0-0.088,0.072-0.16,0.16-0.16c0.089,0,0.161,0.072,0.161,0.16c0,0.089-0.072,0.161-0.161,0.161
	C134.611,59.666,134.539,59.594,134.539,59.505z M135.496,64.734h-0.342l-0.002-1.795c0.003-0.472-0.324-0.8-0.728-0.8
	c-0.129,0-0.25,0.034-0.355,0.093c0.151-0.122,0.343-0.195,0.551-0.195c0.485,0,0.876,0.394,0.876,0.879V64.734z M135.333,61.635
	h-1.066l0.003-0.348l0.671,0.007l-0.213-1.362L135.333,61.635z M119.128,58.013c0.442,0,0.804,0.348,0.825,0.785h-0.284
	c-0.06-0.324-0.345-0.57-0.687-0.57c-0.327,0-0.602,0.226-0.678,0.529C118.348,58.339,118.7,58.013,119.128,58.013z M121.658,71.425
	h2.469v0.334l-2.618-0.068c-0.277-0.697-1.31-1.211-2.532-1.211c-1.145,0-2.117,0.454-2.463,1.086
	c0.33-0.693,1.372-1.199,2.607-1.199C120.27,70.366,121.253,70.805,121.658,71.425z M124.728,72.063v7.479h-0.399l-0.012-7.479
	H124.728z"/>
</svg>
