<?xml version="1.0" encoding="utf-8"?>
<!-- Generator: Adobe Illustrator 17.1.0, SVG Export Plug-In . SVG Version: 6.00 Build 0)  -->
<!DOCTYPE svg PUBLIC "-//W3C//DTD SVG 1.1//EN" "http://www.w3.org/Graphics/SVG/1.1/DTD/svg11.dtd">
<svg version="1.1" id="Layer_1" xmlns="http://www.w3.org/2000/svg" xmlns:xlink="http://www.w3.org/1999/xlink" x="0px" y="0px"
	 viewBox="0 0 153.03 127.178" enable-background="new 0 0 153.03 127.178" xml:space="preserve">
<path fill-rule="evenodd" clip-rule="evenodd" d="M2.196,21.842c0,0.824,0.065,1.086-0.85,1.086c-0.118,0-0.327-0.014-0.327,0.156
	c0,0.145,0.104,0.17,0.222,0.17c0.497,0,0.994-0.052,1.491-0.052s0.968,0.052,1.465,0.052c0.118,0,0.222-0.025,0.222-0.17
	c0-0.17-0.222-0.156-0.34-0.156c-0.903-0.014-0.85-0.249-0.85-1.086v-2.434c0-0.444,0.131-0.444,0.654-0.444
	c0.392,0,1.073,0,1.583,0.117c0.288,0.065,0.393,0.458,0.458,0.838c0.013,0.078,0.052,0.223,0.17,0.223
	c0.066,0,0.144-0.026,0.144-0.236c-0.013-0.418-0.039-0.811-0.065-1.229c0.026-0.366,0.052-0.759,0.065-1.125
	c0-0.104-0.078-0.131-0.144-0.131c-0.118,0-0.157,0.145-0.17,0.223c-0.065,0.379-0.131,0.863-0.458,0.902
	c-0.51,0.065-1.19,0.053-1.583,0.053c-0.536,0-0.654,0-0.654-0.615v-1.857c0-0.17-0.026-0.536,0.17-0.628
	c0.209-0.092,0.89-0.092,1.112-0.092c1.164,0,1.949,0.014,2.302,1.256c0.026,0.092,0.079,0.275,0.209,0.275
	c0.196,0,0.131-0.406,0.131-0.511v-0.915c0-0.196,0.052-0.458-0.209-0.458c-1.504,0-2.996,0.052-4.487,0.052
	c-0.419,0-0.811-0.052-1.23-0.052c-0.118,0-0.222,0.039-0.222,0.17c0,0.17,0.209,0.183,0.34,0.183c0.903,0,0.85,0.235,0.85,1.047
	V21.842z"/>
<path fill-rule="evenodd" clip-rule="evenodd" d="M11.14,20.154c0.039-0.013,0.104-0.053,0.144-0.053
	c0.131,0,0.092,0.314,0.092,0.366v0.785c0,0.432-0.013,0.654-0.327,0.981c-0.314,0.313-0.759,0.523-1.217,0.523
	c-0.484,0-0.903-0.262-0.903-0.772c0-0.628,0.51-0.968,1.021-1.229L11.14,20.154z M9.884,20.494
	c-0.732,0.34-1.936,0.902-1.936,1.831c0,0.654,0.615,1.034,1.23,1.034c1.138,0,1.988-0.994,2.106-0.994
	c0.183,0,0.249,0.915,0.89,0.915c0.34,0,0.667-0.196,0.929-0.379c0.092-0.079,0.314-0.262,0.314-0.405
	c0-0.053-0.039-0.105-0.092-0.105c-0.118,0-0.261,0.327-0.589,0.327c-0.471,0-0.458-0.759-0.458-1.046v-3.088
	c0-0.353,0.052-0.68-0.262-0.954c-0.301-0.262-0.785-0.341-1.19-0.341c-0.837,0-1.727,0.354-2.342,0.903
	c-0.249,0.209-0.549,0.588-0.549,0.929c0,0.131,0.065,0.156,0.17,0.156c0.157,0,0.432-0.104,0.562-0.17
	c0.209-0.092,0.275-0.274,0.366-0.471c0.301-0.667,0.706-1.099,1.504-1.099c0.811,0,0.837,0.536,0.837,1.177v0.576
	c0,0.497-0.013,0.51-0.484,0.732L9.884,20.494z"/>
<path fill-rule="evenodd" clip-rule="evenodd" d="M15.889,21.122c0-0.497,0.013-0.458,0.406-0.759
	c0.066-0.052,0.196-0.183,0.301-0.183c0.131,0,0.314,0.274,0.38,0.366l1.217,1.596c0.091,0.117,0.314,0.393,0.314,0.55
	c0,0.274-0.314,0.248-0.51,0.248c-0.105,0-0.222,0.078-0.222,0.209c0,0.118,0.118,0.104,0.209,0.104
	c0.406,0,0.824-0.052,1.217-0.052c0.419,0,0.863,0.052,1.282,0.052c0.091,0,0.209,0.014,0.209-0.117
	c0-0.144-0.157-0.196-0.275-0.196c-0.484,0-0.667-0.314-0.955-0.667l-1.975-2.512c-0.052-0.053-0.092-0.092-0.092-0.17
	c0-0.118,0.249-0.288,0.327-0.354l0.994-0.785c0.51-0.392,0.837-0.706,1.504-0.732c0.118,0,0.262-0.013,0.262-0.156
	c0-0.131-0.118-0.105-0.223-0.105h-2.302c-0.104,0-0.288-0.025-0.288,0.118c0,0.223,0.353,0.17,0.497,0.183
	c0.144,0,0.418,0,0.418,0.21c0,0.196-0.392,0.497-0.536,0.614l-1.936,1.531c-0.026,0.026-0.105,0.091-0.144,0.091
	c-0.079,0-0.079-0.209-0.079-0.274v-5.69c0-0.104,0.013-0.209-0.118-0.209c-0.092,0-0.209,0.092-0.275,0.144
	c-0.314,0.21-0.811,0.34-1.177,0.405c-0.079,0.014-0.183,0.053-0.183,0.145c0,0.17,0.222,0.131,0.34,0.131
	c0.628,0,0.51,0.575,0.51,1.06v5.952c0,0.562,0.118,1.007-0.589,1.072c-0.144,0.013-0.366-0.013-0.366,0.184
	c0,0.104,0.092,0.13,0.183,0.13c0.406,0,0.824-0.052,1.243-0.052c0.393,0,0.811,0.052,1.23,0.052c0.092,0,0.157-0.039,0.157-0.144
	c0-0.17-0.235-0.157-0.366-0.17c-0.706-0.065-0.589-0.51-0.589-1.072V21.122z"/>
<path fill-rule="evenodd" clip-rule="evenodd" d="M26.874,17.786c0-0.144,0.065-0.327-0.144-0.327h-1.517
	c-0.104,0-0.183-0.025-0.183,0.092c0,0.17,0.249,0.17,0.366,0.17c0.706,0,0.575,0.497,0.575,1.047v2.499
	c0,0.366,0.052,0.667-0.222,0.968c-0.366,0.405-0.837,0.588-1.4,0.588c-0.484,0-1.047-0.17-1.308-0.602
	c-0.235-0.379-0.235-1.033-0.235-1.465v-2.825c0-0.196,0.065-0.472-0.209-0.472h-1.465c-0.105,0-0.17-0.025-0.17,0.079
	c0,0.183,0.236,0.183,0.353,0.183c0.719,0,0.589,0.497,0.589,1.047v1.988c0,0.641-0.026,1.308,0.393,1.845
	c0.379,0.497,0.903,0.759,1.543,0.759c1.19,0,1.805-0.916,2.001-0.916c0.17,0,0.105,0.471,0.105,0.536v0.314
	c0,0.065,0,0.104,0.065,0.104c0.039,0,0.118-0.065,0.144-0.078c0.379-0.288,0.85-0.433,1.308-0.562
	c0.079-0.026,0.275-0.053,0.275-0.171c0-0.091-0.092-0.104-0.17-0.104l-0.17,0.014c-0.628,0.052-0.523-0.354-0.523-0.863V17.786z"/>
<path fill-rule="evenodd" clip-rule="evenodd" d="M30.286,14.241c0-0.104,0.013-0.209-0.118-0.209c-0.092,0-0.209,0.092-0.275,0.144
	c-0.314,0.21-0.811,0.34-1.177,0.405c-0.079,0.014-0.183,0.053-0.183,0.145c0,0.17,0.222,0.131,0.34,0.131
	c0.628,0,0.51,0.575,0.51,1.06v5.952c0,0.562,0.118,1.007-0.589,1.072c-0.144,0.013-0.366-0.013-0.366,0.184
	c0,0.104,0.092,0.13,0.183,0.13c0.406,0,0.824-0.052,1.243-0.052c0.393,0,0.811,0.052,1.23,0.052c0.091,0,0.157-0.039,0.157-0.144
	c0-0.17-0.236-0.157-0.366-0.17c-0.706-0.065-0.589-0.51-0.589-1.072V14.241z"/>
<path fill-rule="evenodd" clip-rule="evenodd" d="M33.344,18.022c0-0.366,0.183-0.287,0.484-0.287h0.733
	c0.301,0,0.405,0.065,0.405-0.21c0-0.104,0-0.183-0.117-0.183h-1.295c-0.183,0-0.209-0.092-0.209-0.262v-0.929
	c0-0.078-0.013-0.157-0.105-0.157c-0.065,0-0.105,0.065-0.131,0.118c-0.301,0.628-0.68,0.955-1.243,1.321
	c-0.065,0.052-0.157,0.104-0.157,0.196c0,0.156,0.34,0.104,0.406,0.104c0.249,0,0.327-0.04,0.327,0.235v3.361
	c0,0.523-0.052,1.19,0.288,1.622c0.222,0.275,0.589,0.406,0.942,0.406c0.458,0,0.89-0.196,1.217-0.497
	c0.092-0.065,0.262-0.236,0.262-0.366c0-0.04-0.039-0.092-0.092-0.092c-0.105,0-0.458,0.458-0.942,0.458
	c-0.785,0-0.772-0.969-0.772-1.531V18.022z"/>
<path fill-rule="evenodd" clip-rule="evenodd" d="M37.175,19.33c-0.144,0-0.445,0.039-0.445-0.17s0.222-0.615,0.327-0.759
	c0.406-0.55,1.033-0.877,1.701-0.877c0.418,0,0.85,0.105,1.138,0.406c0.183,0.196,0.34,0.497,0.34,0.771
	c0,0.313-0.196,0.458-0.484,0.523c-0.379,0.092-1.112,0.104-1.518,0.104H37.175z M41.125,19.644c0.131,0,0.157-0.117,0.157-0.222
	c0-0.432-0.196-0.994-0.458-1.321c-0.458-0.562-1.177-0.812-1.884-0.812c-0.889,0-1.7,0.301-2.354,0.877
	c-0.693,0.602-0.942,1.295-0.942,2.185c0,1.635,1.269,3.009,2.982,3.009c0.811,0,1.452-0.21,2.067-0.733
	c0.092-0.078,0.51-0.431,0.51-0.588c0-0.053-0.039-0.104-0.104-0.104c-0.17,0-0.654,0.85-1.936,0.85
	c-1.583,0-2.538-1.269-2.538-2.733c0-0.432,0.131-0.406,0.536-0.406H41.125z"/>
<path fill-rule="evenodd" clip-rule="evenodd" d="M43.546,18.022c0-0.366,0.183-0.287,0.484-0.287h0.733
	c0.301,0,0.405,0.065,0.405-0.21c0-0.104,0-0.183-0.117-0.183h-1.295c-0.183,0-0.209-0.092-0.209-0.262v-0.929
	c0-0.078-0.013-0.157-0.104-0.157c-0.065,0-0.105,0.065-0.131,0.118c-0.301,0.628-0.68,0.955-1.243,1.321
	c-0.065,0.052-0.157,0.104-0.157,0.196c0,0.156,0.34,0.104,0.406,0.104c0.249,0,0.327-0.04,0.327,0.235v3.361
	c0,0.523-0.052,1.19,0.288,1.622c0.222,0.275,0.589,0.406,0.942,0.406c0.458,0,0.89-0.196,1.217-0.497
	c0.092-0.065,0.262-0.236,0.262-0.366c0-0.04-0.039-0.092-0.092-0.092c-0.104,0-0.458,0.458-0.942,0.458
	c-0.785,0-0.772-0.969-0.772-1.531V18.022z"/>
<path fill-rule="evenodd" clip-rule="evenodd" d="M49.064,20.154c0.039-0.013,0.104-0.053,0.144-0.053
	c0.131,0,0.092,0.314,0.092,0.366v0.785c0,0.432-0.013,0.654-0.327,0.981c-0.314,0.313-0.759,0.523-1.217,0.523
	c-0.484,0-0.903-0.262-0.903-0.772c0-0.628,0.51-0.968,1.021-1.229L49.064,20.154z M47.808,20.494
	c-0.732,0.34-1.936,0.902-1.936,1.831c0,0.654,0.615,1.034,1.23,1.034c1.138,0,1.988-0.994,2.106-0.994
	c0.183,0,0.249,0.915,0.889,0.915c0.34,0,0.667-0.196,0.929-0.379c0.092-0.079,0.314-0.262,0.314-0.405
	c0-0.053-0.039-0.105-0.092-0.105c-0.118,0-0.262,0.327-0.589,0.327c-0.471,0-0.458-0.759-0.458-1.046v-3.088
	c0-0.353,0.052-0.68-0.262-0.954c-0.301-0.262-0.785-0.341-1.19-0.341c-0.837,0-1.727,0.354-2.342,0.903
	c-0.249,0.209-0.549,0.588-0.549,0.929c0,0.131,0.065,0.156,0.17,0.156c0.157,0,0.432-0.104,0.562-0.17
	c0.209-0.092,0.275-0.274,0.366-0.471c0.301-0.667,0.707-1.099,1.504-1.099c0.811,0,0.837,0.536,0.837,1.177v0.576
	c0,0.497-0.013,0.51-0.484,0.732L47.808,20.494z"/>
<path fill-rule="evenodd" clip-rule="evenodd" fill="#B4162C" d="M56.481,22.286c-0.353,0-1.217,0.262-1.217,0.693
	c0,0.184,0.105,0.262,0.288,0.262c0.406,0,0.837-0.72,1.243-0.72c0.275,0,0.641,0.21,1.086,0.419
	c0.432,0.209,0.942,0.419,1.452,0.419c0.51,0,1.073-0.171,1.426-0.55c0.249-0.262,0.432-0.667,0.432-1.021
	c0-0.117-0.039-0.536-0.222-0.536c-0.052,0-0.105,0.039-0.105,0.092c0,0.078,0.065,0.209,0.065,0.366
	c0,0.497-0.471,0.759-0.929,0.759c-0.209,0-0.419-0.053-0.628-0.104c-0.536-0.118-1.021-0.223-1.583-0.223
	c-0.327,0-0.654,0.039-0.981,0.144l1.975-1.648l2.041-1.831c0.432-0.379,0.51-0.418,1.007-0.72c0.17-0.104,0.759-0.393,0.759-0.667
	c0-0.144-0.157-0.196-0.288-0.196c-0.379,0-0.772,0.562-1.02,0.812l-0.301,0.026c-0.562,0.052-1.033-0.21-1.478-0.432
	c-0.432-0.21-0.837-0.419-1.282-0.419c-0.929,0-1.622,0.667-1.622,1.596c0,0.092-0.013,0.393,0.157,0.393
	c0.105,0,0.079-0.157,0.079-0.223c-0.026-0.575,0.327-0.85,0.89-0.85c0.314,0,0.602,0.078,0.916,0.156
	c0.432,0.105,0.876,0.196,1.321,0.196c0.393,0,0.772-0.078,1.138-0.196c-1.295,0.877-2.524,1.832-3.61,2.97l-0.575,0.602
	L56.481,22.286z"/>
<path fill-rule="evenodd" clip-rule="evenodd" fill="#B4162C" d="M68.174,18.14c0,0.602-1.073,2.093-1.439,2.551
	c-0.458,0.576-1.622,1.976-2.42,1.976c-0.419,0-0.602-0.432-0.602-0.798c0-0.824,0.693-2.146,1.19-2.773
	c0.55-0.72,1.478-1.636,2.433-1.636C67.782,17.459,68.174,17.655,68.174,18.14z M68.371,17.669
	c-0.275-0.354-0.562-0.458-1.007-0.458c-1.19,0-2.368,0.745-3.166,1.583c-0.745,0.785-1.504,2.105-1.504,3.218
	c0,0.641,0.301,1.348,1.033,1.348c1.543,0,3.296-2.499,4.029-3.702l-0.798,2.59c-0.065,0.223-0.144,0.484-0.144,0.732
	c0,0.223,0.118,0.38,0.354,0.38c0.523,0,1.229-0.615,1.557-0.969c0.157-0.17,0.693-0.85,0.693-1.085
	c0-0.053-0.039-0.105-0.092-0.105c-0.091,0-0.183,0.171-0.222,0.236c-0.157,0.248-0.771,1.072-1.099,1.072
	c-0.105,0-0.131-0.092-0.131-0.196c0-0.117,0.078-0.327,0.104-0.432l1.347-4.422c0.013-0.052,0.065-0.195,0.065-0.261
	c0-0.184-0.366-0.118-0.445-0.118c-0.432,0-0.406,0.065-0.536,0.471L68.371,17.669z"/>
<path fill-rule="evenodd" clip-rule="evenodd" fill="#B4162C" d="M74.832,20.521c0.301-1.229,1.282-3.062,2.734-3.062
	c0.484,0,0.772,0.262,0.772,0.746c0,0.432-0.183,0.876-0.445,1.217C77.291,20.206,75.787,20.442,74.832,20.521z M74.78,20.782
	l0.17-0.026c1.387-0.209,4.304-0.405,4.304-2.303c0-0.823-0.785-1.242-1.517-1.242c-2.028,0-4.003,2.08-4.003,4.095
	c0,1.125,0.706,2.054,1.884,2.054c0.955,0,1.845-0.576,2.473-1.27c0.065-0.078,0.34-0.393,0.34-0.51
	c0-0.065-0.026-0.092-0.092-0.092c-0.066,0-0.105,0.053-0.144,0.104c-0.432,0.615-1.295,1.19-2.054,1.19
	c-0.929,0-1.387-0.641-1.387-1.504v-0.301L74.78,20.782z"/>
<path fill-rule="evenodd" clip-rule="evenodd" fill="#B4162C" d="M79.869,21.697c-0.105,0.341-0.235,0.785-0.235,1.151
	c0,0.301,0.065,0.511,0.405,0.511c0.55,0,1.295-0.759,1.596-1.139c0.131-0.157,0.549-0.693,0.549-0.929
	c0-0.052-0.013-0.092-0.065-0.092c-0.105,0-0.157,0.105-0.196,0.171c-0.157,0.274-0.824,1.19-1.138,1.19
	c-0.131,0-0.183-0.118-0.183-0.223c0-0.184,0.079-0.366,0.131-0.523l2.237-7.3c0.013-0.052,0.079-0.248,0.079-0.313
	s-0.039-0.118-0.105-0.118c-0.039,0-0.091,0.04-0.117,0.053c-0.432,0.327-0.981,0.471-1.504,0.497c-0.131,0-0.393-0.013-0.393,0.17
	c0,0.092,0.065,0.145,0.157,0.145l0.209-0.014c0.222-0.013,0.51,0.026,0.51,0.327c0,0.117-0.092,0.419-0.131,0.536L79.869,21.697z"
	/>
<path fill-rule="evenodd" clip-rule="evenodd" fill="#B4162C" d="M84.001,20.521c0.301-1.229,1.282-3.062,2.734-3.062
	c0.484,0,0.772,0.262,0.772,0.746c0,0.432-0.183,0.876-0.445,1.217C86.46,20.206,84.956,20.442,84.001,20.521z M83.949,20.782
	l0.17-0.026c1.386-0.209,4.304-0.405,4.304-2.303c0-0.823-0.785-1.242-1.518-1.242c-2.028,0-4.003,2.08-4.003,4.095
	c0,1.125,0.707,2.054,1.884,2.054c0.955,0,1.844-0.576,2.472-1.27c0.065-0.078,0.34-0.393,0.34-0.51
	c0-0.065-0.026-0.092-0.092-0.092s-0.104,0.053-0.144,0.104c-0.432,0.615-1.295,1.19-2.054,1.19c-0.929,0-1.387-0.641-1.387-1.504
	v-0.301L83.949,20.782z"/>
<path fill-rule="evenodd" clip-rule="evenodd" fill="#B4162C" d="M90.385,20.638c0.471-0.89,1.871-2.891,2.969-2.891
	c0.354,0,0.576,0.262,0.576,0.602c0,0.628-0.484,1.19-0.968,1.557c-0.628,0.472-1.478,0.732-2.263,0.732H90.385z M90.267,20.874
	c0.405-0.079,0.602,0.34,0.732,0.641c0.379,0.863,0.772,1.845,1.871,1.845c0.693,0,1.334-0.458,1.334-1.178
	c0-0.366-0.196-0.72-0.602-0.72c-0.196,0-0.327,0.171-0.327,0.354c0,0.471,0.562,0.274,0.562,0.72c0,0.301-0.288,0.497-0.562,0.497
	c-0.576,0-0.876-0.759-1.086-1.19c-0.196-0.419-0.406-0.877-0.864-1.047c0.772-0.117,1.609-0.235,2.289-0.641
	c0.641-0.38,1.23-1.008,1.23-1.792c0-0.615-0.471-1.151-1.099-1.151c-1.282,0-2.812,1.962-3.388,3.009l1.727-5.651
	c0.026-0.065,0.105-0.314,0.105-0.393c0-0.052-0.039-0.092-0.092-0.092c-0.039,0-0.104,0.026-0.144,0.04
	c-0.51,0.301-0.916,0.326-1.491,0.326c-0.104,0-0.301-0.013-0.301,0.131c0,0.145,0.131,0.131,0.236,0.131
	c0.236,0.014,0.576,0.04,0.576,0.354c0,0.184-0.118,0.55-0.17,0.732l-2.119,6.96c-0.026,0.078-0.078,0.235-0.078,0.313
	c0,0.183,0.34,0.131,0.432,0.131c0.51,0,0.406-0.118,0.589-0.602L90.267,20.874z"/>
<path fill-rule="evenodd" clip-rule="evenodd" fill="#B4162C" d="M97.592,17.747h1.007c0.079,0,0.261,0.013,0.301-0.078
	c0.039-0.092,0.052-0.118,0.052-0.184c0-0.117-0.262-0.078-0.288-0.078h-0.981l0.34-1.086c0.026-0.078,0.078-0.248,0.078-0.34
	c0-0.17-0.327-0.118-0.419-0.118c-0.157,0-0.379-0.039-0.458,0.144l-0.432,1.4h-0.785c-0.196,0-0.353-0.014-0.353,0.235
	c0,0.131,0.236,0.104,0.301,0.104h0.746l-1.164,3.794c-0.105,0.327-0.249,0.771-0.249,1.125c0,0.301,0.118,0.693,0.484,0.693
	c0.602,0,1.413-0.916,1.74-1.36c0.078-0.105,0.392-0.537,0.392-0.681c0-0.052-0.039-0.104-0.104-0.104
	c-0.065,0-0.105,0.092-0.144,0.157c-0.052,0.091-0.183,0.262-0.236,0.353c-0.183,0.249-0.667,0.877-0.981,0.877
	c-0.157,0-0.209-0.145-0.209-0.275c0-0.17,0.105-0.471,0.157-0.628L97.592,17.747z"/>
<path fill-rule="evenodd" clip-rule="evenodd" fill="#B4162C" d="M99.356,22.666c-0.013,0.052-0.092,0.301-0.092,0.366
	c0,0.196,0.249,0.17,0.366,0.17c0.523,0,0.484-0.104,0.628-0.589c0.249-0.837,1.099-2.446,1.583-3.205
	c0.144-0.235,0.942-1.412,1.295-1.412s-0.013,0.641,0.641,0.641c0.392,0,0.602-0.419,0.602-0.771c0-0.406-0.262-0.654-0.654-0.654
	c-1.125,0-2.407,2.643-2.891,3.506l0.562-1.845c0.092-0.288,0.183-0.575,0.183-0.89c0-0.288-0.091-0.771-0.484-0.771
	c-0.432,0-1.034,0.536-1.308,0.851c-0.131,0.144-0.667,0.771-0.667,0.98c0,0.053,0.039,0.092,0.091,0.092
	c0.079,0,0.157-0.144,0.196-0.196l0.118-0.17c0.157-0.223,0.667-0.877,0.968-0.877c0.144,0,0.17,0.157,0.17,0.275
	c0,0.235-0.092,0.523-0.157,0.759L99.356,22.666z"/>
<path fill-rule="evenodd" clip-rule="evenodd" fill="#B4162C" d="M109.361,19.173c0,1.413-0.942,3.898-2.629,3.898
	c-1.06,0-1.348-0.929-1.348-1.831c0-1.466,0.903-3.768,2.656-3.768C109.06,17.473,109.361,18.283,109.361,19.173z M110.264,19.762
	c0-1.295-0.929-2.551-2.302-2.551c-1.818,0-3.519,1.792-3.519,3.598c0,1.269,0.811,2.551,2.198,2.551c0.916,0,1.923-0.55,2.564-1.19
	C109.832,21.541,110.264,20.638,110.264,19.762z"/>
<path fill-rule="evenodd" clip-rule="evenodd" fill="#B4162C" d="M113.39,17.747h1.007c0.079,0,0.262,0.013,0.301-0.078
	c0.039-0.092,0.052-0.118,0.052-0.184c0-0.117-0.262-0.078-0.288-0.078h-0.981l0.34-1.086c0.026-0.078,0.078-0.248,0.078-0.34
	c0-0.17-0.327-0.118-0.418-0.118c-0.157,0-0.38-0.039-0.458,0.144l-0.432,1.4h-0.785c-0.196,0-0.353-0.014-0.353,0.235
	c0,0.131,0.236,0.104,0.301,0.104h0.746l-1.164,3.794c-0.104,0.327-0.249,0.771-0.249,1.125c0,0.301,0.118,0.693,0.484,0.693
	c0.602,0,1.413-0.916,1.74-1.36c0.078-0.105,0.392-0.537,0.392-0.681c0-0.052-0.039-0.104-0.104-0.104
	c-0.065,0-0.105,0.092-0.144,0.157c-0.052,0.091-0.183,0.262-0.235,0.353c-0.183,0.249-0.667,0.877-0.981,0.877
	c-0.157,0-0.209-0.145-0.209-0.275c0-0.17,0.105-0.471,0.157-0.628L113.39,17.747z"/>
<path fill-rule="evenodd" clip-rule="evenodd" fill="#B4162C" d="M115.69,20.521c0.301-1.229,1.282-3.062,2.734-3.062
	c0.484,0,0.772,0.262,0.772,0.746c0,0.432-0.183,0.876-0.445,1.217C118.15,20.206,116.645,20.442,115.69,20.521z M115.638,20.782
	l0.17-0.026c1.387-0.209,4.304-0.405,4.304-2.303c0-0.823-0.785-1.242-1.517-1.242c-2.028,0-4.003,2.08-4.003,4.095
	c0,1.125,0.706,2.054,1.884,2.054c0.955,0,1.845-0.576,2.473-1.27c0.065-0.078,0.34-0.393,0.34-0.51
	c0-0.065-0.026-0.092-0.092-0.092s-0.105,0.053-0.144,0.104c-0.432,0.615-1.295,1.19-2.054,1.19c-0.929,0-1.387-0.641-1.387-1.504
	v-0.301L115.638,20.782z"/>
<path fill-rule="evenodd" clip-rule="evenodd" fill="#B4162C" d="M120.426,22.718c-0.026,0.104-0.092,0.249-0.092,0.366
	c0,0.157,0.353,0.118,0.432,0.118c0.445,0,0.432-0.118,0.562-0.536c0.484-1.544,1.047-2.473,1.583-3.179
	c0.366-0.484,1.478-1.675,2.08-1.675c0.497,0,0.772,0.471,0.693,1.178c-0.157,1.465-1.047,4.094-1.936,4.094
	c-0.471,0-0.392-0.759-0.824-0.759c-0.249,0-0.419,0.157-0.419,0.38c0,0.497,0.55,0.654,0.903,0.654c1.74,0,3.218-2.957,3.257-4.265
	c0.026-0.968-0.261-1.884-1.269-1.884c-1.282,0-2.852,2.197-3.283,2.97l-0.026-0.026l1.727-5.625
	c0.013-0.039,0.092-0.288,0.092-0.34c0-0.053-0.026-0.105-0.079-0.105c-0.039,0-0.092,0.026-0.118,0.04
	c-0.484,0.301-1.06,0.392-1.622,0.432c-0.105,0.013-0.288,0.025-0.288,0.17c0,0.091,0.065,0.117,0.144,0.117l0.236-0.013
	c0.314-0.014,0.484,0.053,0.484,0.405c0,0.196-0.118,0.562-0.183,0.759L120.426,22.718z"/>
<path fill-rule="evenodd" clip-rule="evenodd" fill="#B4162C" d="M134.355,18.899c0.105-0.274,0.249-0.654,0.249-0.955
	c0-0.471-0.366-0.732-0.811-0.732c-1.688,0-3.218,2.303-3.938,3.61l-0.026-0.026l0.562-1.792c0.105-0.354,0.222-0.771,0.222-1.151
	c0-0.379-0.131-0.641-0.536-0.641c-0.549,0-1.23,0.654-1.557,1.046c-0.105,0.105-0.562,0.707-0.562,0.851
	c0,0.065,0.052,0.092,0.105,0.092c0.078,0,0.118-0.078,0.144-0.144c0.157-0.275,0.876-1.151,1.217-1.151
	c0.196,0,0.261,0.144,0.261,0.313c0,0.223-0.091,0.511-0.157,0.72l-1.164,3.807c-0.026,0.065-0.079,0.235-0.079,0.301
	c0,0.223,0.275,0.157,0.406,0.157c0.418,0,0.418-0.065,0.536-0.444c0.314-1.021,1.321-2.761,2.014-3.585
	c0.406-0.471,1.23-1.438,1.923-1.438c0.301,0,0.458,0.17,0.458,0.458c0,0.235-0.105,0.483-0.183,0.706l-0.929,2.473
	c-0.157,0.405-0.353,0.954-0.353,1.399c0,0.379,0.17,0.589,0.562,0.589c0.536,0,1.321-0.759,1.661-1.139
	c0.105-0.104,0.589-0.706,0.589-0.876c0-0.053-0.052-0.092-0.092-0.092c-0.078,0-0.131,0.078-0.157,0.131
	c-0.222,0.327-0.955,1.242-1.374,1.242c-0.157,0-0.249-0.091-0.249-0.261c0-0.184,0.131-0.497,0.196-0.668L134.355,18.899z"/>
<path fill-rule="evenodd" clip-rule="evenodd" fill="#B4162C" d="M139.326,15.511c0-0.249-0.17-0.458-0.432-0.458
	c-0.379,0-0.667,0.497-0.667,0.837c0,0.249,0.131,0.484,0.406,0.484C139.038,16.374,139.326,15.877,139.326,15.511z M136.578,21.685
	c-0.092,0.314-0.235,0.812-0.235,1.151c0,0.301,0.065,0.523,0.406,0.523c0.55,0,1.282-0.759,1.596-1.151
	c0.131-0.17,0.549-0.707,0.549-0.929c0-0.053-0.013-0.092-0.078-0.092c-0.092,0-0.144,0.092-0.183,0.17
	c-0.157,0.262-0.824,1.19-1.151,1.19c-0.118,0-0.17-0.104-0.17-0.235c0-0.17,0.065-0.354,0.118-0.523l0.968-3.14
	c0.078-0.235,0.222-0.706,0.222-0.955c0-0.287-0.092-0.483-0.406-0.483c-0.497,0-1.217,0.641-1.543,0.955
	c-0.105,0.104-0.641,0.68-0.641,0.85c0,0.065,0.026,0.105,0.079,0.105c0.17,0,0.903-1.151,1.347-1.151
	c0.131,0,0.157,0.131,0.157,0.235c0,0.117-0.079,0.34-0.105,0.444L136.578,21.685z"/>
<path fill-rule="evenodd" clip-rule="evenodd" fill="#B4162C" d="M141.351,20.638c0.471-0.89,1.871-2.891,2.969-2.891
	c0.353,0,0.576,0.262,0.576,0.602c0,0.628-0.484,1.19-0.968,1.557c-0.628,0.472-1.478,0.732-2.263,0.732H141.351z M141.234,20.874
	c0.406-0.079,0.602,0.34,0.733,0.641c0.379,0.863,0.771,1.845,1.87,1.845c0.693,0,1.334-0.458,1.334-1.178
	c0-0.366-0.196-0.72-0.602-0.72c-0.196,0-0.327,0.171-0.327,0.354c0,0.471,0.562,0.274,0.562,0.72c0,0.301-0.288,0.497-0.562,0.497
	c-0.575,0-0.876-0.759-1.085-1.19c-0.196-0.419-0.406-0.877-0.864-1.047c0.772-0.117,1.609-0.235,2.289-0.641
	c0.641-0.38,1.229-1.008,1.229-1.792c0-0.615-0.471-1.151-1.099-1.151c-1.282,0-2.812,1.962-3.388,3.009l1.727-5.651
	c0.026-0.065,0.105-0.314,0.105-0.393c0-0.052-0.039-0.092-0.092-0.092c-0.039,0-0.104,0.026-0.144,0.04
	c-0.51,0.301-0.916,0.326-1.491,0.326c-0.105,0-0.301-0.013-0.301,0.131c0,0.145,0.131,0.131,0.236,0.131
	c0.235,0.014,0.575,0.04,0.575,0.354c0,0.184-0.118,0.55-0.17,0.732l-2.119,6.96c-0.026,0.078-0.079,0.235-0.079,0.313
	c0,0.183,0.34,0.131,0.432,0.131c0.51,0,0.406-0.118,0.589-0.602L141.234,20.874z"/>
<path fill-rule="evenodd" clip-rule="evenodd" fill="#B4162C" d="M151.122,19.173c0,1.413-0.942,3.898-2.629,3.898
	c-1.06,0-1.347-0.929-1.347-1.831c0-1.466,0.903-3.768,2.656-3.768C150.821,17.473,151.122,18.283,151.122,19.173z M152.024,19.762
	c0-1.295-0.929-2.551-2.302-2.551c-1.818,0-3.519,1.792-3.519,3.598c0,1.269,0.811,2.551,2.198,2.551c0.916,0,1.923-0.55,2.564-1.19
	C151.593,21.541,152.024,20.638,152.024,19.762z"/>
<path fill-rule="evenodd" clip-rule="evenodd" d="M27.922,7.505c0,0.653,0.013,1.242-0.471,1.739
	c-0.536,0.536-1.374,0.707-2.119,0.707c-0.719,0-1.714-0.184-2.119-0.851c-0.301-0.484-0.275-1.439-0.275-2.015V3.397
	c0-0.823-0.066-1.072,0.85-1.072c0.118,0,0.34,0,0.34-0.17c0-0.144-0.105-0.184-0.222-0.184c-0.497,0-0.994,0.053-1.491,0.053
	c-0.497,0-0.968-0.053-1.465-0.053c-0.131,0-0.223,0.04-0.223,0.184c0,0.17,0.209,0.17,0.327,0.17c0.916,0,0.85,0.249,0.85,1.072
	v4.108c0,0.863-0.013,1.608,0.772,2.171c0.654,0.458,1.661,0.602,2.433,0.602c0.863,0,1.805-0.131,2.459-0.693
	c0.706-0.614,0.719-1.242,0.719-2.079V3.423c0-0.602-0.065-1.099,0.68-1.099c0.118,0,0.419,0,0.419-0.184
	c0-0.156-0.17-0.17-0.275-0.17c-0.34,0-0.68,0.053-1.021,0.053c-0.392,0-0.785-0.053-1.177-0.053c-0.131,0-0.275,0.04-0.275,0.184
	c0,0.183,0.235,0.17,0.353,0.17c0.301,0,0.628,0.013,0.785,0.301c0.157,0.262,0.144,0.981,0.144,1.295V7.505z"/>
<path fill-rule="evenodd" clip-rule="evenodd" d="M30.25,8.786c0,0.562,0.118,1.008-0.589,1.073
	c-0.144,0.013-0.366-0.014-0.366,0.183c0,0.104,0.092,0.131,0.183,0.131c0.406,0,0.824-0.052,1.243-0.052
	c0.392,0,0.811,0.052,1.23,0.052c0.092,0,0.157-0.039,0.157-0.144c0-0.17-0.236-0.157-0.366-0.17
	c-0.706-0.065-0.589-0.511-0.589-1.073V6.589c0-0.523,0.039-0.812,0.419-1.203c0.34-0.354,0.798-0.562,1.295-0.562
	c0.51,0,0.981,0.209,1.23,0.588c0.235,0.354,0.235,0.877,0.235,1.295v2.08c0,0.562,0.118,1.008-0.589,1.073
	c-0.144,0.013-0.366-0.014-0.366,0.183c0,0.104,0.092,0.131,0.183,0.131c0.405,0,0.824-0.052,1.242-0.052
	c0.393,0,0.811,0.052,1.23,0.052c0.092,0,0.157-0.039,0.157-0.144c0-0.17-0.235-0.157-0.366-0.17
	c-0.707-0.065-0.589-0.511-0.589-1.073V6.72c0-0.628,0.026-1.269-0.393-1.806c-0.366-0.471-0.889-0.706-1.543-0.706
	c-1.19,0-1.923,1.072-2.146,1.072V4.417c0-0.091,0.013-0.209-0.118-0.209c-0.104,0-0.17,0.104-0.236,0.17
	c-0.209,0.249-0.772,0.589-1.086,0.681c-0.118,0.039-0.301,0.065-0.301,0.222c0,0.079,0.079,0.105,0.157,0.105h0.17
	c0.104,0,0.301,0.013,0.379,0.104c0.144,0.144,0.131,0.653,0.131,0.837V8.786z"/>
<path fill-rule="evenodd" clip-rule="evenodd" d="M38.253,3.07c0.38,0,0.576-0.301,0.576-0.654c0-0.314-0.209-0.628-0.549-0.628
	c-0.353,0-0.589,0.313-0.589,0.654C37.69,2.782,37.9,3.07,38.253,3.07z M38.711,4.417c0-0.091,0.013-0.209-0.118-0.209
	c-0.105,0-0.17,0.104-0.235,0.17c-0.209,0.249-0.772,0.589-1.086,0.681c-0.118,0.039-0.301,0.065-0.301,0.222
	c0,0.079,0.078,0.105,0.157,0.105h0.17c0.105,0,0.301,0.013,0.379,0.104c0.144,0.144,0.131,0.653,0.131,0.837v2.459
	c0,0.562,0.118,1.008-0.589,1.073c-0.144,0.013-0.366-0.014-0.366,0.183c0,0.104,0.092,0.131,0.183,0.131
	c0.406,0,0.824-0.052,1.243-0.052c0.393,0,0.811,0.052,1.23,0.052c0.092,0,0.157-0.039,0.157-0.144c0-0.17-0.235-0.157-0.366-0.17
	c-0.706-0.065-0.589-0.511-0.589-1.073V4.417z"/>
<path fill-rule="evenodd" clip-rule="evenodd" d="M43.169,8.931L41.834,5.66c-0.065-0.157-0.209-0.484-0.209-0.654
	c0-0.248,0.249-0.366,0.484-0.366c0.091,0,0.366,0.039,0.366-0.117c0-0.157-0.131-0.145-0.249-0.145h-2.368
	c-0.104,0-0.196-0.013-0.196,0.118c0,0.144,0.144,0.144,0.249,0.144c0.549,0.026,0.615,0.274,0.811,0.759l1.897,4.578l0.079,0.17
	c0.013,0.053,0.052,0.131,0.118,0.131c0.105,0,0.196-0.261,0.222-0.301l1.871-4.055c0.222-0.484,0.458-1.204,1.073-1.282
	c0.105-0.013,0.327-0.013,0.327-0.17c0-0.118-0.066-0.092-0.17-0.092h-1.923c-0.104,0-0.196,0-0.196,0.118
	c0,0.144,0.235,0.144,0.353,0.144c0.236,0,0.51,0.092,0.51,0.354c0,0.156-0.105,0.418-0.17,0.562L43.169,8.931z"/>
<path fill-rule="evenodd" clip-rule="evenodd" d="M47.33,6.249c-0.144,0-0.445,0.039-0.445-0.171c0-0.209,0.222-0.614,0.327-0.758
	c0.406-0.55,1.033-0.877,1.701-0.877c0.418,0,0.85,0.104,1.138,0.405c0.183,0.196,0.34,0.497,0.34,0.772
	c0,0.313-0.196,0.457-0.484,0.522c-0.379,0.092-1.112,0.105-1.518,0.105H47.33z M51.28,6.563c0.131,0,0.157-0.118,0.157-0.223
	c0-0.432-0.196-0.994-0.458-1.321c-0.458-0.562-1.177-0.811-1.884-0.811c-0.889,0-1.7,0.301-2.354,0.877
	c-0.693,0.602-0.942,1.295-0.942,2.184c0,1.636,1.269,3.009,2.982,3.009c0.811,0,1.452-0.209,2.067-0.732
	c0.092-0.078,0.51-0.432,0.51-0.589c0-0.052-0.039-0.104-0.104-0.104c-0.17,0-0.654,0.851-1.936,0.851
	c-1.583,0-2.538-1.269-2.538-2.734c0-0.432,0.131-0.405,0.536-0.405H51.28z"/>
<path fill-rule="evenodd" clip-rule="evenodd" d="M52.746,8.786c0,0.562,0.118,1.008-0.589,1.073
	c-0.144,0.013-0.366-0.014-0.366,0.183c0,0.104,0.092,0.131,0.183,0.131c0.406,0,0.824-0.052,1.243-0.052
	c0.392,0,0.811,0.052,1.23,0.052c0.091,0,0.157-0.039,0.157-0.144c0-0.17-0.236-0.157-0.366-0.17
	c-0.706-0.065-0.589-0.511-0.589-1.073V6.72c0-0.523-0.026-0.863,0.301-1.309c0.144-0.196,0.38-0.471,0.667-0.471
	c0.366,0,0.392,0.497,0.837,0.497c0.314,0,0.549-0.196,0.549-0.523c0-0.392-0.353-0.628-0.746-0.628
	c-0.903,0-1.413,1.047-1.544,1.047c-0.092,0-0.065-0.223-0.065-0.274V4.417c0-0.091,0.013-0.209-0.118-0.209
	c-0.105,0-0.17,0.104-0.236,0.17c-0.209,0.249-0.772,0.589-1.086,0.681c-0.118,0.039-0.301,0.065-0.301,0.222
	c0,0.079,0.078,0.105,0.157,0.105h0.17c0.105,0,0.301,0.013,0.38,0.104c0.144,0.144,0.131,0.653,0.131,0.837V8.786z"/>
<path fill-rule="evenodd" clip-rule="evenodd" d="M61.326,4.849c0.052-0.065,0.209-0.274,0.209-0.379
	c0-0.118-0.157-0.092-0.236-0.092h-3.192c-0.327,0-0.667,0.026-0.667-0.379c0-0.092-0.013-0.21-0.131-0.21
	c-0.131,0-0.209,0.288-0.235,0.366l-0.34,0.994c-0.013,0.04-0.092,0.249-0.092,0.302c0,0.064,0.052,0.104,0.118,0.104
	c0.105,0,0.17-0.131,0.222-0.21c0.144-0.209,0.419-0.432,0.654-0.536c0.314-0.144,0.719-0.104,1.046-0.104h1.308
	c0.065,0,0.222,0,0.222,0.092c0,0.078-0.118,0.235-0.157,0.288L56.577,9.69c-0.026,0.052-0.183,0.222-0.183,0.301
	c0,0.196,0.366,0.131,0.471,0.131h4.448c0.261,0.025,0.196-0.301,0.196-0.458l0.026-0.642c0-0.091,0.065-0.496-0.118-0.496
	c-0.131,0-0.157,0.17-0.183,0.261c-0.131,0.341-0.262,0.654-0.589,0.838c-0.34,0.183-0.916,0.196-1.308,0.196h-1.138
	c-0.052,0-0.458,0.025-0.458-0.105c0-0.091,0.157-0.274,0.209-0.326L61.326,4.849z"/>
<path fill-rule="evenodd" clip-rule="evenodd" d="M65.499,7.073c0.039-0.014,0.104-0.053,0.144-0.053
	c0.131,0,0.092,0.313,0.092,0.366v0.785c0,0.432-0.013,0.654-0.327,0.98c-0.314,0.314-0.759,0.523-1.217,0.523
	c-0.484,0-0.903-0.262-0.903-0.771c0-0.628,0.51-0.968,1.02-1.229L65.499,7.073z M64.243,7.413c-0.732,0.34-1.936,0.902-1.936,1.831
	c0,0.654,0.615,1.033,1.23,1.033c1.138,0,1.988-0.994,2.106-0.994c0.183,0,0.249,0.916,0.889,0.916c0.34,0,0.667-0.196,0.929-0.379
	c0.092-0.079,0.314-0.262,0.314-0.406c0-0.052-0.039-0.104-0.091-0.104c-0.118,0-0.262,0.327-0.589,0.327
	c-0.471,0-0.458-0.759-0.458-1.047V5.503c0-0.354,0.052-0.68-0.261-0.955c-0.301-0.262-0.785-0.34-1.191-0.34
	c-0.837,0-1.727,0.354-2.342,0.902c-0.249,0.21-0.549,0.589-0.549,0.929c0,0.131,0.065,0.157,0.17,0.157
	c0.157,0,0.432-0.104,0.562-0.17c0.209-0.092,0.275-0.274,0.366-0.471c0.301-0.667,0.707-1.099,1.504-1.099
	c0.811,0,0.837,0.536,0.837,1.177v0.575c0,0.497-0.013,0.511-0.484,0.733L64.243,7.413z"/>
<path fill-rule="evenodd" clip-rule="evenodd" d="M75.355,5.542c0.118-0.301,0.249-0.614,0.249-0.941
	c0-0.301-0.157-0.471-0.458-0.471c-0.34,0-0.759,0.274-1.02,0.471c-0.418,0.313-0.641,0.536-0.942,0.955
	c-0.039,0.065-0.17,0.235-0.17,0.313c0,0.053,0.026,0.104,0.078,0.104c0.066,0,0.131-0.078,0.157-0.117
	c0.17-0.262,0.876-1.086,1.204-1.086c0.118,0,0.183,0.078,0.183,0.196c0,0.144-0.144,0.444-0.196,0.575l-0.942,2.329
	c-0.131,0.326-0.366,0.941-0.366,1.281c0,0.812,0.432,1.125,1.19,1.125c2.145,0,4.343-3.388,4.343-5.337
	c0-0.313-0.131-0.941-0.536-0.941c-0.275,0-0.445,0.34-0.445,0.575c0,0.262,0.118,0.444,0.249,0.641
	c0.118,0.184,0.157,0.314,0.157,0.537c0,1.399-1.884,4.094-3.388,4.094c-0.392,0-0.667-0.301-0.667-0.68
	c0-0.314,0.144-0.693,0.261-0.994L75.355,5.542z"/>
<path fill-rule="evenodd" clip-rule="evenodd" d="M87.769,8.721c0.026-0.091,0.078-0.248,0.078-0.353
	c0-0.079-0.052-0.118-0.131-0.118c-0.144,0-0.222,0.235-0.275,0.34c-0.641,1.309-1.583,1.204-2.852,1.204
	c-0.222,0-0.536,0.052-0.536-0.262c0-0.118,0.066-0.327,0.105-0.445l1.779-5.795c0.196-0.628,0.275-1.007,1.151-0.994
	c0.131,0,0.392,0.026,0.392-0.17c0-0.144-0.131-0.157-0.249-0.157c-0.51,0.014-1.033,0.053-1.544,0.053
	c-0.405,0-0.811-0.039-1.217-0.053c-0.105,0-0.406-0.065-0.406,0.104c0,0.196,0.183,0.236,0.327,0.223
	c0.275-0.039,0.641-0.052,0.641,0.34c0,0.171-0.105,0.484-0.157,0.642L83.19,8.786c-0.092,0.288-0.196,0.707-0.445,0.89
	C82.562,9.82,82.275,9.82,82.052,9.82c-0.144,0.013-0.34,0.013-0.34,0.209c0,0.17,0.55,0.092,0.694,0.092h4.461
	c0.458,0,0.471,0,0.602-0.419L87.769,8.721z"/>
<path fill-rule="evenodd" clip-rule="evenodd" d="M91.208,5.556c0.079-0.235,0.222-0.707,0.222-0.942
	c0-0.287-0.092-0.483-0.406-0.483c-0.497,0-1.203,0.641-1.531,0.955c-0.104,0.091-0.654,0.667-0.654,0.837
	c0,0.065,0.026,0.104,0.092,0.104c0.17,0,0.89-1.138,1.347-1.138c0.118,0,0.157,0.13,0.157,0.235c0,0.104-0.092,0.327-0.118,0.432
	l-1.923,6.292c-0.118,0.405-0.262,1.06-0.798,1.06c-0.549,0-0.497-0.812-1.033-0.812c-0.249,0-0.445,0.21-0.445,0.458
	c0,0.497,0.602,0.654,1.007,0.654c0.576,0,1.164-0.288,1.57-0.693c0.523-0.536,0.811-1.348,1.021-2.041L91.208,5.556z M92.137,2.429
	c0-0.248-0.157-0.458-0.418-0.458c-0.379,0-0.667,0.497-0.667,0.824c0,0.262,0.131,0.497,0.406,0.497
	C91.863,3.292,92.137,2.795,92.137,2.429z"/>
<path fill-rule="evenodd" clip-rule="evenodd" d="M97.145,6.785L96.57,8.643c-0.092,0.313-0.235,0.824-0.235,1.151
	c0,0.223,0.079,0.483,0.353,0.483c0.615,0,1.413-0.653,1.792-1.085c0.105-0.118,0.667-0.824,0.667-1.008
	c0-0.052-0.039-0.092-0.092-0.092c-0.065,0-0.118,0.092-0.157,0.145c-0.209,0.353-0.929,1.295-1.374,1.295
	c-0.144,0-0.209-0.144-0.209-0.262c0-0.157,0.065-0.393,0.118-0.55l1.269-4.146c0.026-0.078,0.079-0.223,0.079-0.313
	c0-0.196-0.34-0.131-0.445-0.131c-0.497,0-0.406,0.065-0.549,0.549c-0.406,1.309-1.047,2.473-1.949,3.506
	C95.471,8.616,94.385,9.69,93.77,9.69c-0.235,0-0.353-0.145-0.353-0.367c0-0.183,0.092-0.457,0.144-0.627l1.047-3.127
	c0.091-0.262,0.196-0.589,0.196-0.863S94.712,4.13,94.385,4.13c-0.484,0-1.138,0.562-1.439,0.863
	c-0.131,0.144-0.707,0.85-0.707,1.072c0,0.053,0.013,0.078,0.065,0.078c0.118,0,0.235-0.209,0.288-0.287
	c0.17-0.249,0.759-1.021,1.099-1.021c0.144,0,0.183,0.104,0.183,0.223c0,0.131-0.105,0.393-0.144,0.51l-1.021,2.97
	c-0.104,0.301-0.249,0.745-0.249,1.06c0,0.393,0.144,0.68,0.562,0.68c0.798,0,1.688-0.667,2.25-1.177
	c0.798-0.72,1.177-1.321,1.779-2.185L97.145,6.785z"/>
<path fill-rule="evenodd" clip-rule="evenodd" d="M105.321,5.883c0,1.569-1.622,4.173-3.349,4.173c-0.536,0-0.968-0.262-0.968-0.838
	c0-1.242,2.237-4.486,3.584-4.486C105.191,4.732,105.321,5.411,105.321,5.883z M100.612,7.23c-0.144,0.484-0.34,1.008-0.34,1.53
	c0,1.034,0.746,1.518,1.727,1.518c2.211,0,4.304-2.197,4.304-4.395c0-0.824-0.379-1.753-1.334-1.753
	c-1.269,0-2.852,1.948-3.427,2.982l1.805-5.979c0-0.092-0.039-0.131-0.117-0.131c-0.052,0-0.105,0.026-0.131,0.053
	c-0.458,0.287-0.824,0.327-1.347,0.327c-0.131,0-0.406,0.025-0.406,0.209c0,0.157,0.38,0.131,0.458,0.131
	c0.209,0,0.353,0.052,0.353,0.301c0,0.157-0.105,0.497-0.157,0.654L100.612,7.23z"/>
<path fill-rule="evenodd" clip-rule="evenodd" d="M107.101,8.616c-0.105,0.34-0.235,0.785-0.235,1.151
	c0,0.301,0.065,0.51,0.405,0.51c0.55,0,1.295-0.759,1.596-1.138c0.131-0.157,0.549-0.693,0.549-0.929
	c0-0.053-0.013-0.092-0.065-0.092c-0.105,0-0.157,0.104-0.196,0.17c-0.157,0.275-0.824,1.19-1.138,1.19
	c-0.131,0-0.183-0.117-0.183-0.222c0-0.184,0.079-0.366,0.131-0.523l2.237-7.3c0.013-0.052,0.079-0.248,0.079-0.313
	s-0.039-0.118-0.105-0.118c-0.039,0-0.091,0.039-0.117,0.053c-0.432,0.327-0.981,0.471-1.505,0.497c-0.131,0-0.392-0.014-0.392,0.17
	c0,0.092,0.065,0.144,0.157,0.144l0.209-0.013c0.222-0.014,0.51,0.026,0.51,0.327c0,0.117-0.092,0.418-0.131,0.536L107.101,8.616z"
	/>
<path fill-rule="evenodd" clip-rule="evenodd" d="M112.868,5.556c0.079-0.235,0.222-0.707,0.222-0.942
	c0-0.287-0.091-0.483-0.405-0.483c-0.497,0-1.203,0.641-1.531,0.955c-0.105,0.091-0.654,0.667-0.654,0.837
	c0,0.065,0.026,0.104,0.092,0.104c0.17,0,0.89-1.138,1.347-1.138c0.118,0,0.157,0.13,0.157,0.235c0,0.104-0.092,0.327-0.118,0.432
	l-1.923,6.292c-0.118,0.405-0.262,1.06-0.798,1.06c-0.549,0-0.497-0.812-1.033-0.812c-0.249,0-0.445,0.21-0.445,0.458
	c0,0.497,0.602,0.654,1.007,0.654c0.576,0,1.164-0.288,1.57-0.693c0.523-0.536,0.811-1.348,1.02-2.041L112.868,5.556z
	 M113.797,2.429c0-0.248-0.157-0.458-0.419-0.458c-0.379,0-0.667,0.497-0.667,0.824c0,0.262,0.131,0.497,0.406,0.497
	C113.522,3.292,113.797,2.795,113.797,2.429z"/>
<path fill-rule="evenodd" clip-rule="evenodd" d="M119.014,5.059c0,0.602-1.073,2.093-1.439,2.551
	c-0.458,0.575-1.622,1.975-2.42,1.975c-0.419,0-0.602-0.432-0.602-0.798c0-0.823,0.694-2.146,1.191-2.772
	c0.549-0.72,1.478-1.636,2.433-1.636C118.622,4.378,119.014,4.574,119.014,5.059z M119.21,4.587
	c-0.275-0.353-0.562-0.457-1.007-0.457c-1.19,0-2.368,0.745-3.166,1.582c-0.746,0.785-1.504,2.106-1.504,3.219
	c0,0.641,0.301,1.347,1.033,1.347c1.544,0,3.297-2.498,4.029-3.701l-0.798,2.59c-0.065,0.223-0.144,0.483-0.144,0.732
	c0,0.223,0.118,0.379,0.353,0.379c0.523,0,1.23-0.614,1.557-0.968c0.157-0.17,0.693-0.851,0.693-1.086
	c0-0.052-0.039-0.104-0.092-0.104c-0.092,0-0.183,0.17-0.222,0.235c-0.157,0.249-0.772,1.073-1.099,1.073
	c-0.104,0-0.131-0.092-0.131-0.196c0-0.118,0.078-0.327,0.104-0.432l1.347-4.422c0.013-0.052,0.065-0.196,0.065-0.262
	c0-0.183-0.366-0.117-0.445-0.117c-0.432,0-0.406,0.065-0.536,0.471L119.21,4.587z"/>
<path fill-rule="evenodd" clip-rule="evenodd" d="M127.687,5.817c0.104-0.275,0.249-0.654,0.249-0.955
	c0-0.472-0.366-0.732-0.811-0.732c-1.688,0-3.218,2.302-3.938,3.61l-0.026-0.026l0.562-1.792c0.105-0.354,0.222-0.772,0.222-1.151
	c0-0.38-0.131-0.641-0.536-0.641c-0.549,0-1.229,0.653-1.556,1.046c-0.105,0.104-0.562,0.707-0.562,0.851
	c0,0.065,0.052,0.092,0.104,0.092c0.078,0,0.118-0.079,0.144-0.145c0.157-0.274,0.877-1.15,1.217-1.15
	c0.196,0,0.261,0.144,0.261,0.313c0,0.223-0.092,0.511-0.157,0.72l-1.164,3.807c-0.026,0.065-0.078,0.235-0.078,0.301
	c0,0.223,0.275,0.157,0.406,0.157c0.419,0,0.419-0.065,0.536-0.445c0.314-1.021,1.321-2.76,2.014-3.584
	c0.406-0.471,1.23-1.439,1.923-1.439c0.301,0,0.458,0.171,0.458,0.458c0,0.235-0.105,0.484-0.183,0.707l-0.929,2.472
	c-0.157,0.406-0.353,0.955-0.353,1.4c0,0.379,0.17,0.588,0.562,0.588c0.536,0,1.321-0.759,1.661-1.138
	c0.104-0.104,0.589-0.706,0.589-0.876c0-0.053-0.052-0.092-0.092-0.092c-0.079,0-0.131,0.078-0.157,0.131
	c-0.222,0.327-0.955,1.242-1.374,1.242c-0.157,0-0.249-0.091-0.249-0.262c0-0.183,0.131-0.497,0.196-0.667L127.687,5.817z"/>
<path fill-rule="evenodd" clip-rule="evenodd" d="M132.658,2.429c0-0.248-0.17-0.458-0.432-0.458c-0.379,0-0.667,0.497-0.667,0.838
	c0,0.248,0.131,0.483,0.406,0.483C132.37,3.292,132.658,2.795,132.658,2.429z M129.911,8.604c-0.092,0.313-0.235,0.811-0.235,1.151
	c0,0.301,0.065,0.522,0.405,0.522c0.55,0,1.282-0.759,1.596-1.15c0.131-0.171,0.549-0.707,0.549-0.93
	c0-0.052-0.013-0.091-0.079-0.091c-0.092,0-0.144,0.091-0.183,0.17c-0.157,0.262-0.824,1.19-1.151,1.19
	c-0.118,0-0.17-0.104-0.17-0.235c0-0.17,0.065-0.354,0.118-0.523l0.968-3.14c0.078-0.235,0.222-0.706,0.222-0.955
	c0-0.287-0.092-0.483-0.406-0.483c-0.497,0-1.217,0.641-1.543,0.955c-0.104,0.104-0.641,0.68-0.641,0.85
	c0,0.065,0.026,0.104,0.078,0.104c0.17,0,0.903-1.15,1.347-1.15c0.131,0,0.157,0.13,0.157,0.235c0,0.117-0.079,0.34-0.105,0.444
	L129.911,8.604z"/>
<rect x="58.129" y="89.196" fill-rule="evenodd" clip-rule="evenodd" fill="#B4162C" width="36.978" height="36.979"/>
<path fill-rule="evenodd" clip-rule="evenodd" d="M70.397,87.998l-12.269-0.001v-7.118h0.229v6.777h12.04V87.998z M73.067,87.998
	h-1.878v-0.342h1.878V87.998z M77.158,87.998h-3.299v-0.342h3.299V87.998z M80.301,87.998H77.95v-0.342h2.352V87.998z
	 M81.604,87.998h-0.51v-0.342h0.51V87.998z M95.117,87.999l-12.721-0.001v-0.342h12.301v-6.404h0.42L95.117,87.999z M94.696,80.501
	l0-8.127h0.42v8.127H94.696z M83.591,71.671h10.943v0.326L83.591,71.671z M75.77,72.736c0.12-0.161,0.457-0.396,0.855-0.396
	c0.498,0,0.902,0.367,0.902,0.497l0.003,2.313h-0.42l-0.002-2.177c0-0.115-0.294-0.44-0.736-0.44
	C76.132,72.534,75.917,72.63,75.77,72.736z M75.484,67.888l1.121-0.824l0.804,0.54c0.232,0.183,0.394,0.436,0.394,0.753v1.256
	h-0.345v-1.26c0-0.271-0.138-0.488-0.337-0.645l-0.688-0.462L75.484,67.888z M77.343,60.887l0.001-1.387l-1.827-0.333h2.17
	l0.001,1.72H77.343z M76.493,57.617v-6.583h0.229v6.583H76.493z M75.357,61.283h2.401l1.816,1.459h-0.48l-1.582-1.291L75.357,61.283
	z M73.181,63.144h6.471l1.246,5.052l-0.344-0.005l-1.218-4.826L73.181,63.144z M58.109,79.521v-7.319h0.229v7.319H58.109z
	 M82.208,87.246h-0.414v-5.994h0.414V87.246z M71.458,80.525h10.149v0.344L71.458,80.525z M93.132,68.621l-1.114-3.149
	l-10.627-0.261h10.893l1.233,3.41H93.132z M74.28,67.585l2.327-1.499l2.401,1.499v2.401h-0.42v-2.319l-1.981-1.432L74.28,67.585z
	 M76.434,64.067c0-0.096,0.077-0.173,0.172-0.173c0.095,0,0.173,0.077,0.173,0.173c0,0.096-0.077,0.173-0.173,0.173
	C76.511,64.24,76.434,64.163,76.434,64.067z M76.159,65.644l0.056-0.272l0.582,0.001l-0.19-0.812l0.462,1.083H76.159z
	 M74.133,65.389c0-0.083,0.068-0.15,0.151-0.15s0.151,0.067,0.151,0.15c0,0.084-0.067,0.151-0.151,0.151
	S74.133,65.473,74.133,65.389z M73.979,66.628l0.019-0.224l0.457,0.001l-0.124-0.628l0.363,0.851H73.979z M60.971,75.161
	l-0.345,0.001l0-1.819l-0.616-0.118h0.962V75.161z M70.58,79.521v-7.146h0.409v7.146H70.58z M59.463,71.671h10.929v0.279
	L59.463,71.671z M70.585,87.246l0-5.994h0.404v5.994H70.585z M59.463,80.523h10.929v0.276L59.463,80.523z M59.854,68.817l1.09-3.579
	h11.083v0.258H61.112L59.854,68.817z M94.074,80.926l-11.534-0.403h11.526L94.074,80.926z M63.844,75.161l-0.345,0.001l0-1.819
	l-0.616-0.118h0.962V75.161z M66.641,75.161l-0.346,0.001l0-1.819l-0.616-0.118h0.962V75.161z M69.451,75.161l-0.346,0.001l0-1.819
	l-0.616-0.118h0.962V75.161z M73.486,75.161l-0.345,0.001v-1.819l-0.616-0.118h0.962V75.161z M80.672,75.161l-0.345,0.001l0-1.819
	l-0.616-0.118h0.962V75.161z M84.37,75.161l-0.345,0.001l0-1.819l-0.616-0.118h0.962V75.161z M87.244,75.161l-0.345,0.001l0-1.819
	l-0.617-0.118h0.962V75.161z M90.04,75.161l-0.345,0.001l0-1.819l-0.616-0.118h0.962V75.161z M92.851,75.161l-0.345,0.001l0-1.819
	l-0.616-0.118h0.962V75.161z M60.971,83.83h-0.345l0-1.819l-0.616-0.118h0.962V83.83z M63.844,83.83h-0.345l0-1.819l-0.616-0.118
	h0.962V83.83z M66.641,83.83h-0.346l0-1.819l-0.616-0.118h0.962V83.83z M69.451,83.83h-0.346l0-1.819l-0.616-0.118h0.962V83.83z
	 M84.37,83.83h-0.345l0-1.819l-0.616-0.118h0.962V83.83z M87.244,83.83h-0.345l0-1.819l-0.617-0.118h0.962V83.83z M90.04,83.83
	h-0.345l0-1.819l-0.616-0.118h0.962V83.83z M92.851,83.83h-0.345l0-1.819l-0.616-0.118h0.962V83.83z M60.971,86.984h-0.345l0-1.329
	l-0.616-0.118h0.962V86.984z M63.844,86.984h-0.345l0-1.329l-0.616-0.118h0.962V86.984z M66.641,86.984h-0.346l0-1.329l-0.616-0.118
	h0.962V86.984z M69.451,86.984h-0.346l0-1.329l-0.616-0.118h0.962V86.984z M84.37,86.984h-0.345l0-1.329l-0.616-0.118h0.962V86.984z
	 M87.244,86.984h-0.345l0-1.329l-0.617-0.118h0.962V86.984z M90.04,86.984h-0.345l0-1.329l-0.616-0.118h0.962V86.984z
	 M92.851,86.984h-0.345l0-1.329l-0.616-0.118h0.962V86.984z M71.938,70.824l-0.34,0.006v-1.878l-0.579-0.171h0.919V70.824z
	 M71.938,68.186h-0.846v-0.332h0.475l-0.235-1.371L71.938,68.186z M82.186,70.824l-0.34,0.006v-1.878l-0.579-0.171h0.919V70.824z
	 M82.186,68.186H81.34v-0.332h0.475l-0.235-1.371L82.186,68.186z M95.116,71.129H94.78v-2.21l-0.865-0.338h1.202V71.129z
	 M95.116,68.17h-1.138v-0.322h0.744l-0.301-2.088L95.116,68.17z M59.182,71.129h-0.336l0-2.21l-0.865-0.338h1.202V71.129z
	 M59.182,68.17h-1.138v-0.322h0.744l-0.3-2.088L59.182,68.17z M78.697,65.389c0-0.083,0.067-0.15,0.151-0.15s0.151,0.067,0.151,0.15
	c0,0.084-0.067,0.151-0.151,0.151S78.697,65.473,78.697,65.389z M78.53,66.628l0.019-0.224l0.457,0.001l-0.124-0.628l0.363,0.851
	H78.53z M77.772,87.246h-0.449l-0.003-4.342c0.004-0.638-0.438-1.08-0.983-1.08c-0.246,0-0.472,0.091-0.645,0.239
	c0.212-0.278,0.546-0.458,0.923-0.458c0.64,0,1.159,0.519,1.159,1.158L77.772,87.246z M80.865,87.246h-0.358l-0.002-4.114
	c0.003-0.492-0.305-0.834-0.684-0.834c-0.193,0-0.367,0.088-0.492,0.23c0.153-0.24,0.406-0.397,0.691-0.397
	c0.467,0,0.846,0.421,0.846,0.94L80.865,87.246z M73.654,87.246h-0.358l-0.002-4.114c0.003-0.492-0.305-0.834-0.684-0.834
	c-0.193,0-0.367,0.088-0.492,0.23c0.153-0.24,0.406-0.397,0.691-0.397c0.468,0,0.846,0.421,0.846,0.94L73.654,87.246z
	 M80.681,79.521h-0.331l-0.001-2.105c0.001-0.212-0.146-0.359-0.327-0.359c-0.094,0-0.18,0.04-0.24,0.104
	c0.083-0.146,0.239-0.245,0.419-0.245c0.265,0,0.48,0.216,0.48,0.48L80.681,79.521z M77.178,79.521l-0.002-2.082
	c0.003-0.491-0.337-0.832-0.758-0.832c-0.289,0-0.541,0.162-0.669,0.399c0.135-0.355,0.478-0.607,0.881-0.607
	c0.52,0,0.942,0.422,0.942,0.941l-0.001,2.181H77.178z M73.519,79.521h-0.331l-0.001-2.105c0.001-0.212-0.146-0.359-0.327-0.359
	c-0.095,0-0.18,0.04-0.24,0.104c0.083-0.146,0.239-0.245,0.419-0.245c0.265,0,0.48,0.216,0.48,0.48L73.519,79.521z M84.381,79.521
	h-0.331l-0.001-2.105c0.001-0.212-0.146-0.359-0.327-0.359c-0.094,0-0.18,0.04-0.24,0.104c0.083-0.146,0.239-0.245,0.419-0.245
	c0.265,0,0.48,0.216,0.48,0.48L84.381,79.521z M87.22,79.521h-0.331l-0.001-2.105c0.001-0.212-0.146-0.359-0.327-0.359
	c-0.094,0-0.18,0.04-0.24,0.104c0.083-0.146,0.239-0.245,0.418-0.245c0.265,0,0.48,0.216,0.48,0.48L87.22,79.521z M90.033,79.521
	h-0.331l-0.001-2.105c0.001-0.212-0.146-0.359-0.327-0.359c-0.095,0-0.18,0.04-0.24,0.104c0.082-0.146,0.239-0.245,0.418-0.245
	c0.265,0,0.48,0.216,0.48,0.48L90.033,79.521z M92.821,79.521H92.49l-0.001-2.105c0.001-0.212-0.146-0.359-0.327-0.359
	c-0.095,0-0.18,0.04-0.24,0.104c0.082-0.146,0.239-0.245,0.418-0.245c0.265,0,0.48,0.216,0.48,0.48L92.821,79.521z M69.428,79.521
	h-0.33l-0.001-2.105c0.001-0.212-0.146-0.359-0.327-0.359c-0.094,0-0.18,0.04-0.24,0.104c0.083-0.146,0.239-0.245,0.419-0.245
	c0.265,0,0.48,0.216,0.48,0.48L69.428,79.521z M66.64,79.521h-0.33l-0.001-2.105c0.001-0.212-0.146-0.359-0.327-0.359
	c-0.094,0-0.18,0.04-0.24,0.104c0.083-0.146,0.239-0.245,0.418-0.245c0.265,0,0.48,0.216,0.48,0.48L66.64,79.521z M63.827,79.521
	h-0.331l-0.001-2.105c0.001-0.212-0.146-0.359-0.327-0.359c-0.095,0-0.18,0.04-0.24,0.104c0.083-0.146,0.239-0.245,0.419-0.245
	c0.265,0,0.48,0.216,0.48,0.48L63.827,79.521z M60.989,79.521h-0.331l-0.001-2.105c0.001-0.212-0.146-0.359-0.327-0.359
	c-0.094,0-0.18,0.04-0.24,0.104c0.082-0.146,0.239-0.245,0.418-0.245c0.265,0,0.48,0.216,0.48,0.48L60.989,79.521z M68.749,67.774
	c0-0.081,0.066-0.147,0.147-0.147s0.147,0.066,0.147,0.147s-0.066,0.147-0.147,0.147S68.749,67.855,68.749,67.774z M69.313,70.021
	h-0.305v-1.427c0-0.224-0.154-0.379-0.345-0.379c-0.061,0-0.118,0.016-0.168,0.043c0.087-0.086,0.206-0.14,0.338-0.14
	c0.265,0,0.479,0.216,0.479,0.48V70.021z M66.332,67.774c0-0.081,0.066-0.147,0.147-0.147s0.147,0.066,0.147,0.147
	s-0.066,0.147-0.147,0.147S66.332,67.855,66.332,67.774z M66.896,70.021h-0.304v-1.427c0-0.224-0.154-0.379-0.346-0.379
	c-0.061,0-0.118,0.016-0.168,0.043c0.087-0.086,0.207-0.14,0.338-0.14c0.265,0,0.479,0.216,0.479,0.48V70.021z M63.709,67.774
	c0-0.081,0.066-0.147,0.147-0.147s0.147,0.066,0.147,0.147s-0.066,0.147-0.147,0.147S63.709,67.855,63.709,67.774z M64.273,70.021
	h-0.304v-1.427c0-0.224-0.154-0.379-0.346-0.379c-0.061,0-0.118,0.016-0.168,0.043c0.087-0.086,0.207-0.14,0.338-0.14
	c0.265,0,0.479,0.216,0.479,0.48V70.021z M65.372,66.991h-0.266v-0.675c0-0.196-0.135-0.331-0.302-0.331
	c-0.053,0-0.103,0.014-0.147,0.037c0.076-0.075,0.181-0.122,0.296-0.122c0.232,0,0.419,0.188,0.419,0.421V66.991z M68.17,66.991
	h-0.266v-0.675c0-0.196-0.135-0.331-0.302-0.331c-0.053,0-0.103,0.014-0.147,0.037c0.076-0.075,0.18-0.122,0.296-0.122
	c0.232,0,0.419,0.188,0.419,0.421V66.991z M85.467,66.991h-0.266v-0.675c0-0.196-0.135-0.331-0.302-0.331
	c-0.053,0-0.104,0.014-0.147,0.037c0.076-0.075,0.181-0.122,0.296-0.122c0.232,0,0.419,0.188,0.419,0.421V66.991z M84.04,67.774
	c0-0.081,0.066-0.147,0.147-0.147s0.147,0.066,0.147,0.147s-0.066,0.147-0.147,0.147S84.04,67.855,84.04,67.774z M84.603,70.021
	h-0.304v-1.427c0-0.224-0.154-0.379-0.345-0.379c-0.061,0-0.118,0.016-0.168,0.043c0.087-0.086,0.207-0.14,0.339-0.14
	c0.265,0,0.479,0.216,0.479,0.48V70.021z M88.312,66.991h-0.266v-0.675c0-0.196-0.135-0.331-0.302-0.331
	c-0.053,0-0.104,0.014-0.147,0.037c0.076-0.075,0.181-0.122,0.296-0.122c0.232,0,0.419,0.188,0.419,0.421V66.991z M86.694,67.774
	c0-0.081,0.066-0.147,0.147-0.147c0.082,0,0.147,0.066,0.147,0.147s-0.066,0.147-0.147,0.147
	C86.76,67.921,86.694,67.855,86.694,67.774z M87.258,70.021h-0.305v-1.427c0-0.224-0.154-0.379-0.345-0.379
	c-0.061,0-0.118,0.016-0.168,0.043c0.087-0.086,0.206-0.14,0.338-0.14c0.265,0,0.479,0.216,0.479,0.48V70.021z M89.112,67.774
	c0-0.081,0.066-0.147,0.147-0.147s0.147,0.066,0.147,0.147s-0.066,0.147-0.147,0.147S89.112,67.855,89.112,67.774z M89.676,70.021
	h-0.304v-1.427c0-0.224-0.154-0.379-0.345-0.379c-0.061,0-0.118,0.016-0.168,0.043c0.087-0.086,0.207-0.14,0.339-0.14
	c0.265,0,0.479,0.216,0.479,0.48V70.021z M60.45,59.505c0-0.088,0.072-0.16,0.16-0.16s0.16,0.072,0.16,0.16
	c0,0.089-0.072,0.161-0.16,0.161S60.45,59.594,60.45,59.505z M61.405,64.734h-0.342l-0.002-1.795c0.003-0.472-0.324-0.8-0.728-0.8
	c-0.129,0-0.25,0.034-0.356,0.093c0.151-0.122,0.343-0.195,0.552-0.195c0.485,0,0.876,0.394,0.876,0.879V64.734z M61.243,61.635
	h-1.066l0.003-0.348l0.671,0.007l-0.213-1.362L61.243,61.635z M92.019,59.505c0-0.088,0.072-0.16,0.16-0.16
	c0.088,0,0.16,0.072,0.16,0.16c0,0.089-0.072,0.161-0.16,0.161C92.09,59.666,92.019,59.594,92.019,59.505z M92.975,64.734h-0.342
	l-0.002-1.795c0.003-0.472-0.324-0.8-0.728-0.8c-0.129,0-0.25,0.034-0.356,0.093c0.151-0.122,0.343-0.195,0.552-0.195
	c0.485,0,0.876,0.394,0.876,0.879V64.734z M92.813,61.635h-1.066l0.002-0.348l0.671,0.007l-0.213-1.362L92.813,61.635z
	 M76.608,58.013c0.443,0,0.804,0.348,0.826,0.785H77.15c-0.06-0.324-0.345-0.57-0.687-0.57c-0.327,0-0.602,0.226-0.677,0.529
	C75.827,58.339,76.179,58.013,76.608,58.013z M79.138,71.425h2.469v0.334l-2.618-0.068c-0.278-0.697-1.31-1.211-2.532-1.211
	c-1.145,0-2.117,0.454-2.464,1.086c0.33-0.693,1.372-1.199,2.607-1.199C77.75,70.366,78.733,70.805,79.138,71.425z M82.208,72.063
	v7.479h-0.4l-0.012-7.479H82.208z"/>
</svg>
