<svg width="295" height="109" viewBox="0 0 295 109" fill="none" xmlns="http://www.w3.org/2000/svg">
<path d="M0.200012 89H78.2V37H0.200012V89Z" fill="#0D4DA1"/>
<path d="M37.5 48.4L39.2 47.2L40.8 48.4L40.2 46.4L41.9 45.2H39.8L39.2 43.3L38.6 45.2H36.5L38.2 46.4L37.5 48.4Z" fill="#FFF200"/>
<path d="M29 50.6L30.7 49.4L32.3 50.6L31.7 48.7L33.4 47.5H31.3L30.7 45.5L30 47.5H28L29.7 48.7L29 50.6Z" fill="#FFF200"/>
<path d="M24.4 51.8L23.8 53.8L21.8 53.7L23.4 54.9L22.8 56.9L24.4 55.7L26.1 56.9L25.5 54.9L27.1 53.7H25.1L24.4 51.8Z" fill="#FFF200"/>
<path d="M22.2 64.2L23.8 65.4L23.2 63.5L24.8 62.2H22.8L22.2 60.3L21.5 62.3L19.5 62.2L21.1 63.5L20.5 65.4L22.2 64.2Z" fill="#FFF200"/>
<path d="M25.1 70.8L24.4 68.8L23.8 70.8H21.8L23.4 72L22.8 73.9L24.4 72.7L26.1 73.9L25.5 72L27.1 70.8H25.1Z" fill="#FFF200"/>
<path d="M31.3 77L30.7 75.1L30.1 77H28L29.7 78.2L29 80.2L30.7 79L32.3 80.2L31.7 78.2L33.4 77H31.3Z" fill="#FFF200"/>
<path d="M39.8 79.3L39.2 77.3L38.6 79.3H36.5L38.2 80.5L37.5 82.4L39.2 81.2L40.8 82.4L40.2 80.5L41.9 79.3H39.8Z" fill="#FFF200"/>
<path d="M48.3 77L47.7 75.1L47.1 77H45L46.7 78.2L46.1 80.2L47.7 79L49.3 80.2L48.7 78.2L50.4 77H48.3Z" fill="#FFF200"/>
<path d="M54.6 70.8L53.9 68.8L53.3 70.8H51.2L52.9 72L52.3 73.9L53.9 72.7L55.6 73.9L55 72L56.6 70.8H54.6Z" fill="#FFF200"/>
<path d="M58.9 62.2H56.8L56.2 60.3L55.6 62.2H53.5L55.2 63.4L54.5 65.4L56.2 64.2L57.8 65.4L57.2 63.4L58.9 62.2Z" fill="#FFF200"/>
<path d="M52.3 56.9L53.9 55.7L55.6 56.9L55 54.9L56.6 53.7H54.6L53.9 51.8L53.3 53.7H51.2L52.9 54.9L52.3 56.9Z" fill="#FFF200"/>
<path d="M47.7 45.5L47.1 47.5H45L46.7 48.7L46.1 50.6L47.7 49.5L49.4 50.6L48.7 48.7L50.4 47.5H48.3L47.7 45.5Z" fill="#FFF200"/>
<path d="M64.4 14.9C66.5 22.6 65.5 29.9 60.9 34.6L38.1 11.9C35 8.70001 34.2 4.10001 35.8 0.200012H6.00002C3.90002 1.20001 2.00002 2.60002 0.300018 4.30002L0.200012 4.40001V34.9H15.7L15.4 34.6L30.6 19.5L38.2 27L30.3 34.9H73.5C78 25 76.4 12 69.5 0.200012H56.5C60.3 4.90001 63 10 64.4 14.9V14.9ZM7.90001 27C3.70001 22.8 3.70001 16.1 7.90001 11.9C12.1 7.70001 18.8 7.70001 23 11.9L7.90001 27Z" fill="#DEBA51"/>
<path d="M11.3 108.5H41.2L33.8 101.1L41.4 93.5L56.3 108.5H71.9C76.5 103.7 78.5 97.3 77.8 91.2H67C67.7 94.6 66.8 98.4 64.1 101.1L54.2 91.2H28.6L11.3 108.5Z" fill="#DEBA51"/>
<path d="M92.3 100.5C92.3 100.4 92.2 100.4 92.2 100.4C92.2 100.333 92.1667 100.3 92.1 100.3H92C91.9 100.3 91.8 100.2 91.7 100.2C91.6 100.2 91.5 100.3 91.5 100.3C91.4 100.3 91.3 100.3 91.3 100.3C91.2333 100.3 91.2 100.333 91.2 100.4V108.3C91.2 108.367 91.2 108.4 91.2 108.4C91.2 108.4 91.2 108.5 91.3 108.5C91.3 108.5 91.4 108.5 91.5 108.5C91.5 108.5 91.6 108.5 91.7 108.5C91.8 108.5 91.9 108.5 92 108.5H92.1C92.2 108.5 92.2 108.4 92.2 108.4C92.2 108.4 92.3 108.4 92.3 108.3V100.5ZM103.1 100.5C103.1 100.433 103.1 100.4 103.1 100.4C103 100.4 103 100.3 103 100.3C102.933 100.3 102.867 100.3 102.8 100.3C102.733 100.3 102.667 100.3 102.6 100.3C102.467 100.3 102.367 100.3 102.3 100.3C102.233 100.3 102.167 100.3 102.1 100.3L102 100.4V104.9C102 105.3 102 105.6 102 106C102 106.3 102 106.7 102 107C101.9 106.8 101.8 106.6 101.7 106.4C101.6 106.2 101.5 106 101.4 105.8C101.3 105.6 101.2 105.4 101.1 105.2C101 105 100.9 104.8 100.8 104.6L98.8 101C98.8 100.8 98.7 100.7 98.6 100.6C98.6 100.5 98.5 100.5 98.4 100.4C98.4 100.4 98.3 100.3 98.2 100.3C98.1 100.3 98 100.3 97.9 100.3H97.3C97.2 100.3 97.1 100.3 97 100.4C96.9 100.5 96.9 100.6 96.9 100.8V108.3C96.9 108.367 96.9 108.4 96.9 108.4L97 108.5C97 108.5 97.1 108.5 97.2 108.5C97.2 108.5 97.3 108.5 97.4 108.5C97.5 108.5 97.6 108.5 97.7 108.5C97.7667 108.5 97.8333 108.5 97.9 108.5C97.9 108.5 97.9 108.4 98 108.4V103.4C98 103.1 98 102.8 98 102.4C98 102.1 98 101.8 98 101.5C98.1 101.8 98.2 102 98.3 102.3C98.5 102.5 98.6 102.8 98.7 103L101.2 107.7C101.3 107.9 101.4 108 101.5 108.1C101.6 108.2 101.6 108.3 101.7 108.4C101.8 108.4 101.9 108.5 102 108.5C102 108.5 102.1 108.5 102.3 108.5H102.6C102.667 108.5 102.733 108.5 102.8 108.5L102.9 108.4C103 108.4 103 108.3 103 108.3C103.1 108.2 103.1 108.1 103.1 108V100.5ZM113.7 100.7C113.8 100.6 113.8 100.5 113.8 100.5C113.8 100.433 113.767 100.367 113.7 100.3H113.6C113.5 100.3 113.4 100.2 113.3 100.2C113.2 100.2 113.1 100.3 113 100.3C112.9 100.3 112.8 100.3 112.8 100.3C112.8 100.3 112.7 100.3 112.7 100.4V100.5L110.4 107.4L108 100.5C108 100.433 108 100.4 108 100.4C107.933 100.333 107.9 100.3 107.9 100.3C107.833 100.3 107.767 100.3 107.7 100.3C107.6 100.3 107.6 100.2 107.4 100.2C107.3 100.2 107.2 100.3 107.1 100.3C107 100.3 106.9 100.3 106.9 100.3C106.9 100.367 106.9 100.433 106.9 100.5C106.9 100.5 106.9 100.6 106.9 100.7L109.6 108.3V108.4H109.7C109.7 108.5 109.8 108.5 109.8 108.5H109.9C109.967 108.5 110.033 108.5 110.1 108.5C110.167 108.5 110.233 108.5 110.3 108.5C110.5 108.5 110.6 108.5 110.6 108.5C110.7 108.5 110.8 108.5 110.9 108.5C110.9 108.5 110.9 108.4 111 108.4V108.3L113.7 100.7ZM122.1 107.8V107.7C122 107.7 122 107.6 122 107.6H121.9H118.6V104.7H121.4L121.5 104.6H121.6C121.6 104.533 121.6 104.467 121.6 104.4C121.6 104.4 121.6 104.3 121.6 104.2C121.6 104.133 121.6 104.067 121.6 104V103.9C121.533 103.833 121.5 103.8 121.5 103.8H121.4H118.6V101.2H121.9C122 101.2 122 101.1 122 101.1C122 101.1 122 101 122.1 101C122.1 100.9 122.1 100.8 122.1 100.8C122.1 100.7 122.1 100.6 122.1 100.5C122 100.5 122 100.4 122 100.4C122 100.4 122 100.3 121.9 100.3H118C117.9 100.3 117.8 100.3 117.7 100.4C117.6 100.5 117.6 100.6 117.6 100.7V108C117.6 108.2 117.6 108.3 117.7 108.4C117.8 108.5 117.9 108.5 118 108.5H121.9H122C122 108.5 122 108.4 122.1 108.4C122.1 108.333 122.1 108.267 122.1 108.2C122.1 108.2 122.1 108.1 122.1 108C122.1 108 122.1 107.9 122.1 107.8ZM130.5 105.3C130.4 105.1 130.2 104.9 130 104.7C129.9 104.5 129.7 104.4 129.4 104.3C129.2 104.1 129 104 128.8 103.9C128.5 103.8 128.3 103.7 128.1 103.6C127.8 103.5 127.6 103.4 127.5 103.2C127.3 103.1 127.2 103 127.1 102.8C126.9 102.6 126.9 102.4 126.9 102.2C126.9 102.1 126.9 101.9 127 101.8C127 101.6 127.1 101.5 127.2 101.4C127.3 101.3 127.5 101.2 127.6 101.2C127.8 101.1 128 101.1 128.2 101.1C128.5 101.1 128.7 101.1 128.9 101.2C129.1 101.2 129.3 101.3 129.4 101.4C129.6 101.4 129.7 101.5 129.8 101.6C129.9 101.6 129.9 101.7 130 101.7L130.1 101.6V101.5L130.2 101.4C130.2 101.333 130.2 101.267 130.2 101.2C130.2 101.1 130.2 101 130.2 101C130.2 100.9 130.1 100.9 130.1 100.9C130.1 100.833 130.1 100.8 130.1 100.8C130.1 100.8 130.1 100.7 130 100.7C130 100.6 129.9 100.6 129.8 100.5C129.7 100.5 129.5 100.4 129.3 100.3C129.2 100.3 129 100.2 128.8 100.2C128.6 100.2 128.5 100.2 128.3 100.2C127.9 100.2 127.6 100.2 127.3 100.3C127 100.4 126.7 100.5 126.5 100.7C126.3 100.9 126.1 101.1 126 101.4C125.8 101.7 125.8 102 125.8 102.3C125.8 102.7 125.8 102.9 125.9 103.2C126.1 103.4 126.2 103.6 126.4 103.8C126.5 104 126.7 104.1 127 104.3C127.2 104.4 127.4 104.5 127.6 104.6C127.9 104.7 128.1 104.8 128.3 104.9C128.5 105 128.7 105.2 128.9 105.3C129.1 105.4 129.2 105.6 129.3 105.7C129.4 105.9 129.5 106.1 129.5 106.3C129.5 106.5 129.4 106.7 129.4 106.9C129.3 107.1 129.2 107.2 129 107.3C128.9 107.4 128.7 107.5 128.5 107.6C128.3 107.7 128.1 107.7 127.9 107.7C127.6 107.7 127.3 107.6 127.1 107.6C126.8 107.5 126.6 107.4 126.4 107.3C126.3 107.2 126.1 107.2 126 107.1C125.9 107 125.8 107 125.8 107H125.7L125.6 107.1V107.2C125.6 107.3 125.6 107.4 125.6 107.5C125.6 107.6 125.6 107.7 125.6 107.8C125.6 107.9 125.7 107.9 125.7 108C125.8 108 125.9 108.1 126 108.2C126.1 108.2 126.3 108.3 126.4 108.4C126.6 108.4 126.8 108.5 127.1 108.5C127.3 108.6 127.6 108.6 127.8 108.6C128.2 108.6 128.6 108.6 128.9 108.5C129.3 108.4 129.6 108.2 129.8 108C130.1 107.8 130.3 107.5 130.4 107.2C130.6 106.9 130.6 106.6 130.6 106.2C130.6 105.9 130.6 105.6 130.5 105.3V105.3ZM139.7 100.5C139.7 100.5 139.7 100.4 139.6 100.4V100.3C139.533 100.3 139.5 100.3 139.5 100.3H133.8C133.733 100.3 133.7 100.3 133.7 100.3L133.6 100.4V100.5C133.6 100.6 133.6 100.7 133.6 100.8C133.6 100.8 133.6 100.9 133.6 101V101.1L133.7 101.2H136.1V108.3C136.1 108.367 136.1 108.4 136.1 108.4L136.2 108.5C136.2 108.5 136.3 108.5 136.4 108.5C136.4 108.5 136.5 108.5 136.6 108.5C136.7 108.5 136.8 108.5 136.9 108.5C136.967 108.5 137.033 108.5 137.1 108.5V108.4C137.167 108.4 137.2 108.367 137.2 108.3V101.2H139.6V101.1C139.7 101.1 139.7 101 139.7 101C139.7 100.9 139.7 100.8 139.7 100.8C139.7 100.7 139.7 100.6 139.7 100.5V100.5ZM144.4 100.5C144.4 100.433 144.4 100.4 144.4 100.4C144.4 100.333 144.367 100.3 144.3 100.3C144.3 100.3 144.2 100.3 144.1 100.3C144.1 100.3 144 100.2 143.9 100.2C143.8 100.2 143.7 100.3 143.6 100.3H143.5C143.433 100.3 143.4 100.333 143.4 100.4C143.333 100.4 143.3 100.433 143.3 100.5V108.3C143.3 108.367 143.333 108.4 143.4 108.4C143.4 108.4 143.4 108.5 143.5 108.5H143.6C143.7 108.5 143.8 108.5 143.9 108.5C144 108.5 144.1 108.5 144.1 108.5C144.2 108.5 144.3 108.5 144.3 108.5C144.4 108.5 144.4 108.4 144.4 108.4V108.3V100.5ZM155.3 100.5C155.3 100.433 155.267 100.4 155.2 100.4V100.3C155.133 100.3 155.067 100.3 155 100.3C154.9 100.3 154.8 100.3 154.7 100.3C154.6 100.3 154.5 100.3 154.5 100.3C154.4 100.3 154.3 100.3 154.3 100.3L154.2 100.4V104.9C154.2 105.3 154.2 105.6 154.2 106C154.2 106.3 154.2 106.7 154.2 107C154.1 106.8 154 106.6 153.9 106.4C153.8 106.2 153.7 106 153.6 105.8C153.5 105.6 153.4 105.4 153.3 105.2C153.2 105 153 104.8 152.9 104.6L151 101C150.9 100.8 150.9 100.7 150.8 100.6C150.733 100.533 150.667 100.467 150.6 100.4C150.5 100.4 150.5 100.3 150.4 100.3C150.3 100.3 150.2 100.3 150.1 100.3H149.5C149.4 100.3 149.3 100.3 149.2 100.4C149.1 100.5 149.1 100.6 149.1 100.8V108.3C149.1 108.367 149.1 108.4 149.1 108.4C149.1 108.4 149.1 108.5 149.2 108.5H149.3C149.4 108.5 149.5 108.5 149.6 108.5C149.7 108.5 149.8 108.5 149.9 108.5H150C150.1 108.5 150.1 108.4 150.1 108.4C150.1 108.4 150.2 108.4 150.2 108.3V103.4C150.2 103.1 150.2 102.8 150.2 102.4C150.1 102.1 150.1 101.8 150.1 101.5C150.3 101.8 150.4 102 150.5 102.3C150.6 102.5 150.8 102.8 150.9 103L153.4 107.7C153.5 107.9 153.6 108 153.7 108.1C153.7 108.2 153.8 108.3 153.9 108.4C154 108.4 154 108.5 154.1 108.5C154.2 108.5 154.3 108.5 154.4 108.5H154.8C154.8 108.5 154.9 108.5 155 108.5L155.1 108.4C155.2 108.4 155.2 108.3 155.2 108.3C155.3 108.2 155.3 108.1 155.3 108V100.5ZM166 101.1C166 101.033 165.967 100.967 165.9 100.9C165.9 100.8 165.8 100.8 165.6 100.7C165.5 100.6 165.3 100.5 165.1 100.5C164.9 100.4 164.6 100.3 164.3 100.3C164.1 100.2 163.8 100.2 163.5 100.2C162.9 100.2 162.3 100.3 161.8 100.5C161.3 100.7 160.9 101 160.5 101.3C160.2 101.7 159.9 102.2 159.7 102.7C159.5 103.2 159.4 103.8 159.4 104.5C159.4 105.1 159.5 105.7 159.7 106.2C159.8 106.7 160.1 107.1 160.5 107.5C160.8 107.8 161.2 108.1 161.7 108.3C162.2 108.5 162.8 108.6 163.4 108.6C163.6 108.6 163.8 108.6 164 108.6C164.3 108.5 164.5 108.5 164.7 108.5C164.9 108.4 165.1 108.3 165.3 108.3C165.5 108.2 165.6 108.1 165.7 108.1C165.9 108 166 107.9 166 107.9C166 107.8 166 107.7 166 107.6V104.4C166 104.4 166 104.3 166 104.2C166 104.2 166 104.1 165.9 104.1L165.8 104H165.7H163.1C163.033 104 163 104 163 104C162.9 104 162.9 104.1 162.9 104.1V104.2C162.8 104.3 162.8 104.4 162.8 104.5C162.8 104.6 162.9 104.7 162.9 104.8C162.9 104.9 163 104.9 163.1 104.9H165V107.3C164.7 107.4 164.5 107.5 164.2 107.6C164 107.6 163.7 107.7 163.5 107.7C163 107.7 162.6 107.6 162.3 107.4C161.9 107.3 161.6 107.1 161.4 106.8C161.1 106.5 160.9 106.2 160.8 105.8C160.6 105.4 160.5 104.9 160.5 104.4C160.5 103.9 160.6 103.5 160.7 103.1C160.9 102.7 161.1 102.3 161.3 102C161.6 101.7 161.9 101.5 162.2 101.4C162.6 101.2 163 101.1 163.4 101.1C163.8 101.1 164.2 101.1 164.4 101.2C164.7 101.3 164.9 101.4 165.1 101.5C165.3 101.6 165.5 101.7 165.6 101.8C165.7 101.8 165.8 101.9 165.9 101.9H166C166 101.833 166 101.8 166 101.8C166 101.733 166.033 101.667 166.1 101.6C166.1 101.6 166.1 101.5 166.1 101.4C166.1 101.3 166.1 101.2 166 101.1V101.1ZM176.5 100.5C176.5 100.433 176.5 100.4 176.5 100.4C176.5 100.333 176.467 100.3 176.4 100.3C176.4 100.3 176.3 100.3 176.2 100.3C176.2 100.3 176.1 100.2 176 100.2C175.9 100.2 175.8 100.3 175.7 100.3H175.6C175.533 100.3 175.5 100.333 175.5 100.4C175.433 100.4 175.4 100.433 175.4 100.5V108.3C175.4 108.367 175.433 108.4 175.5 108.4C175.5 108.4 175.5 108.5 175.6 108.5H175.7C175.8 108.5 175.9 108.5 176 108.5C176.1 108.5 176.2 108.5 176.2 108.5C176.3 108.5 176.4 108.5 176.4 108.5C176.5 108.5 176.5 108.4 176.5 108.4V108.3V100.5ZM187.4 100.5C187.4 100.433 187.367 100.4 187.3 100.4V100.3C187.233 100.3 187.167 100.3 187.1 100.3C187 100.3 186.9 100.3 186.8 100.3C186.7 100.3 186.6 100.3 186.6 100.3C186.5 100.3 186.4 100.3 186.4 100.3C186.3 100.3 186.3 100.4 186.3 100.4V104.9C186.3 105.3 186.3 105.6 186.3 106C186.3 106.3 186.3 106.7 186.3 107C186.2 106.8 186.1 106.6 186 106.4C185.9 106.2 185.8 106 185.7 105.8C185.6 105.6 185.5 105.4 185.4 105.2C185.3 105 185.1 104.8 185 104.6L183.1 101C183 100.8 183 100.7 182.9 100.6C182.833 100.533 182.767 100.467 182.7 100.4C182.6 100.4 182.6 100.3 182.5 100.3C182.4 100.3 182.3 100.3 182.2 100.3H181.6C181.5 100.3 181.4 100.3 181.3 100.4C181.2 100.5 181.2 100.6 181.2 100.8V108.3C181.2 108.367 181.2 108.4 181.2 108.4C181.2 108.4 181.2 108.5 181.3 108.5H181.4C181.5 108.5 181.6 108.5 181.7 108.5C181.8 108.5 181.9 108.5 182 108.5H182.1C182.2 108.5 182.2 108.4 182.2 108.4C182.2 108.4 182.3 108.4 182.3 108.3V103.4C182.3 103.1 182.3 102.8 182.2 102.4C182.2 102.1 182.2 101.8 182.2 101.5C182.4 101.8 182.5 102 182.6 102.3C182.7 102.5 182.9 102.8 183 103L185.5 107.7C185.6 107.9 185.7 108 185.8 108.1C185.8 108.2 185.9 108.3 186 108.4C186.1 108.4 186.1 108.5 186.2 108.5C186.3 108.5 186.4 108.5 186.5 108.5H186.9C186.9 108.5 187 108.5 187.1 108.5L187.2 108.4C187.3 108.4 187.3 108.3 187.3 108.3C187.3 108.2 187.4 108.1 187.4 108V100.5ZM201.8 100.7C201.9 100.6 201.9 100.5 201.9 100.5C201.9 100.433 201.9 100.367 201.9 100.3C201.833 100.3 201.767 100.3 201.7 100.3C201.6 100.3 201.5 100.2 201.3 100.2C201.2 100.2 201.1 100.3 201.1 100.3C201 100.3 200.9 100.3 200.9 100.3C200.833 100.3 200.8 100.333 200.8 100.4L200.7 100.5L199.6 102.8C199.5 103.1 199.4 103.3 199.3 103.5C199.2 103.8 199.1 104 199 104.3C198.9 104 198.8 103.8 198.7 103.5C198.5 103.3 198.4 103 198.3 102.8L197.2 100.5C197.2 100.433 197.167 100.4 197.1 100.4C197.1 100.333 197.067 100.3 197 100.3C197 100.3 196.9 100.3 196.8 100.3C196.8 100.3 196.7 100.2 196.5 100.2C196.4 100.2 196.3 100.3 196.2 100.3C196.133 100.3 196.067 100.3 196 100.3C196 100.367 196 100.4 196 100.4C196 100.5 196 100.6 196.1 100.7L198.4 105.3V108.3C198.4 108.367 198.4 108.4 198.4 108.4L198.5 108.5C198.567 108.5 198.633 108.5 198.7 108.5C198.767 108.5 198.867 108.5 199 108.5C199.067 108.5 199.133 108.5 199.2 108.5C199.267 108.5 199.333 108.5 199.4 108.5L199.5 108.4V105.3L201.8 100.7ZM211.9 102.5C211.8 102 211.5 101.6 211.2 101.2C210.9 100.9 210.6 100.6 210.1 100.4C209.7 100.3 209.1 100.2 208.5 100.2C207.9 100.2 207.4 100.3 206.9 100.5C206.4 100.7 206 101 205.7 101.3C205.4 101.7 205.2 102.1 205 102.7C204.9 103.2 204.8 103.8 204.8 104.4C204.8 105.1 204.9 105.7 205 106.2C205.1 106.8 205.4 107.2 205.7 107.5C206 107.9 206.3 108.2 206.8 108.3C207.2 108.5 207.8 108.6 208.4 108.6C209 108.6 209.5 108.5 210 108.3C210.5 108.1 210.9 107.8 211.2 107.5C211.5 107.1 211.7 106.6 211.9 106.1C212 105.6 212.1 105 212.1 104.3C212.1 103.6 212 103 211.9 102.5ZM210.8 105.6C210.8 106 210.6 106.4 210.4 106.7C210.2 107 210 107.2 209.6 107.4C209.3 107.6 208.9 107.7 208.4 107.7C207.9 107.7 207.5 107.6 207.2 107.4C206.9 107.3 206.7 107 206.5 106.7C206.3 106.4 206.1 106.1 206.1 105.7C206 105.3 205.9 104.8 205.9 104.4C205.9 103.9 206 103.5 206.1 103.1C206.2 102.7 206.3 102.4 206.5 102.1C206.7 101.8 207 101.5 207.3 101.4C207.6 101.2 208 101.1 208.5 101.1C208.9 101.1 209.3 101.2 209.7 101.3C210 101.5 210.2 101.7 210.4 102C210.6 102.3 210.8 102.7 210.8 103.1C210.9 103.5 211 103.9 211 104.4C211 104.8 210.9 105.2 210.8 105.6ZM222.5 100.5C222.5 100.433 222.467 100.4 222.4 100.4C222.4 100.333 222.4 100.3 222.4 100.3C222.333 100.3 222.267 100.3 222.2 100.3C222.1 100.3 222 100.2 221.9 100.2C221.8 100.2 221.7 100.3 221.7 100.3C221.6 100.3 221.5 100.3 221.5 100.3C221.5 100.3 221.4 100.3 221.4 100.4V105.5C221.4 105.8 221.3 106.2 221.2 106.4C221.2 106.7 221 106.9 220.9 107.1C220.7 107.3 220.5 107.4 220.2 107.5C220 107.6 219.7 107.7 219.4 107.7C219.1 107.7 218.8 107.6 218.5 107.5C218.3 107.4 218.1 107.3 217.9 107.1C217.7 106.9 217.6 106.7 217.5 106.4C217.4 106.1 217.4 105.8 217.4 105.4V100.5C217.4 100.433 217.367 100.4 217.3 100.4C217.3 100.333 217.3 100.3 217.3 100.3C217.233 100.3 217.167 100.3 217.1 100.3C217 100.3 216.9 100.2 216.8 100.2C216.7 100.2 216.6 100.3 216.6 100.3C216.5 100.3 216.4 100.3 216.4 100.3C216.4 100.3 216.3 100.3 216.3 100.4V105.5C216.3 106.1 216.4 106.5 216.5 106.9C216.6 107.3 216.9 107.6 217.1 107.8C217.4 108.1 217.7 108.3 218.1 108.4C218.5 108.6 218.9 108.6 219.3 108.6C219.8 108.6 220.2 108.5 220.6 108.4C221 108.3 221.4 108.1 221.6 107.8C221.9 107.5 222.1 107.2 222.3 106.8C222.4 106.4 222.5 106 222.5 105.5V100.5ZM232.5 108.2C232.5 108.1 232.5 108 232.4 107.9L231.7 106.1C231.6 105.8 231.5 105.7 231.4 105.5C231.3 105.3 231.3 105.2 231.2 105.1C231.1 104.9 231 104.8 230.9 104.7C230.7 104.6 230.6 104.6 230.5 104.5C230.7 104.4 230.9 104.3 231.1 104.2C231.3 104.1 231.5 103.9 231.6 103.8C231.8 103.6 231.9 103.4 232 103.2C232 103 232.1 102.7 232.1 102.5C232.1 102.2 232 101.9 231.9 101.7C231.9 101.4 231.7 101.2 231.6 101C231.4 100.9 231.2 100.7 231 100.6C230.7 100.5 230.4 100.4 230.1 100.3C230 100.3 229.9 100.3 229.8 100.3C229.6 100.3 229.4 100.3 229.2 100.3H227.5C227.4 100.3 227.3 100.3 227.2 100.4C227.1 100.5 227.1 100.6 227.1 100.7V108.3C227.1 108.367 227.1 108.4 227.1 108.4L227.2 108.5C227.2 108.5 227.3 108.5 227.4 108.5C227.4 108.5 227.5 108.5 227.6 108.5C227.7 108.5 227.8 108.5 227.9 108.5C227.967 108.5 228.033 108.5 228.1 108.5C228.1 108.5 228.1 108.4 228.2 108.4V104.8H228.9C229.2 104.8 229.4 104.9 229.5 104.9C229.7 105 229.9 105.1 230 105.3C230.1 105.4 230.3 105.5 230.4 105.7C230.4 105.9 230.5 106.1 230.6 106.3L231.4 108.3V108.4C231.5 108.4 231.5 108.5 231.5 108.5C231.567 108.5 231.633 108.5 231.7 108.5C231.8 108.5 231.9 108.5 232 108.5C232.1 108.5 232.2 108.5 232.3 108.5C232.367 108.5 232.433 108.5 232.5 108.5V108.4C232.567 108.4 232.6 108.367 232.6 108.3L232.5 108.2V108.2ZM230.8 103.1C230.8 103.3 230.7 103.4 230.5 103.6C230.4 103.7 230.2 103.8 230 103.9C229.8 103.9 229.5 104 229.2 104H228.2V101.2H229.1C229.3 101.2 229.5 101.2 229.6 101.2C229.8 101.2 229.9 101.2 230 101.3C230.3 101.4 230.6 101.5 230.7 101.8C230.8 102 230.9 102.2 230.9 102.6C230.9 102.8 230.9 103 230.8 103.1V103.1ZM245.8 100.5C245.8 100.5 245.8 100.4 245.7 100.4V100.3C245.633 100.3 245.6 100.3 245.6 100.3H241.9C241.8 100.3 241.7 100.3 241.6 100.4C241.5 100.5 241.5 100.6 241.5 100.7V108.3C241.5 108.367 241.5 108.4 241.5 108.4L241.6 108.5C241.6 108.5 241.7 108.5 241.8 108.5C241.8 108.5 241.9 108.5 242 108.5C242.1 108.5 242.2 108.5 242.3 108.5C242.367 108.5 242.433 108.5 242.5 108.5V108.4C242.567 108.4 242.6 108.367 242.6 108.3V104.9H245.4H245.5C245.5 104.9 245.5 104.8 245.6 104.8V104.7C245.6 104.6 245.6 104.5 245.6 104.5C245.6 104.4 245.6 104.3 245.6 104.2V104.1C245.5 104.1 245.5 104 245.5 104H245.4H242.6V101.2H245.7V101.1C245.8 101.1 245.8 101 245.8 101C245.8 100.9 245.8 100.8 245.8 100.8C245.8 100.7 245.8 100.6 245.8 100.5V100.5ZM256.1 100.5C256.1 100.433 256.067 100.4 256 100.4C256 100.333 256 100.3 256 100.3C255.933 100.3 255.867 100.3 255.8 100.3C255.7 100.3 255.6 100.2 255.5 100.2C255.4 100.2 255.3 100.3 255.3 100.3C255.2 100.3 255.1 100.3 255.1 100.3C255.1 100.3 255 100.3 255 100.4V105.5C255 105.8 254.9 106.2 254.9 106.4C254.8 106.7 254.6 106.9 254.5 107.1C254.3 107.3 254.1 107.4 253.8 107.5C253.6 107.6 253.3 107.7 253 107.7C252.7 107.7 252.4 107.6 252.1 107.5C251.9 107.4 251.7 107.3 251.5 107.1C251.3 106.9 251.2 106.7 251.1 106.4C251 106.1 251 105.8 251 105.4V100.5C251 100.433 250.967 100.4 250.9 100.4C250.9 100.333 250.9 100.3 250.9 100.3C250.833 100.3 250.767 100.3 250.7 100.3C250.6 100.3 250.5 100.2 250.4 100.2C250.3 100.2 250.2 100.3 250.2 100.3C250.1 100.3 250 100.3 250 100.3C250 100.3 249.9 100.3 249.9 100.4V105.5C249.9 106.1 250 106.5 250.1 106.9C250.2 107.3 250.5 107.6 250.7 107.8C251 108.1 251.3 108.3 251.7 108.4C252 108.6 252.5 108.6 252.9 108.6C253.4 108.6 253.8 108.5 254.2 108.4C254.6 108.3 255 108.1 255.2 107.8C255.5 107.5 255.7 107.2 255.9 106.8C256 106.4 256.1 106 256.1 105.5V100.5ZM265.8 100.5V100.4L265.7 100.3H265.6H259.9H259.8V100.4C259.7 100.4 259.7 100.5 259.7 100.5C259.7 100.6 259.7 100.7 259.7 100.8C259.7 100.8 259.7 100.9 259.7 101C259.7 101 259.7 101.1 259.8 101.1V101.2H259.9H262.2V108.3C262.2 108.367 262.2 108.4 262.2 108.4C262.3 108.4 262.3 108.5 262.3 108.5C262.367 108.5 262.433 108.5 262.5 108.5C262.6 108.5 262.7 108.5 262.8 108.5C262.9 108.5 263 108.5 263 108.5C263.067 108.5 263.133 108.5 263.2 108.5L263.3 108.4V101.2H265.6H265.7L265.8 101.1V101C265.8 100.9 265.8 100.8 265.8 100.8C265.8 100.7 265.8 100.6 265.8 100.5V100.5ZM275.6 100.5C275.6 100.433 275.6 100.4 275.6 100.4C275.6 100.333 275.567 100.3 275.5 100.3H275.4C275.3 100.3 275.2 100.2 275.1 100.2C275 100.2 274.9 100.3 274.8 100.3H274.7C274.633 100.3 274.6 100.333 274.6 100.4V105.5C274.6 105.8 274.5 106.2 274.4 106.4C274.3 106.7 274.2 106.9 274 107.1C273.9 107.3 273.6 107.4 273.4 107.5C273.2 107.6 272.9 107.7 272.6 107.7C272.2 107.7 272 107.6 271.7 107.5C271.5 107.4 271.3 107.3 271.1 107.1C270.9 106.9 270.8 106.7 270.7 106.4C270.6 106.1 270.5 105.8 270.5 105.4V100.5C270.5 100.433 270.5 100.4 270.5 100.4C270.5 100.333 270.467 100.3 270.4 100.3H270.3C270.2 100.3 270.1 100.2 270 100.2C269.9 100.2 269.8 100.3 269.7 100.3H269.6C269.533 100.3 269.5 100.333 269.5 100.4V105.5C269.5 106.1 269.5 106.5 269.7 106.9C269.8 107.3 270 107.6 270.3 107.8C270.6 108.1 270.9 108.3 271.2 108.4C271.6 108.6 272 108.6 272.5 108.6C273 108.6 273.4 108.5 273.8 108.4C274.2 108.3 274.5 108.1 274.8 107.8C275.1 107.5 275.3 107.2 275.4 106.8C275.6 106.4 275.6 106 275.6 105.5V100.5ZM285.7 108.2C285.7 108.1 285.7 108 285.6 107.9L284.9 106.1C284.8 105.8 284.7 105.7 284.6 105.5C284.5 105.3 284.4 105.2 284.3 105.1C284.2 104.9 284.1 104.8 284 104.7C283.9 104.6 283.8 104.6 283.7 104.5C283.9 104.4 284.1 104.3 284.3 104.2C284.5 104.1 284.7 103.9 284.8 103.8C284.9 103.6 285.1 103.4 285.1 103.2C285.2 103 285.2 102.7 285.2 102.5C285.2 102.2 285.2 101.9 285.1 101.7C285 101.4 284.9 101.2 284.7 101C284.6 100.9 284.4 100.7 284.1 100.6C283.9 100.5 283.6 100.4 283.3 100.3C283.2 100.3 283.1 100.3 282.9 100.3C282.8 100.3 282.6 100.3 282.4 100.3H280.7C280.6 100.3 280.5 100.3 280.4 100.4C280.3 100.5 280.3 100.6 280.3 100.7V108.3C280.3 108.367 280.3 108.4 280.3 108.4C280.3 108.4 280.3 108.5 280.4 108.5H280.5C280.6 108.5 280.7 108.5 280.8 108.5C280.9 108.5 281 108.5 281.1 108.5H281.2C281.3 108.5 281.3 108.4 281.3 108.4V104.8H282.1C282.3 104.8 282.5 104.9 282.7 104.9C282.9 105 283 105.1 283.2 105.3C283.3 105.4 283.4 105.5 283.5 105.7C283.6 105.9 283.7 106.1 283.8 106.3L284.5 108.3C284.6 108.3 284.6 108.4 284.6 108.4L284.7 108.5C284.767 108.5 284.833 108.5 284.9 108.5C284.9 108.5 285 108.5 285.1 108.5C285.3 108.5 285.4 108.5 285.5 108.5H285.6C285.7 108.5 285.7 108.4 285.7 108.4V108.2V108.2ZM284 103.1C283.9 103.3 283.8 103.4 283.7 103.6C283.5 103.7 283.4 103.8 283.2 103.9C282.9 103.9 282.7 104 282.4 104H281.3V101.2H282.3C282.5 101.2 282.7 101.2 282.8 101.2C282.9 101.2 283 101.2 283.2 101.3C283.5 101.4 283.7 101.5 283.9 101.8C284 102 284.1 102.2 284.1 102.6C284.1 102.8 284.1 103 284 103.1V103.1ZM294.3 107.8V107.7L294.2 107.6H294.1H290.9V104.7H293.6L293.7 104.6H293.8C293.8 104.533 293.8 104.467 293.8 104.4C293.8 104.4 293.8 104.3 293.8 104.2C293.8 104.133 293.8 104.067 293.8 104V103.9C293.8 103.8 293.7 103.8 293.7 103.8H293.6H290.9V101.2H294.2V101.1L294.3 101C294.3 100.9 294.3 100.8 294.3 100.8C294.3 100.7 294.3 100.6 294.3 100.5L294.2 100.4V100.3C294.133 100.3 294.1 100.3 294.1 100.3H290.2C290.1 100.3 290 100.3 289.9 100.4C289.8 100.5 289.8 100.6 289.8 100.7V108C289.8 108.2 289.8 108.3 289.9 108.4C290 108.5 290.1 108.5 290.2 108.5H294.1H294.2L294.3 108.4C294.3 108.333 294.3 108.267 294.3 108.2C294.3 108.2 294.3 108.1 294.3 108C294.3 108 294.3 107.9 294.3 107.8V107.8Z" fill="#636466"/>
<path d="M96 88C96 88 96 87.9 96 87.8C96 87.8 95.9 87.8 95.9 87.7H95.8H92.8V85.4H95.3C95.3667 85.4 95.4 85.4 95.4 85.4C95.4667 85.3333 95.5 85.2667 95.5 85.2C95.5 85.2 95.5 85.1 95.6 85.1C95.6 85 95.6 84.9 95.6 84.8C95.6 84.6 95.6 84.5 95.6 84.4C95.5 84.4 95.5 84.3 95.5 84.3C95.5 84.2333 95.4667 84.1667 95.4 84.1H92.8V82.1H95.9C95.9 82.0334 95.9333 82 96 82C96 81.9 96 81.8 96 81.8C96 81.7 96 81.6 96 81.5C96 81.3 96 81.2 96 81.1C96 81.1 96 81 96 80.9C95.9333 80.9 95.9 80.8667 95.9 80.8C95.8333 80.8 95.8 80.8 95.8 80.8H91.7C91.5 80.8 91.4 80.8 91.3 80.9C91.2 81 91.2 81.1 91.2 81.3V88.5C91.2 88.7 91.2 88.8 91.3 88.9C91.4 89 91.5 89 91.7 89H95.8H95.9C95.9 88.9 96 88.9 96 88.9C96 88.8 96 88.7 96 88.7C96 88.6 96 88.5 96 88.4C96 88.2 96 88.1 96 88ZM106.2 81C106.2 81 106.2 80.9 106.1 80.9L106 80.8C105.9 80.8 105.8 80.8 105.7 80.8C105.6 80.8 105.5 80.8 105.3 80.8C105.2 80.8 105.1 80.8 104.9 80.8C104.8 80.8 104.7 80.8 104.7 80.8C104.633 80.8667 104.6 80.9 104.6 80.9C104.5 80.9 104.5 81 104.5 81V86C104.5 86.3 104.5 86.5 104.4 86.7C104.3 87 104.2 87.2 104.1 87.3C103.9 87.5 103.7 87.6 103.5 87.7C103.3 87.7 103.1 87.8 102.8 87.8C102.6 87.8 102.3 87.7 102.1 87.7C101.9 87.6 101.7 87.5 101.6 87.3C101.4 87.2 101.3 87 101.2 86.7C101.2 86.5 101.1 86.2 101.1 85.9V81V80.9C101.1 80.9 101 80.9 101 80.8C100.9 80.8 100.8 80.8 100.7 80.8C100.6 80.8 100.5 80.8 100.3 80.8C100.1 80.8 100 80.8 99.9 80.8C99.8 80.8 99.7 80.8 99.6 80.8C99.6 80.9 99.5 80.9 99.5 80.9V81V86C99.5 86.5 99.5 87 99.7 87.4C99.8 87.8 100.1 88.1 100.3 88.4C100.6 88.6 101 88.8 101.4 89C101.8 89.1 102.2 89.2 102.8 89.2C103.3 89.2 103.8 89.1 104.2 88.9C104.6 88.8 105 88.6 105.3 88.3C105.6 88 105.8 87.7 105.9 87.3C106.1 86.9 106.2 86.5 106.2 86V81ZM115.9 88.6C115.9 88.5 115.9 88.4 115.8 88.3L115.1 86.6C115 86.5 115 86.3 114.9 86.1C114.8 86 114.7 85.8 114.6 85.7C114.5 85.6 114.4 85.5 114.3 85.4C114.2 85.3 114.1 85.2 114 85.2C114.2 85.1 114.4 85 114.6 84.9C114.8 84.7 115 84.6 115.1 84.4C115.3 84.2 115.4 84 115.5 83.8C115.5 83.6 115.6 83.3 115.6 83.1C115.6 82.7 115.5 82.4 115.4 82.2C115.3 81.9 115.2 81.7 115 81.5C114.8 81.3 114.6 81.2 114.3 81.1C114.1 81 113.8 80.9 113.4 80.8C113.3 80.8 113.2 80.8 113 80.8C112.9 80.8 112.7 80.8 112.5 80.8H110.4C110.2 80.8 110.1 80.8 110 80.9C109.9 81 109.9 81.1 109.9 81.3V88.8V88.9C110 88.9 110 89 110.1 89C110.1 89 110.2 89 110.3 89C110.4 89 110.6 89 110.7 89C110.9 89 111 89 111.1 89C111.2 89 111.3 89 111.4 89L111.5 88.9L111.6 88.8V85.7H112.1C112.3 85.7 112.4 85.7 112.6 85.7C112.7 85.8 112.8 85.9 112.9 86C113 86.1 113.1 86.2 113.2 86.4C113.3 86.5 113.4 86.7 113.5 86.9L114.2 88.8C114.2 88.8 114.2 88.9 114.3 88.9C114.3 88.9 114.3 89 114.4 89C114.4 89 114.5 89 114.6 89C114.7 89 114.9 89 115.1 89C115.3 89 115.4 89 115.6 89C115.7 89 115.8 89 115.8 89C115.9 89 115.9 88.9 116 88.9V88.8C116 88.7333 115.967 88.6667 115.9 88.6V88.6ZM113.7 83.7C113.7 83.8 113.6 84 113.5 84.1C113.4 84.2 113.2 84.3 113 84.3C112.9 84.4 112.6 84.4 112.4 84.4H111.6V82.1H112.3C112.5 82.1 112.6 82.1 112.8 82.1C112.9 82.1 113 82.1 113 82.1C113.3 82.2 113.5 82.4 113.6 82.5C113.8 82.7 113.8 83 113.8 83.2C113.8 83.4 113.8 83.6 113.7 83.7V83.7ZM126.2 83C126 82.4 125.8 82 125.4 81.7C125.1 81.3 124.7 81.1 124.2 80.9C123.8 80.7 123.2 80.7 122.6 80.7C121.9 80.7 121.4 80.8 120.9 81C120.4 81.2 120 81.4 119.6 81.8C119.3 82.2 119.1 82.6 118.9 83.2C118.7 83.7 118.6 84.3 118.6 85C118.6 85.7 118.7 86.3 118.9 86.8C119 87.4 119.3 87.8 119.6 88.1C119.9 88.5 120.3 88.7 120.8 88.9C121.3 89.1 121.8 89.2 122.5 89.2C123.1 89.2 123.7 89.1 124.2 88.9C124.7 88.7 125.1 88.4 125.4 88C125.7 87.6 126 87.2 126.2 86.6C126.3 86.1 126.4 85.5 126.4 84.8C126.4 84.1 126.3 83.5 126.2 83V83ZM124.6 86C124.5 86.4 124.4 86.7 124.2 86.9C124 87.2 123.8 87.4 123.5 87.5C123.3 87.7 122.9 87.8 122.5 87.8C122.1 87.8 121.7 87.7 121.5 87.6C121.2 87.4 121 87.2 120.8 87C120.7 86.7 120.6 86.4 120.5 86.1C120.4 85.7 120.4 85.3 120.4 84.9C120.4 84.5 120.4 84.1 120.5 83.8C120.6 83.4 120.7 83.1 120.9 82.9C121 82.6 121.2 82.4 121.5 82.3C121.8 82.1 122.1 82 122.5 82C123 82 123.3 82.1 123.6 82.2C123.8 82.4 124 82.6 124.2 82.8C124.4 83.1 124.5 83.4 124.6 83.7C124.6 84.1 124.7 84.5 124.7 84.9C124.7 85.3 124.6 85.7 124.6 86V86ZM135.2 82.4C135.1 82.1 135 81.9 134.8 81.7C134.7 81.5 134.4 81.3 134.2 81.2C133.9 81.1 133.7 81 133.4 80.9C133.2 80.9 133 80.8 132.8 80.8C132.6 80.8 132.4 80.8 132.3 80.8H130.3C130.2 80.8 130 80.9 129.9 80.9C129.8 81.1 129.8 81.2 129.8 81.4V88.8V88.9L129.9 89C130 89 130.1 89 130.2 89C130.3 89 130.4 89 130.6 89C130.8 89 130.9 89 131 89C131.1 89 131.2 89 131.2 89C131.3 89 131.4 88.9 131.4 88.9V88.8V86.2H132.1C132.6 86.2 133.1 86.1 133.5 86C133.9 85.8 134.3 85.7 134.5 85.4C134.8 85.2 135 84.9 135.2 84.5C135.3 84.2 135.4 83.8 135.4 83.3C135.4 83 135.3 82.7 135.2 82.4V82.4ZM133.5 84C133.5 84.2 133.4 84.3 133.3 84.5C133.2 84.6 133 84.7 132.8 84.8C132.7 84.8 132.4 84.9 132.2 84.9H131.4V82.1H132.1C132.3 82.1 132.5 82.1 132.6 82.1C132.8 82.1 133 82.2 133.1 82.3C133.3 82.4 133.4 82.5 133.5 82.7C133.6 82.9 133.6 83.1 133.6 83.4C133.6 83.6 133.6 83.8 133.5 84V84ZM143.5 88C143.5 88 143.4 87.9 143.4 87.8L143.3 87.7H140.3V85.4H142.9C142.9 85.3333 142.9 85.2667 142.9 85.2C143 85.2 143 85.1 143 85.1C143 85 143 84.9 143 84.8C143 84.6 143 84.5 143 84.4C143 84.4 143 84.3 142.9 84.3C142.9 84.2333 142.9 84.1667 142.9 84.1C142.833 84.1 142.8 84.1 142.8 84.1H140.3V82.1H143.2H143.3C143.3 82 143.4 82 143.4 82C143.4 81.9 143.4 81.8 143.4 81.8C143.4 81.7 143.4 81.6 143.4 81.5C143.4 81.3 143.4 81.2 143.4 81.1C143.4 81.1 143.4 81 143.4 80.9C143.4 80.9 143.3 80.9 143.3 80.8H143.2H139.1C139 80.8 138.9 80.8 138.8 80.9C138.7 81 138.6 81.1 138.6 81.3V88.5C138.6 88.7 138.7 88.8 138.8 88.9C138.9 89 139 89 139.1 89H143.2C143.267 89 143.3 89 143.3 89C143.367 88.9333 143.4 88.9 143.4 88.9C143.4 88.8 143.5 88.7 143.5 88.7C143.5 88.6 143.5 88.5 143.5 88.4C143.5 88.2 143.5 88.1 143.5 88ZM150.9 81.1C150.9 81.0334 150.867 80.9667 150.8 80.9L150.7 80.8C150.6 80.8 150.5 80.8 150.3 80.8C150.2 80.8 150 80.8 149.7 80.8C149.5 80.8 149.3 80.8 149.2 80.8C149.1 80.8 149 80.8 148.9 80.8C148.8 80.8 148.8 80.9 148.7 80.9C148.7 80.9667 148.667 81.0334 148.6 81.1L146.1 88.4C146.1 88.5 146 88.6 146 88.7C146 88.8 146 88.9 146.1 88.9C146.1 89 146.2 89 146.3 89C146.4 89 146.5 89 146.7 89C146.9 89 147.1 89 147.2 89C147.3 89 147.4 89 147.4 89C147.5 89 147.5 88.9 147.6 88.9C147.6 88.8333 147.6 88.7667 147.6 88.7L148.2 87.1H151.2L151.8 88.8C151.8 88.8 151.8 88.9 151.9 88.9C151.9 88.9667 151.933 89 152 89C152.067 89 152.167 89 152.3 89C152.4 89 152.6 89 152.8 89C153 89 153.1 89 153.3 89C153.4 89 153.5 89 153.5 88.9C153.6 88.9 153.6 88.8 153.6 88.7C153.5 88.7 153.5 88.5 153.5 88.4L150.9 81.1ZM150.9 85.9H148.5L149.7 82.4L150.9 85.9ZM163.3 81V80.9C163.3 80.9 163.2 80.9 163.2 80.8C163.1 80.8 163 80.8 163 80.8C162.9 80.8 162.7 80.8 162.6 80.8C162.4 80.8 162.3 80.8 162.2 80.8C162.1 80.8 162 80.8 162 80.8C161.933 80.8667 161.9 80.9 161.9 80.9C161.833 80.9667 161.8 81 161.8 81V84.9C161.8 85.2 161.8 85.5 161.8 85.8C161.8 86.1 161.8 86.4 161.9 86.7C161.8 86.6 161.7 86.4 161.6 86.2C161.5 86.1 161.5 85.9 161.4 85.7C161.3 85.5 161.2 85.4 161.1 85.2C161 85 160.9 84.8 160.8 84.7L159.2 81.7C159.2 81.5 159.1 81.4 159 81.2C158.9 81.1 158.8 81 158.8 81C158.7 80.9 158.6 80.9 158.5 80.8C158.3 80.8 158.2 80.8 158.1 80.8H157.2C157 80.8 156.8 80.9 156.7 80.9C156.6 81.1 156.6 81.2 156.6 81.4V88.8V88.9L156.7 89C156.767 89 156.833 89 156.9 89C157 89 157.2 89 157.3 89C157.4 89 157.6 89 157.7 89C157.767 89 157.833 89 157.9 89C157.967 88.9333 158 88.9 158 88.9L158.1 88.8V84.5C158.1 84.2 158.1 83.8 158 83.5C158 83.2 158 82.9 158 82.6C158.1 82.9 158.2 83.1 158.4 83.4C158.5 83.7 158.6 83.9 158.7 84.1L160.8 88C160.9 88.2 161 88.4 161 88.5C161.1 88.6 161.2 88.7 161.3 88.8C161.4 88.9 161.5 88.9 161.6 89C161.7 89 161.8 89 162 89H162.7C162.8 89 162.9 89 162.9 89C163 89 163.1 88.9 163.1 88.9C163.167 88.8333 163.233 88.7667 163.3 88.7C163.3 88.6 163.3 88.5 163.3 88.4V81ZM176.7 85.7C176.6 85.4 176.4 85.2 176.3 85.1C176.1 84.9 175.9 84.7 175.7 84.6C175.5 84.5 175.3 84.3 175 84.2C174.8 84.1 174.6 84 174.4 84C174.2 83.9 174 83.8 173.8 83.7C173.7 83.6 173.5 83.4 173.4 83.3C173.3 83.2 173.3 83 173.3 82.8C173.3 82.7 173.3 82.6 173.3 82.5C173.4 82.4 173.5 82.3 173.5 82.2C173.6 82.1 173.8 82.1 173.9 82C174 82 174.2 82 174.4 82C174.6 82 174.8 82 175 82C175.2 82.1 175.4 82.2 175.5 82.2C175.7 82.3 175.8 82.4 175.9 82.4C176 82.5 176.1 82.5 176.1 82.5C176.167 82.5 176.2 82.5 176.2 82.5C176.3 82.5 176.3 82.4 176.3 82.4C176.3 82.3 176.3 82.2 176.3 82.1C176.3 82.1 176.3 82 176.3 81.8C176.3 81.7 176.3 81.6 176.3 81.6C176.3 81.5 176.3 81.4 176.3 81.4C176.3 81.3333 176.3 81.3 176.3 81.3C176.233 81.2334 176.2 81.1667 176.2 81.1C176.1 81.1 176 81.1 175.9 81C175.8 80.9 175.6 80.9 175.5 80.8C175.3 80.8 175.1 80.7 174.9 80.7C174.7 80.7 174.5 80.7 174.3 80.7C174 80.7 173.6 80.7 173.3 80.8C172.9 80.9 172.6 81 172.4 81.2C172.1 81.4 172 81.7 171.8 82C171.7 82.3 171.6 82.6 171.6 83C171.6 83.4 171.6 83.7 171.7 83.9C171.8 84.1 172 84.4 172.1 84.5C172.3 84.7 172.5 84.9 172.7 85C172.9 85.1 173.1 85.2 173.3 85.3C173.5 85.4 173.8 85.5 174 85.6C174.2 85.7 174.4 85.8 174.5 85.9C174.7 86 174.8 86.2 174.9 86.3C175 86.4 175.1 86.6 175.1 86.8C175.1 86.9 175 87.1 175 87.2C174.9 87.3 174.8 87.4 174.7 87.5C174.6 87.6 174.5 87.7 174.3 87.7C174.2 87.8 174 87.8 173.8 87.8C173.5 87.8 173.2 87.8 173 87.7C172.7 87.6 172.5 87.6 172.4 87.5C172.2 87.4 172 87.3 171.9 87.2C171.8 87.2 171.7 87.1 171.7 87.1C171.633 87.1 171.6 87.1334 171.6 87.2C171.533 87.2 171.5 87.2333 171.5 87.3C171.5 87.3 171.5 87.4 171.5 87.5C171.5 87.6 171.4 87.7 171.4 87.8C171.4 88 171.5 88.2 171.5 88.3C171.5 88.4 171.5 88.5 171.6 88.5C171.667 88.5667 171.767 88.6334 171.9 88.7C172 88.8 172.1 88.8 172.3 88.9C172.5 89 172.7 89 173 89.1C173.2 89.1 173.5 89.2 173.8 89.2C174.2 89.2 174.6 89.1 174.9 89C175.3 88.9 175.6 88.7 175.9 88.5C176.2 88.3 176.4 88 176.6 87.7C176.7 87.4 176.8 87 176.8 86.5C176.8 86.2 176.8 85.9 176.7 85.7V85.7ZM187.2 83C187 82.4 186.8 82 186.4 81.7C186.1 81.3 185.7 81.1 185.2 80.9C184.8 80.7 184.2 80.7 183.6 80.7C183 80.7 182.4 80.8 181.9 81C181.4 81.2 181 81.4 180.6 81.8C180.3 82.2 180.1 82.6 179.9 83.2C179.7 83.7 179.6 84.3 179.6 85C179.6 85.7 179.7 86.3 179.9 86.8C180 87.4 180.3 87.8 180.6 88.1C180.9 88.5 181.3 88.7 181.8 88.9C182.3 89.1 182.8 89.2 183.5 89.2C184.1 89.2 184.7 89.1 185.2 88.9C185.7 88.7 186.1 88.4 186.4 88C186.7 87.6 187 87.2 187.2 86.6C187.3 86.1 187.4 85.5 187.4 84.8C187.4 84.1 187.3 83.5 187.2 83V83ZM185.6 86C185.5 86.4 185.4 86.7 185.2 86.9C185 87.2 184.8 87.4 184.5 87.5C184.3 87.7 183.9 87.8 183.5 87.8C183.1 87.8 182.8 87.7 182.5 87.6C182.2 87.4 182 87.2 181.8 87C181.7 86.7 181.6 86.4 181.5 86.1C181.4 85.7 181.4 85.3 181.4 84.9C181.4 84.5 181.4 84.1 181.5 83.8C181.6 83.4 181.7 83.1 181.9 82.9C182 82.6 182.2 82.4 182.5 82.3C182.8 82.1 183.1 82 183.5 82C184 82 184.3 82.1 184.6 82.2C184.8 82.4 185.1 82.6 185.2 82.8C185.4 83.1 185.5 83.4 185.6 83.7C185.6 84.1 185.7 84.5 185.7 84.9C185.7 85.3 185.6 85.7 185.6 86V86ZM196.4 87.4C196.4 87.3 196.4 87.2 196.4 87.2C196.4 87.1 196.3 87.1 196.3 87.1H196.2C196.2 87.1 196.1 87.1 196 87.2C195.9 87.2 195.8 87.3 195.6 87.4C195.4 87.5 195.3 87.5 195.1 87.6C194.8 87.7 194.6 87.7 194.3 87.7C194 87.7 193.7 87.7 193.4 87.6C193.1 87.4 192.9 87.3 192.7 87C192.6 86.8 192.4 86.5 192.3 86.2C192.2 85.8 192.2 85.4 192.2 84.9C192.2 84.5 192.2 84.1 192.3 83.7C192.4 83.4 192.5 83.1 192.7 82.8C192.9 82.6 193.1 82.4 193.4 82.3C193.6 82.1 193.9 82.1 194.2 82.1C194.5 82.1 194.8 82.1 195 82.2C195.2 82.3 195.4 82.3 195.6 82.4C195.7 82.5 195.8 82.6 195.9 82.7C196 82.7 196.1 82.8 196.2 82.8L196.3 82.7L196.4 82.6C196.4 82.6 196.4 82.5 196.4 82.4C196.4 82.3 196.4 82.2 196.4 82.1C196.4 82 196.4 81.9 196.4 81.8C196.4 81.7 196.4 81.6 196.4 81.6C196.4 81.5 196.3 81.5 196.3 81.4C196.3 81.4 196.3 81.3 196.2 81.3C196.1 81.2 196 81.2 195.9 81.1C195.8 81 195.6 80.9 195.4 80.9C195.2 80.8 195 80.8 194.8 80.7C194.6 80.7 194.4 80.7 194.2 80.7C193.6 80.7 193.1 80.8 192.6 81C192.2 81.1 191.8 81.4 191.4 81.8C191.1 82.2 190.8 82.6 190.6 83.2C190.5 83.7 190.4 84.3 190.4 85C190.4 85.7 190.4 86.3 190.6 86.8C190.8 87.3 191 87.8 191.3 88.1C191.7 88.4 192.1 88.7 192.5 88.9C193 89.1 193.5 89.1 194 89.1C194.3 89.1 194.6 89.1 194.8 89.1C195.1 89 195.3 89 195.5 88.9C195.7 88.8 195.8 88.8 196 88.7C196.1 88.6 196.2 88.5 196.2 88.5C196.267 88.4333 196.3 88.4 196.3 88.4C196.367 88.3333 196.4 88.2667 196.4 88.2C196.4 88.2 196.4 88.1 196.4 88C196.4 88 196.4 87.9 196.4 87.8C196.4 87.6 196.4 87.5 196.4 87.4V87.4ZM201.3 81L201.2 80.9C201.2 80.9 201.1 80.9 201.1 80.8C201 80.8 200.9 80.8 200.8 80.8C200.7 80.8 200.6 80.8 200.4 80.8C200.3 80.8 200.1 80.8 200 80.8C199.9 80.8 199.8 80.8 199.8 80.8C199.7 80.9 199.6 80.9 199.6 80.9V81V88.8V88.9C199.6 88.9 199.7 89 199.8 89C199.8 89 199.9 89 200 89C200.1 89 200.3 89 200.4 89C200.6 89 200.7 89 200.8 89C200.9 89 201 89 201.1 89L201.2 88.9L201.3 88.8V81ZM209.2 81.1C209.133 81.0334 209.1 80.9667 209.1 80.9C209 80.9 209 80.8 208.9 80.8C208.8 80.8 208.7 80.8 208.6 80.8C208.4 80.8 208.2 80.8 208 80.8C207.7 80.8 207.6 80.8 207.4 80.8C207.3 80.8 207.2 80.8 207.1 80.8L207 80.9C206.933 80.9667 206.9 81.0334 206.9 81.1L204.4 88.4C204.3 88.5 204.3 88.6 204.3 88.7C204.2 88.8 204.3 88.9 204.3 88.9C204.3 89 204.4 89 204.5 89C204.6 89 204.8 89 205 89C205.2 89 205.3 89 205.4 89C205.5 89 205.6 89 205.7 89L205.8 88.9C205.8 88.8 205.9 88.8 205.9 88.7L206.4 87.1H209.5L210 88.8C210.1 88.8 210.1 88.9 210.1 88.9C210.1 89 210.2 89 210.2 89C210.3 89 210.4 89 210.5 89C210.6 89 210.8 89 211 89C211.2 89 211.4 89 211.5 89C211.6 89 211.7 89 211.8 88.9C211.8 88.9 211.8 88.8 211.8 88.7C211.8 88.7 211.8 88.5 211.7 88.4L209.2 81.1ZM209.1 85.9H206.8L207.9 82.4L209.1 85.9ZM219.3 88C219.3 87.9 219.3 87.8 219.3 87.8C219.233 87.7333 219.2 87.7 219.2 87.7C219.133 87.6334 219.1 87.6 219.1 87.6H216.5V81C216.5 81 216.5 80.9 216.4 80.9L216.3 80.8C216.233 80.8 216.167 80.8 216.1 80.8C215.9 80.8 215.8 80.8 215.6 80.8C215.5 80.8 215.3 80.8 215.2 80.8C215.1 80.8 215 80.8 215 80.8C214.933 80.8667 214.867 80.9 214.8 80.9V81V88.5C214.8 88.7 214.9 88.8 214.9 88.9C215 89 215.2 89 215.3 89H219.2C219.2 88.9333 219.233 88.8667 219.3 88.8C219.3 88.8 219.3 88.7 219.3 88.6C219.3 88.5 219.3 88.4 219.3 88.3C219.3 88.2 219.3 88.1 219.3 88V88ZM231.7 81.2C231.7 81.1 231.7 81 231.7 80.9C231.633 80.9 231.6 80.8667 231.6 80.8H231.5H227.6C227.5 80.8 227.4 80.8 227.3 80.9C227.2 81 227.1 81.1 227.1 81.3V88.8C227.1 88.8 227.1 88.9 227.2 88.9L227.3 89C227.4 89 227.5 89 227.6 89C227.7 89 227.8 89 228 89C228.1 89 228.3 89 228.4 89C228.5 89 228.6 89 228.6 89C228.667 88.9333 228.733 88.9 228.8 88.9V88.8V85.7H231.3C231.367 85.7 231.4 85.7 231.4 85.7C231.5 85.7 231.5 85.6 231.5 85.6C231.5 85.5 231.5 85.4 231.6 85.3C231.6 85.3 231.6 85.2 231.6 85C231.6 84.9 231.6 84.8 231.6 84.7C231.533 84.6334 231.5 84.5667 231.5 84.5C231.5 84.5 231.5 84.4 231.4 84.4H228.8V82.2H231.5C231.5 82.2 231.6 82.2 231.6 82.1L231.7 82C231.7 82 231.7 81.9 231.7 81.8C231.7 81.7 231.7 81.6 231.7 81.5C231.7 81.4 231.7 81.3 231.7 81.2V81.2ZM241.7 81V80.9C241.7 80.9 241.6 80.9 241.6 80.8C241.5 80.8 241.4 80.8 241.3 80.8C241.2 80.8 241.1 80.8 240.9 80.8C240.8 80.8 240.6 80.8 240.5 80.8C240.4 80.8 240.3 80.8 240.3 80.8C240.2 80.9 240.1 80.9 240.1 80.9V81V86C240.1 86.3 240 86.5 240 86.7C239.9 87 239.8 87.2 239.6 87.3C239.5 87.5 239.3 87.6 239.1 87.7C238.9 87.7 238.7 87.8 238.4 87.8C238.1 87.8 237.9 87.7 237.7 87.7C237.5 87.6 237.3 87.5 237.2 87.3C237 87.2 236.9 87 236.8 86.7C236.7 86.5 236.7 86.2 236.7 85.9V81V80.9C236.633 80.9 236.567 80.8667 236.5 80.8C236.5 80.8 236.4 80.8 236.3 80.8C236.2 80.8 236 80.8 235.9 80.8C235.7 80.8 235.6 80.8 235.5 80.8C235.4 80.8 235.3 80.8 235.2 80.8C235.133 80.8667 235.1 80.9 235.1 80.9C235 80.9 235 81 235 81V86C235 86.5 235.1 87 235.3 87.4C235.4 87.8 235.6 88.1 235.9 88.4C236.2 88.6 236.5 88.8 236.9 89C237.4 89.1 237.8 89.2 238.3 89.2C238.9 89.2 239.4 89.1 239.8 88.9C240.2 88.8 240.6 88.6 240.9 88.3C241.1 88 241.4 87.7 241.5 87.3C241.7 86.9 241.7 86.5 241.7 86V81ZM252.2 81V80.9C252.2 80.9 252.1 80.9 252.1 80.8C252.033 80.8 251.967 80.8 251.9 80.8C251.8 80.8 251.6 80.8 251.5 80.8C251.3 80.8 251.2 80.8 251.1 80.8C251.033 80.8 250.967 80.8 250.9 80.8C250.833 80.8667 250.8 80.9 250.8 80.9C250.733 80.9667 250.7 81 250.7 81V84.9C250.7 85.2 250.7 85.5 250.7 85.8C250.7 86.1 250.8 86.4 250.8 86.7C250.7 86.6 250.6 86.4 250.5 86.2C250.4 86.1 250.4 85.9 250.3 85.7C250.2 85.5 250.1 85.4 250 85.2C249.9 85 249.8 84.8 249.7 84.7L248.1 81.7C248.1 81.5 248 81.4 247.9 81.2C247.8 81.1 247.7 81 247.7 81C247.6 80.9 247.5 80.9 247.4 80.8C247.3 80.8 247.1 80.8 247 80.8H246.1C245.9 80.8 245.8 80.9 245.6 80.9C245.5 81.1 245.5 81.2 245.5 81.4V88.8V88.9C245.5 88.9 245.6 88.9 245.6 89C245.667 89 245.733 89 245.8 89C245.9 89 246.1 89 246.2 89C246.4 89 246.5 89 246.6 89C246.7 89 246.8 89 246.8 89C246.867 88.9333 246.9 88.9 246.9 88.9C247 88.9 247 88.8 247 88.8V84.5C247 84.2 247 83.8 247 83.5C246.9 83.2 246.9 82.9 246.9 82.6C247 82.9 247.1 83.1 247.3 83.4C247.4 83.7 247.5 83.9 247.6 84.1L249.7 88C249.8 88.2 249.9 88.4 249.9 88.5C250 88.6 250.1 88.7 250.2 88.8C250.3 88.9 250.4 88.9 250.5 89C250.6 89 250.7 89 250.9 89H251.6C251.7 89 251.8 89 251.8 89C251.9 89 252 88.9 252 88.9C252.067 88.8333 252.133 88.7667 252.2 88.7C252.2 88.6 252.2 88.5 252.2 88.4V81ZM262.5 83.1C262.3 82.6 262.1 82.2 261.7 81.8C261.4 81.5 260.9 81.2 260.4 81.1C259.9 80.9 259.3 80.8 258.6 80.8H256.5C256.3 80.8 256.2 80.8 256.1 80.9C256 81 256 81.1 256 81.3V88.5C256 88.7 256 88.8 256.1 88.9C256.2 89 256.3 89 256.5 89H258.4C259.1 89 259.8 88.9 260.3 88.8C260.8 88.6 261.3 88.4 261.6 88C262 87.7 262.3 87.2 262.5 86.7C262.7 86.2 262.8 85.5 262.8 84.8C262.8 84.1 262.7 83.6 262.5 83.1V83.1ZM260.9 86.1C260.8 86.4 260.6 86.7 260.4 87C260.2 87.2 260 87.4 259.6 87.5C259.3 87.6 259 87.7 258.5 87.7H257.6V82.1H258.5C259 82.1 259.4 82.2 259.7 82.3C260 82.5 260.3 82.6 260.5 82.9C260.7 83.1 260.8 83.4 260.9 83.8C261 84.1 261.1 84.4 261.1 84.8C261.1 85.3 261 85.7 260.9 86.1V86.1Z" fill="#636466"/>
<path d="M98 72.5C98 72.4 98 72.3 97.9 72.2C97.9 72.1333 97.8667 72.1 97.8 72.1C97.8 72 97.7 72 97.7 72H93.5V68.7H97C97.0667 68.7 97.1 68.7 97.1 68.7C97.2 68.7 97.2 68.6 97.3 68.5C97.3 68.5 97.3 68.4 97.3 68.3C97.3 68.2 97.3 68 97.3 67.8C97.3 67.7 97.3 67.5 97.3 67.4C97.3 67.3 97.3 67.2 97.3 67.1C97.2 67.1 97.2 67 97.1 67C97.1 67 97.1 66.9 97 66.9H93.5V64.1H97.6C97.6667 64.1 97.7333 64.1 97.8 64.1C97.8 64 97.9 64 97.9 63.9C97.9 63.8 97.9 63.7 97.9 63.6C98 63.5 98 63.4 98 63.2C98 63 98 62.9 97.9 62.8C97.9 62.6 97.9 62.5 97.9 62.5C97.9 62.4 97.8 62.3 97.8 62.3C97.7333 62.3 97.6667 62.3 97.6 62.3H91.9C91.7 62.3 91.5 62.3 91.4 62.4C91.2 62.6 91.2 62.7 91.2 63V73.1C91.2 73.4 91.2 73.6 91.4 73.7C91.5 73.8 91.7 73.9 91.9 73.9H97.7L97.8 73.8C97.9 73.8 97.9 73.7 97.9 73.6C98 73.6 98 73.5 98 73.4C98 73.2 98 73.1 98 72.9C98 72.8 98 72.6 98 72.5V72.5ZM112.3 62.6C112.3 62.5333 112.267 62.4666 112.2 62.4L112.1 62.3C112 62.3 111.8 62.3 111.7 62.2C111.6 62.2 111.4 62.2 111.1 62.2C110.9 62.2 110.7 62.2 110.6 62.2C110.4 62.3 110.3 62.3 110.2 62.3C110.1 62.3 110.1 62.4 110 62.4C110 62.4666 110 62.5333 110 62.6V69.6C110 70 109.9 70.3 109.8 70.6C109.7 71 109.5 71.2 109.3 71.5C109.1 71.7 108.9 71.8 108.6 72C108.3 72.1 108 72.1 107.6 72.1C107.2 72.1 106.9 72.1 106.6 72C106.3 71.8 106.1 71.7 105.8 71.5C105.6 71.2 105.5 71 105.4 70.6C105.2 70.3 105.2 69.9 105.2 69.4V62.6C105.2 62.5333 105.167 62.4666 105.1 62.4C105.1 62.4 105 62.3 104.9 62.3C104.8 62.3 104.7 62.3 104.6 62.2C104.4 62.2 104.2 62.2 104 62.2C103.8 62.2 103.6 62.2 103.4 62.2C103.3 62.3 103.2 62.3 103.1 62.3C103 62.3 102.9 62.4 102.9 62.4C102.9 62.5 102.8 62.5 102.8 62.6V69.6C102.8 70.4 102.9 71 103.2 71.6C103.4 72.1 103.7 72.6 104.1 73C104.5 73.3 105 73.6 105.5 73.8C106.1 74 106.8 74.1 107.5 74.1C108.3 74.1 109 74 109.6 73.7C110.2 73.5 110.7 73.3 111.1 72.9C111.5 72.5 111.8 72 112 71.4C112.2 70.9 112.3 70.2 112.3 69.5V62.6ZM126.1 73.3C126.1 73.2 126 73 125.9 72.8L125 70.5C124.8 70.2 124.7 70 124.6 69.8C124.5 69.6 124.4 69.4 124.2 69.2C124.1 69 124 68.9 123.8 68.8C123.6 68.6 123.5 68.5 123.3 68.5C123.7 68.3 124 68.2 124.3 68C124.5 67.8 124.8 67.6 125 67.4C125.2 67.1 125.3 66.8 125.4 66.5C125.5 66.2 125.6 65.8 125.6 65.4C125.6 65 125.5 64.6 125.4 64.2C125.2 63.9 125 63.6 124.8 63.3C124.5 63 124.2 62.8 123.8 62.7C123.4 62.5 123 62.4 122.5 62.3C122.4 62.3 122.2 62.3 122 62.3C121.8 62.3 121.6 62.3 121.3 62.3H118.3C118.1 62.3 117.9 62.3 117.8 62.4C117.6 62.6 117.6 62.7 117.6 63V73.5C117.6 73.5666 117.6 73.6333 117.6 73.7C117.7 73.7 117.7 73.8 117.8 73.8C117.9 73.8 118 73.9 118.2 73.9C118.3 73.9 118.5 73.9 118.7 73.9C119 73.9 119.2 73.9 119.3 73.9C119.5 73.9 119.6 73.8 119.7 73.8C119.8 73.8 119.8 73.7 119.9 73.7C119.9 73.6333 119.9 73.5666 119.9 73.5V69.1H120.7C120.9 69.1 121.1 69.2 121.3 69.2C121.5 69.3 121.7 69.4 121.8 69.6C122 69.7 122.1 69.9 122.2 70.1C122.3 70.4 122.5 70.6 122.6 70.9L123.6 73.5C123.6 73.6 123.7 73.6 123.7 73.7C123.7 73.7 123.8 73.8 123.9 73.8C124 73.9 124.1 73.9 124.3 73.9C124.4 73.9 124.6 73.9 124.8 73.9C125.1 73.9 125.4 73.9 125.6 73.9C125.7 73.9 125.9 73.9 126 73.8C126 73.8 126.1 73.8 126.1 73.7C126.1 73.7 126.2 73.6 126.2 73.5C126.2 73.5 126.1 73.4 126.1 73.3ZM123 66.4C122.9 66.6 122.8 66.7 122.6 66.9C122.5 67 122.2 67.1 122 67.2C121.7 67.3 121.5 67.4 121.1 67.4H119.9V64.1H121C121.2 64.1 121.5 64.1 121.6 64.1C121.8 64.1 121.9 64.1 122 64.2C122.4 64.3 122.7 64.5 122.9 64.7C123 65 123.1 65.3 123.1 65.7C123.1 65.9 123.1 66.2 123 66.4V66.4ZM140.5 65.3C140.3 64.6 140 64 139.5 63.5C139.1 63 138.5 62.6 137.8 62.4C137.2 62.2 136.4 62.1 135.5 62.1C134.6 62.1 133.8 62.2 133.1 62.5C132.4 62.8 131.8 63.2 131.3 63.7C130.9 64.2 130.5 64.9 130.3 65.6C130 66.3 129.9 67.2 129.9 68.1C129.9 69.1 130 70 130.2 70.8C130.5 71.5 130.8 72.1 131.3 72.6C131.7 73.1 132.3 73.5 132.9 73.7C133.6 73.9 134.4 74.1 135.3 74.1C136.2 74.1 137 73.9 137.7 73.6C138.4 73.4 139 73 139.5 72.4C139.9 71.9 140.3 71.3 140.5 70.5C140.8 69.7 140.9 68.9 140.9 67.9C140.9 66.9 140.8 66.1 140.5 65.3V65.3ZM138.3 69.6C138.2 70.1 138 70.5 137.7 70.9C137.5 71.3 137.2 71.6 136.8 71.8C136.4 72 135.9 72.1 135.4 72.1C134.8 72.1 134.3 72 133.9 71.8C133.5 71.6 133.2 71.4 133 71C132.8 70.7 132.6 70.2 132.5 69.7C132.4 69.2 132.4 68.6 132.4 68C132.4 67.5 132.4 67 132.5 66.5C132.6 66 132.8 65.6 133 65.2C133.3 64.8 133.6 64.5 134 64.3C134.4 64.1 134.8 64 135.4 64C136 64 136.5 64.1 136.9 64.3C137.2 64.5 137.5 64.8 137.8 65.1C138 65.5 138.2 65.9 138.3 66.4C138.4 66.9 138.4 67.4 138.4 68C138.4 68.6 138.4 69.1 138.3 69.6ZM153.3 64.5C153.2 64.1 153 63.8 152.8 63.5C152.5 63.2 152.2 63 151.9 62.8C151.5 62.6 151.1 62.5 150.8 62.4C150.5 62.4 150.2 62.3 149.9 62.3C149.7 62.3 149.4 62.3 149.1 62.3H146.4C146.2 62.3 146 62.3 145.8 62.5C145.7 62.6 145.6 62.8 145.6 63.1V73.5C145.6 73.5666 145.633 73.6333 145.7 73.7L145.8 73.8C145.9 73.8 146.1 73.9 146.2 73.9C146.4 73.9 146.5 73.9 146.8 73.9C147 73.9 147.2 73.9 147.3 73.9C147.5 73.9 147.6 73.8 147.7 73.8C147.8 73.8 147.9 73.7 147.9 73.7C147.9 73.6 148 73.6 148 73.5V69.8H148.9C149.7 69.8 150.4 69.7 150.9 69.6C151.5 69.4 152 69.1 152.3 68.8C152.7 68.4 153 68 153.2 67.5C153.4 67 153.5 66.4 153.5 65.8C153.5 65.3 153.5 64.9 153.3 64.5ZM150.9 66.8C150.9 67 150.7 67.3 150.6 67.4C150.4 67.6 150.2 67.8 150 67.9C149.7 68 149.4 68 149 68H148V64.1H149C149.2 64.1 149.4 64.1 149.7 64.1C149.9 64.2 150.1 64.2 150.3 64.4C150.5 64.5 150.7 64.7 150.9 64.9C151 65.2 151.1 65.5 151.1 66C151.1 66.3 151 66.5 150.9 66.8ZM165 72.5C164.9 72.4 164.9 72.3 164.9 72.2C164.9 72.1 164.8 72.1 164.8 72.1C164.733 72.0333 164.667 72 164.6 72H160.5V68.7H164H164.1C164.1 68.7 164.2 68.6 164.2 68.5C164.2 68.5 164.3 68.4 164.3 68.3C164.3 68.2 164.3 68 164.3 67.8C164.3 67.7 164.3 67.5 164.3 67.4C164.3 67.3 164.2 67.2 164.2 67.1L164.1 67L164 66.9H160.5V64.1H164.6H164.7C164.767 64.0333 164.8 63.9666 164.8 63.9C164.9 63.8 164.9 63.7 164.9 63.6C164.9 63.5 164.9 63.4 164.9 63.2C164.9 63 164.9 62.9 164.9 62.8C164.9 62.6 164.9 62.5 164.8 62.5C164.8 62.4 164.8 62.3 164.7 62.3H164.6H158.8C158.6 62.3 158.4 62.3 158.3 62.4C158.2 62.6 158.1 62.7 158.1 63V73.1C158.1 73.4 158.2 73.6 158.3 73.7C158.4 73.8 158.6 73.9 158.8 73.9H164.6C164.7 73.9 164.7 73.8 164.8 73.8C164.8 73.8 164.9 73.7 164.9 73.6C164.9 73.6 164.9 73.5 165 73.4C165 73.2 165 73.1 165 72.9C165 72.8 165 72.6 165 72.5V72.5ZM175.5 62.7C175.5 62.6 175.4 62.5 175.4 62.4C175.3 62.4 175.2 62.3 175.1 62.3C175 62.3 174.8 62.2 174.6 62.2C174.4 62.2 174.1 62.2 173.8 62.2C173.5 62.2 173.2 62.2 173 62.2C172.9 62.2 172.7 62.3 172.6 62.3C172.5 62.3 172.4 62.4 172.4 62.4C172.3 62.5 172.3 62.6 172.3 62.7L168.7 73C168.6 73.2 168.6 73.3 168.5 73.5C168.5 73.6 168.6 73.7 168.6 73.7C168.7 73.8 168.8 73.9 168.9 73.9C169.1 73.9 169.3 73.9 169.6 73.9C169.8 73.9 170 73.9 170.2 73.9C170.4 73.9 170.5 73.9 170.6 73.8C170.7 73.8 170.7 73.7 170.8 73.7C170.8 73.6333 170.833 73.5666 170.9 73.5L171.6 71.2H175.9L176.7 73.5C176.7 73.6 176.8 73.7 176.8 73.7C176.8 73.8 176.9 73.8 177 73.8C177.1 73.9 177.2 73.9 177.4 73.9C177.6 73.9 177.8 73.9 178.1 73.9C178.4 73.9 178.6 73.9 178.8 73.9C178.9 73.9 179.1 73.8 179.1 73.8C179.2 73.7 179.2 73.6 179.2 73.5C179.2 73.4 179.1 73.2 179.1 73L175.5 62.7ZM175.4 69.4H172.1L173.7 64.5H173.8L175.4 69.4ZM193 62.6C193 62.6 193 62.5 192.9 62.5C192.9 62.4333 192.867 62.3666 192.8 62.3C192.7 62.3 192.6 62.3 192.5 62.3C192.3 62.2 192.2 62.2 192 62.2C191.7 62.2 191.6 62.2 191.4 62.3C191.3 62.3 191.2 62.3 191.1 62.3C191.033 62.3666 190.967 62.4333 190.9 62.5V62.6V68C190.9 68.5 190.9 68.9 190.9 69.3C190.9 69.8 190.9 70.2 190.9 70.7C190.8 70.4 190.7 70.2 190.6 69.9C190.5 69.7 190.4 69.5 190.2 69.2C190.1 69 190 68.7 189.9 68.5C189.7 68.2 189.6 68 189.5 67.7L187.2 63.5C187.1 63.2 187 63 186.9 62.9C186.8 62.7 186.7 62.6 186.5 62.5C186.4 62.4 186.3 62.4 186.1 62.3C186 62.3 185.8 62.3 185.6 62.3H184.3C184.1 62.3 183.8 62.3 183.7 62.5C183.5 62.6 183.4 62.8 183.4 63.1V73.5C183.4 73.6 183.5 73.6 183.5 73.7L183.6 73.8C183.7 73.8 183.8 73.9 184 73.9C184.1 73.9 184.3 73.9 184.5 73.9C184.7 73.9 184.9 73.9 185 73.9C185.2 73.9 185.3 73.8 185.3 73.8C185.4 73.8 185.5 73.7 185.5 73.7C185.5 73.6 185.6 73.6 185.6 73.5V67.5C185.6 67 185.6 66.6 185.5 66.1C185.5 65.7 185.5 65.3 185.5 64.9C185.6 65.2 185.8 65.6 186 65.9C186.1 66.3 186.3 66.7 186.5 67L189.4 72.4C189.5 72.7 189.6 72.9 189.8 73.1C189.9 73.3 190 73.5 190.1 73.6C190.3 73.7 190.4 73.8 190.6 73.8C190.7 73.8 190.9 73.9 191.1 73.9H192.1C192.2 73.9 192.3 73.9 192.4 73.8C192.5 73.8 192.6 73.7 192.7 73.7C192.8 73.6 192.9 73.5 192.9 73.4C193 73.3 193 73.2 193 73V62.6ZM214.6 62.6C214.6 62.5333 214.6 62.4666 214.6 62.4C214.5 62.4 214.5 62.3 214.4 62.3C214.3 62.3 214.2 62.3 214 62.2C213.9 62.2 213.7 62.2 213.5 62.2C213.2 62.2 213 62.2 212.9 62.2C212.7 62.3 212.6 62.3 212.5 62.3C212.4 62.3 212.4 62.4 212.3 62.4C212.3 62.4666 212.3 62.5333 212.3 62.6V69.6C212.3 70 212.2 70.3 212.1 70.6C212 71 211.9 71.2 211.6 71.5C211.4 71.7 211.2 71.8 210.9 72C210.6 72.1 210.3 72.1 209.9 72.1C209.5 72.1 209.2 72.1 208.9 72C208.6 71.8 208.4 71.7 208.2 71.5C207.9 71.2 207.8 71 207.7 70.6C207.6 70.3 207.5 69.9 207.5 69.4V62.6C207.5 62.5333 207.467 62.4666 207.4 62.4L207.3 62.3C207.2 62.3 207 62.3 206.9 62.2C206.7 62.2 206.6 62.2 206.3 62.2C206.1 62.2 205.9 62.2 205.8 62.2C205.6 62.3 205.5 62.3 205.4 62.3C205.3 62.3 205.2 62.4 205.2 62.4C205.2 62.4666 205.2 62.5333 205.2 62.6V69.6C205.2 70.4 205.3 71 205.5 71.6C205.7 72.1 206 72.6 206.4 73C206.8 73.3 207.3 73.6 207.9 73.8C208.4 74 209.1 74.1 209.8 74.1C210.6 74.1 211.3 74 211.9 73.7C212.5 73.5 213 73.3 213.4 72.9C213.8 72.5 214.1 72 214.3 71.4C214.5 70.9 214.6 70.2 214.6 69.5V62.6ZM229.4 62.6V62.5C229.4 62.4 229.3 62.4 229.2 62.3C229.2 62.3 229 62.3 228.9 62.3C228.8 62.2 228.6 62.2 228.4 62.2C228.2 62.2 228 62.2 227.9 62.3C227.7 62.3 227.6 62.3 227.5 62.3C227.5 62.4 227.4 62.4 227.4 62.5C227.3 62.5 227.3 62.6 227.3 62.6V68C227.3 68.5 227.3 68.9 227.3 69.3C227.3 69.8 227.3 70.2 227.4 70.7C227.2 70.4 227.1 70.2 227 69.9C226.9 69.7 226.8 69.5 226.7 69.2C226.6 69 226.4 68.7 226.3 68.5C226.2 68.2 226 68 225.9 67.7L223.7 63.5C223.5 63.2 223.4 63 223.3 62.9C223.2 62.7 223.1 62.6 223 62.5C222.9 62.4 222.7 62.4 222.6 62.3C222.4 62.3 222.2 62.3 222 62.3H220.7C220.5 62.3 220.3 62.3 220.1 62.5C220 62.6 219.9 62.8 219.9 63.1V73.5C219.9 73.5666 219.9 73.6333 219.9 73.7C220 73.7 220 73.8 220.1 73.8C220.2 73.8 220.3 73.9 220.4 73.9C220.5 73.9 220.7 73.9 220.9 73.9C221.1 73.9 221.3 73.9 221.5 73.9C221.6 73.9 221.7 73.8 221.8 73.8C221.9 73.8 221.9 73.7 222 73.7C222 73.6333 222 73.5666 222 73.5V67.5C222 67 222 66.6 222 66.1C222 65.7 222 65.3 221.9 64.9C222.1 65.2 222.2 65.6 222.4 65.9C222.6 66.3 222.8 66.7 222.9 67L225.8 72.4C226 72.7 226.1 72.9 226.2 73.1C226.3 73.3 226.4 73.5 226.6 73.6C226.7 73.7 226.8 73.8 227 73.8C227.2 73.8 227.3 73.9 227.5 73.9H228.5C228.7 73.9 228.8 73.9 228.9 73.8C229 73.8 229.1 73.7 229.2 73.7C229.2 73.6 229.3 73.5 229.4 73.4C229.4 73.3 229.4 73.2 229.4 73V62.6ZM237.1 62.6C237.1 62.5 237 62.5 237 62.4C237 62.4 236.9 62.3 236.8 62.3C236.7 62.3 236.6 62.3 236.5 62.2C236.3 62.2 236.1 62.2 235.9 62.2C235.7 62.2 235.5 62.2 235.3 62.2C235.2 62.3 235.1 62.3 235 62.3C234.9 62.3 234.8 62.4 234.8 62.4C234.733 62.4666 234.7 62.5333 234.7 62.6V73.5C234.7 73.5666 234.733 73.6333 234.8 73.7C234.8 73.7 234.9 73.8 235 73.8C235 73.8 235.2 73.9 235.3 73.9C235.5 73.9 235.7 73.9 235.9 73.9C236.1 73.9 236.3 73.9 236.5 73.9C236.6 73.9 236.7 73.8 236.8 73.8C236.9 73.8 237 73.7 237 73.7C237 73.6 237.1 73.6 237.1 73.5V62.6ZM252.4 65.3C252.2 64.6 251.8 64 251.4 63.5C250.9 63 250.4 62.6 249.7 62.4C249 62.2 248.3 62.1 247.4 62.1C246.5 62.1 245.7 62.2 245 62.5C244.3 62.8 243.7 63.2 243.2 63.7C242.7 64.2 242.4 64.9 242.2 65.6C241.9 66.3 241.8 67.2 241.8 68.1C241.8 69.1 241.9 70 242.1 70.8C242.4 71.5 242.7 72.1 243.1 72.6C243.6 73.1 244.1 73.5 244.8 73.7C245.5 73.9 246.3 74.1 247.2 74.1C248.1 74.1 248.9 73.9 249.6 73.6C250.3 73.4 250.9 73 251.3 72.4C251.8 71.9 252.2 71.3 252.4 70.5C252.6 69.7 252.8 68.9 252.8 67.9C252.8 66.9 252.6 66.1 252.4 65.3ZM250.1 69.6C250 70.1 249.9 70.5 249.6 70.9C249.4 71.3 249.1 71.6 248.7 71.8C248.3 72 247.8 72.1 247.2 72.1C246.7 72.1 246.2 72 245.8 71.8C245.4 71.6 245.1 71.4 244.9 71C244.7 70.7 244.5 70.2 244.4 69.7C244.3 69.2 244.3 68.6 244.3 68C244.3 67.5 244.3 67 244.4 66.5C244.5 66 244.7 65.6 244.9 65.2C245.2 64.8 245.5 64.5 245.9 64.3C246.2 64.1 246.7 64 247.3 64C247.9 64 248.4 64.1 248.7 64.3C249.1 64.5 249.4 64.8 249.7 65.1C249.9 65.5 250.1 65.9 250.1 66.4C250.2 66.9 250.3 67.4 250.3 68C250.3 68.6 250.2 69.1 250.1 69.6ZM267 62.6V62.5C267 62.4 266.9 62.4 266.8 62.3C266.8 62.3 266.7 62.3 266.5 62.3C266.4 62.2 266.2 62.2 266 62.2C265.8 62.2 265.6 62.2 265.5 62.3C265.3 62.3 265.2 62.3 265.2 62.3C265.1 62.4 265 62.4 265 62.5C264.9 62.5 264.9 62.6 264.9 62.6V68C264.9 68.5 264.9 68.9 264.9 69.3C264.9 69.8 265 70.2 265 70.7C264.9 70.4 264.7 70.2 264.6 69.9C264.5 69.7 264.4 69.5 264.3 69.2C264.2 69 264 68.7 263.9 68.5C263.8 68.2 263.7 68 263.5 67.7L261.3 63.5C261.2 63.2 261 63 260.9 62.9C260.8 62.7 260.7 62.6 260.6 62.5C260.5 62.4 260.3 62.4 260.2 62.3C260 62.3 259.8 62.3 259.6 62.3H258.3C258.1 62.3 257.9 62.3 257.7 62.5C257.6 62.6 257.5 62.8 257.5 63.1V73.5C257.5 73.5666 257.5 73.6333 257.5 73.7C257.6 73.7 257.6 73.8 257.7 73.8C257.8 73.8 257.9 73.9 258 73.9C258.2 73.9 258.3 73.9 258.5 73.9C258.8 73.9 258.9 73.9 259.1 73.9C259.2 73.9 259.3 73.8 259.4 73.8C259.5 73.8 259.5 73.7 259.6 73.7C259.6 73.6333 259.6 73.5666 259.6 73.5V67.5C259.6 67 259.6 66.6 259.6 66.1C259.6 65.7 259.6 65.3 259.5 64.9H259.6C259.7 65.2 259.8 65.6 260 65.9C260.2 66.3 260.4 66.7 260.5 67L263.4 72.4C263.6 72.7 263.7 72.9 263.8 73.1C263.9 73.3 264.1 73.5 264.2 73.6C264.3 73.7 264.5 73.8 264.6 73.8C264.8 73.8 264.9 73.9 265.2 73.9H266.2C266.3 73.9 266.4 73.9 266.5 73.8C266.6 73.8 266.7 73.7 266.8 73.7C266.9 73.6 266.9 73.5 267 73.4C267 73.3 267 73.2 267 73V62.6Z" fill="#636466"/>
</svg>
