<svg width="1381" height="466" viewBox="0 0 1381 466" fill="none" xmlns="http://www.w3.org/2000/svg">
<path d="M271.075 237.316C259.84 237.316 249.479 233.663 241.05 227.508V276.715L260.105 295.78C264.216 299.924 264.216 306.596 260.105 310.735C258.04 312.774 255.357 313.818 252.651 313.818C249.932 313.818 247.24 312.774 245.189 310.735L223.037 288.555C221.061 286.588 219.954 283.886 219.954 281.107V187.096C219.954 186.993 219.98 186.903 219.98 186.777C219.98 186.579 219.954 186.384 219.954 186.205C219.954 157.968 242.859 135.045 271.075 135.045C299.293 135.045 322.187 157.968 322.187 186.205C322.187 214.421 299.293 237.316 271.075 237.316ZM200.569 331.251C200.569 337.053 195.837 341.804 189.999 341.804C184.16 341.804 179.452 337.053 179.452 331.251V148.978C156.242 144.091 138.899 123.565 138.899 98.9391C138.899 70.6908 161.753 47.8046 189.999 47.8046C218.217 47.8046 241.097 70.6908 241.097 98.9391C241.097 123.565 223.728 144.091 200.569 148.978V331.251ZM160.044 187.096V281.107C160.044 283.886 158.937 286.588 156.961 288.555L134.823 310.735C132.756 312.774 130.063 313.818 127.347 313.818C124.652 313.818 121.937 312.774 119.9 310.735C115.763 306.596 115.763 299.924 119.9 295.78L138.947 276.715V227.508C130.516 233.663 120.144 237.316 108.92 237.316C80.6764 237.316 57.806 214.421 57.806 186.205C57.806 157.968 80.6764 135.045 108.92 135.045C137.134 135.045 160.044 157.968 160.044 186.205C160.044 186.384 160.018 186.579 160.018 186.777C160.018 186.903 160.044 186.993 160.044 187.096ZM189.999 0C85.0826 0 0 85.0707 0 190C0 294.939 85.0826 380 189.999 380C294.941 380 380 294.939 380 190C380 85.0707 294.941 0 189.999 0Z" fill="#DA2128"/>
<path d="M491.513 362.769V331.228H495.14V362.769C495.14 366.766 493.959 369.959 491.583 372.357C489.198 374.733 485.996 375.937 481.959 375.937C477.914 375.937 474.734 374.861 472.38 372.686C470.021 370.53 468.901 367.403 469.007 363.353L469.077 363.16H472.442C472.442 366.335 473.289 368.733 474.958 370.402C476.654 372.05 479.083 372.866 482.263 372.866C485.003 372.866 487.221 371.962 488.943 370.117C490.66 368.316 491.513 365.843 491.513 362.769Z" fill="#414142"/>
<path d="M507.36 366.682C507.36 368.492 507.967 369.959 509.205 371.083C510.444 372.181 512.231 372.726 514.568 372.726C516.913 372.726 519.092 372.137 521.095 370.951C523.111 369.744 524.578 368.176 525.491 366.212V359.396H518.187C514.946 359.396 512.315 360.068 510.334 361.46C508.349 362.813 507.36 364.583 507.36 366.682ZM513.813 375.954C510.655 375.954 508.182 375.128 506.412 373.464C504.646 371.777 503.768 369.476 503.768 366.48C503.768 363.524 505.063 361.126 507.672 359.33C510.299 357.524 513.813 356.615 518.266 356.615H525.491V352.548C525.491 350.19 524.736 348.354 523.229 347.027C521.736 345.701 519.672 345.046 517.067 345.046C514.458 345.046 512.31 345.679 510.633 346.926C508.968 348.195 508.129 349.746 508.129 351.599L504.804 351.577L504.738 351.406C504.62 348.916 505.757 346.676 508.151 344.796C510.54 342.903 513.545 341.958 517.177 341.958C520.809 341.958 523.713 342.89 525.856 344.743C528.008 346.601 529.084 349.232 529.084 352.614V368.72C529.084 371.009 529.357 373.187 529.923 375.287L526.124 375.361C525.672 373.402 525.448 371.593 525.448 370.025C524.183 371.799 522.509 373.244 520.498 374.32C518.481 375.427 516.268 375.954 513.813 375.954Z" fill="#414142"/>
<path d="M538.571 342.473L547.588 367.016L548.664 370.86H548.835L550.013 367.016L558.885 342.473H562.649L550.219 375.221H547.281L534.842 342.473H538.571Z" fill="#414142"/>
<path d="M570.099 366.682C570.099 368.492 570.714 369.959 571.94 371.083C573.183 372.181 574.966 372.726 577.316 372.726C579.652 372.726 581.831 372.137 583.842 370.951C585.845 369.744 587.308 368.176 588.221 366.212V359.396H580.93C577.676 359.396 575.054 360.068 573.073 361.46C571.083 362.813 570.099 364.583 570.099 366.682ZM576.556 375.954C573.398 375.954 570.925 375.128 569.15 373.464C567.38 371.777 566.502 369.476 566.502 366.48C566.502 363.524 567.798 361.126 570.411 359.33C573.029 357.524 576.556 356.615 580.992 356.615H588.221V352.548C588.221 350.19 587.47 348.354 585.973 347.027C584.47 345.701 582.419 345.046 579.806 345.046C577.188 345.046 575.045 345.679 573.371 346.926C571.698 348.195 570.872 349.746 570.872 351.599L567.539 351.577L567.468 351.406C567.358 348.916 568.5 346.676 570.885 344.796C573.279 342.903 576.283 341.958 579.916 341.958C583.544 341.958 586.447 342.89 588.595 344.743C590.747 346.601 591.827 349.232 591.827 352.614V368.72C591.827 371.009 592.109 373.187 592.662 375.287L588.863 375.361C588.41 373.402 588.195 371.593 588.195 370.025C586.921 371.799 585.257 373.244 583.241 374.32C581.22 375.427 578.993 375.954 576.556 375.954Z" fill="#414142"/>
<path d="M619.619 331.162H624.358L640.574 369.946H640.733L656.988 331.162H661.802V375.221H658.187V355.75L658.499 336.477L658.297 336.402L641.918 375.221H639.428L623.071 336.591H622.883L623.212 355.75V375.221H619.619V331.162Z" fill="#414142"/>
<path d="M676.419 375.221H672.826V342.472H676.419V375.221ZM676.419 333.077H672.826V328H676.419V333.077Z" fill="#414142"/>
<path d="M688.678 359.168V359.826C688.678 363.916 689.473 367.091 691.076 369.358C692.68 371.642 695.06 372.77 698.192 372.77C702.707 372.77 705.883 370.794 707.723 366.841V351.473C705.856 347.212 702.707 345.086 698.271 345.086C695.139 345.086 692.767 346.351 691.129 348.916C689.486 351.451 688.678 354.876 688.678 359.168ZM685.037 359.826V359.168C685.037 353.888 686.166 349.689 688.366 346.584C690.598 343.487 693.668 341.911 697.59 341.911C702.057 341.911 705.439 343.786 707.745 347.515V328.053H711.346V375.291H708.149L707.85 370.548C705.553 374.141 702.114 375.937 697.59 375.937C693.668 375.937 690.598 374.479 688.366 371.584C686.166 368.694 685.037 364.781 685.037 359.826Z" fill="#414142"/>
<path d="M723.189 359.168V359.826C723.189 363.916 723.993 367.091 725.592 369.358C727.204 371.642 729.567 372.77 732.703 372.77C737.223 372.77 740.398 370.794 742.234 366.841V351.473C740.359 347.212 737.223 345.086 732.786 345.086C729.655 345.086 727.283 346.351 725.649 348.916C724.011 351.451 723.189 354.876 723.189 359.168ZM719.553 359.826V359.168C719.553 353.888 720.677 349.689 722.882 346.584C725.113 343.487 728.175 341.911 732.114 341.911C736.564 341.911 739.95 343.786 742.252 347.515V328.053H745.858V375.291H742.66L742.361 370.548C740.051 374.141 736.638 375.937 732.114 375.937C728.175 375.937 725.113 374.479 722.882 371.584C720.677 368.694 719.553 364.781 719.553 359.826Z" fill="#414142"/>
<path d="M759.544 328V375.221H755.955V328H759.544Z" fill="#414142"/>
<path d="M790.721 355.048C790.721 352.131 789.882 349.746 788.208 347.844C786.526 345.96 784.299 345.016 781.545 345.016C778.783 345.016 776.481 346.026 774.667 348.051C772.836 350.058 771.773 352.649 771.474 355.781L771.557 355.952H790.721V355.048ZM781.884 375.937C777.755 375.937 774.329 374.413 771.632 371.378C768.927 368.36 767.578 364.548 767.578 359.866V358.206C767.578 353.541 768.913 349.671 771.584 346.557C774.254 343.456 777.557 341.91 781.51 341.91C785.454 341.91 788.582 343.189 790.874 345.701C793.176 348.231 794.318 351.635 794.318 355.922V359.009H771.215V359.866C771.215 363.652 772.199 366.77 774.158 369.195C776.121 371.641 778.704 372.867 781.884 372.867C786.126 372.867 789.425 371.659 791.735 369.252L793.273 371.734C790.545 374.536 786.741 375.937 781.884 375.937Z" fill="#414142"/>
<path d="M802.456 342.473L808.591 364.583L809.839 370.451H809.993L811.543 364.583L818.505 342.473H821.632L828.598 364.583L830.184 370.596H830.342L831.725 364.583L837.681 342.473H841.419L831.901 375.221H828.813L821.54 352.838L820.125 347.159H819.923L818.47 352.838L811.341 375.221H808.218L798.727 342.473H802.456Z" fill="#414142"/>
<path d="M850.404 366.682C850.404 368.492 851.014 369.959 852.253 371.083C853.483 372.181 855.27 372.726 857.62 372.726C859.97 372.726 862.14 372.137 864.143 370.951C866.146 369.744 867.617 368.176 868.526 366.212V359.396H861.231C857.98 359.396 855.354 360.068 853.377 361.46C851.392 362.813 850.404 364.583 850.404 366.682ZM856.856 375.954C853.694 375.954 851.225 375.128 849.455 373.464C847.694 371.777 846.807 369.476 846.807 366.48C846.807 363.524 848.094 361.126 850.716 359.33C853.329 357.524 856.856 356.615 861.297 356.615H868.526V352.548C868.526 350.19 867.775 348.354 866.269 347.027C864.775 345.701 862.728 345.046 860.102 345.046C857.497 345.046 855.349 345.683 853.676 346.926C852.011 348.195 851.173 349.746 851.173 351.599L847.839 351.577L847.773 351.406C847.659 348.916 848.805 346.676 851.186 344.796C853.584 342.903 856.588 341.958 860.216 341.958C863.853 341.958 866.752 342.89 868.899 344.743C871.052 346.601 872.123 349.232 872.123 352.614V368.72C872.123 371.009 872.409 373.187 872.967 375.287L869.172 375.361C868.724 373.402 868.491 371.593 868.491 370.025C867.217 371.799 865.566 373.244 863.554 374.32C861.529 375.427 859.302 375.954 856.856 375.954Z" fill="#414142"/>
<path d="M885.438 375.221H881.801V342.472H885.011L885.438 347.91V348.283C887.502 343.996 890.682 341.84 894.964 341.84C895.786 341.84 896.594 341.972 897.354 342.2L896.87 345.586L894.178 345.398C891.973 345.398 890.133 346.012 888.644 347.277C887.164 348.52 886.101 350.308 885.438 352.614V375.221Z" fill="#414142"/>
<path d="M924.015 355.048C924.015 352.131 923.181 349.746 921.503 347.844C919.816 345.96 917.603 345.016 914.844 345.016C912.081 345.016 909.784 346.026 907.962 348.051C906.139 350.058 905.072 352.649 904.782 355.781L904.861 355.952H924.015V355.048ZM915.178 375.937C911.049 375.937 907.632 374.413 904.927 371.378C902.23 368.36 900.877 364.548 900.877 359.866V358.206C900.877 353.541 902.212 349.671 904.878 346.557C907.558 343.456 910.86 341.91 914.818 341.91C918.753 341.91 921.876 343.189 924.173 345.701C926.466 348.231 927.621 351.635 927.621 355.922V359.009H904.514V359.866C904.514 363.652 905.502 366.77 907.456 369.195C909.424 371.641 911.998 372.867 915.178 372.867C919.43 372.867 922.724 371.659 925.03 369.252L926.58 371.734C923.848 374.536 920.036 375.937 915.178 375.937Z" fill="#414142"/>
<path d="M964.182 333.675V333.71C962.162 333.71 960.568 334.352 959.443 335.634C958.297 336.921 957.717 338.537 957.717 340.54C957.717 343.158 959.013 346.044 961.6 349.21L966.976 345.231C969.128 343.571 970.2 341.564 970.2 339.201C970.2 337.54 969.668 336.24 968.588 335.217C967.52 334.202 966.045 333.675 964.182 333.675ZM953.549 364.087C953.549 366.683 954.432 368.804 956.193 370.451C957.954 372.081 960.427 372.902 963.642 372.902C967.494 372.902 970.902 371.51 973.841 368.694L960.884 353.633L959.443 354.688C955.508 357.933 953.549 361.056 953.549 364.087ZM954.085 340.632C954.085 337.461 954.976 335.015 956.746 333.253C958.516 331.532 960.923 330.631 963.932 330.631C966.976 330.631 969.348 331.461 971.069 333.078C972.8 334.69 973.661 336.75 973.661 339.253C973.661 340.997 973.239 342.539 972.391 343.843C971.531 345.152 970.191 346.505 968.351 347.91L963.537 351.6L976.028 366.142C978.088 363.204 979.116 359.69 979.116 355.649H982.458C982.458 360.714 981.022 365.049 978.172 368.664L983.759 375.221L983.693 375.362H979.546L975.857 371.092C972.304 374.373 968.329 375.985 963.923 375.985C959.518 375.985 956.083 374.922 953.615 372.77C951.146 370.627 949.912 367.732 949.912 364.131C949.912 361.768 950.615 359.624 951.99 357.679C953.369 355.75 955.521 353.69 958.468 351.582L958.907 351.349C957.216 349.254 955.995 347.383 955.231 345.723C954.476 344.067 954.085 342.381 954.085 340.632Z" fill="#414142"/>
<path d="M487.324 411.18L478.483 434.999H496.311L487.526 411.18H487.324ZM502.025 450.551L497.479 438.275H477.266L472.725 450.551H469L485.743 406.493H489.143L505.758 450.551H502.025Z" fill="#414142"/>
<path d="M534.244 436.518V435.895C534.244 431.582 533.401 428.164 531.706 425.586C530.045 423.039 527.63 421.752 524.489 421.752C519.992 421.752 516.873 423.851 515.099 428.05V443.792C516.895 447.657 520.04 449.572 524.551 449.572C527.669 449.572 530.059 448.417 531.736 446.067C533.401 443.717 534.244 440.533 534.244 436.518ZM537.872 435.895V436.527C537.872 441.451 536.765 445.373 534.539 448.263C532.334 451.162 529.259 452.603 525.359 452.603C520.782 452.603 517.356 450.925 515.077 447.596V464.585H511.436V419.248H514.493L514.971 424.326C517.181 420.518 520.628 418.629 525.289 418.629C529.22 418.629 532.299 420.179 534.539 423.289C536.757 426.394 537.872 430.593 537.872 435.895Z" fill="#414142"/>
<path d="M568.752 436.518V435.895C568.752 431.582 567.913 428.164 566.231 425.586C564.557 423.039 562.137 421.752 559.001 421.752C554.516 421.752 551.389 423.851 549.615 428.05V443.792C551.402 447.657 554.56 449.572 559.071 449.572C562.176 449.572 564.57 448.417 566.244 446.067C567.913 443.717 568.752 440.533 568.752 436.518ZM572.388 435.895V436.527C572.388 441.451 571.29 445.373 569.05 448.263C566.841 451.162 563.771 452.603 559.875 452.603C555.298 452.603 551.877 450.925 549.58 447.596V464.585H545.947V419.248H549L549.487 424.326C551.697 420.518 555.145 418.629 559.809 418.629C563.723 418.629 566.815 420.179 569.046 423.289C571.273 426.394 572.388 430.593 572.388 435.895Z" fill="#414142"/>
<path d="M584.59 403.331V450.552H581.002V403.331H584.59Z" fill="#414142"/>
<path d="M598.686 450.552H595.084V417.803H598.686V450.552ZM598.686 408.408H595.084V403.331H598.686V408.408Z" fill="#414142"/>
<path d="M610.481 434.872H610.459C610.459 438.965 611.315 442.215 613.059 444.592C614.802 447.003 617.376 448.198 620.811 448.198C623.323 448.198 625.471 447.495 627.254 446.076C629.042 444.671 629.934 442.791 629.934 440.428H633.122L633.188 440.603C633.302 443.577 632.121 446.111 629.666 448.167C627.193 450.227 624.259 451.268 620.842 451.268C616.445 451.268 613.024 449.766 610.555 446.774C608.082 443.77 606.844 439.817 606.844 434.872V433.593C606.844 428.722 608.082 424.778 610.564 421.752C613.046 418.752 616.454 417.241 620.811 417.241C624.465 417.241 627.483 418.33 629.846 420.465C632.209 422.613 633.346 425.389 633.263 428.802L633.188 428.986H629.969C629.969 426.395 629.095 424.313 627.377 422.718C625.642 421.141 623.455 420.347 620.811 420.347C617.429 420.347 614.868 421.541 613.12 423.957C611.363 426.377 610.481 429.583 610.481 433.593V434.872Z" fill="#414142"/>
<path d="M642.773 442.017C642.773 443.827 643.384 445.294 644.622 446.414C645.861 447.512 647.648 448.057 649.994 448.057C652.339 448.057 654.509 447.477 656.516 446.282C658.528 445.079 659.986 443.515 660.904 441.548V434.731H653.604C650.35 434.731 647.732 435.398 645.751 436.791C643.757 438.148 642.773 439.914 642.773 442.017ZM649.234 451.285C646.072 451.285 643.603 450.464 641.829 448.795C640.063 447.108 639.176 444.807 639.176 441.815C639.176 438.859 640.48 436.466 643.089 434.661C645.707 432.855 649.234 431.942 653.67 431.942H660.904V427.883C660.904 425.525 660.149 423.689 658.651 422.358C657.153 421.036 655.093 420.386 652.48 420.386C649.871 420.386 647.723 421.014 646.045 422.257C644.376 423.531 643.55 425.072 643.55 426.93L640.217 426.908L640.142 426.741C640.028 424.247 641.183 422.007 643.559 420.135C645.953 418.234 648.966 417.294 652.59 417.294C656.218 417.294 659.121 418.225 661.277 420.074C663.43 421.941 664.506 424.563 664.506 427.949V444.055C664.506 446.339 664.787 448.522 665.336 450.626L661.537 450.696C661.084 448.738 660.873 446.924 660.873 445.36C659.586 447.134 657.935 448.575 655.923 449.651C653.903 450.762 651.672 451.285 649.234 451.285Z" fill="#414142"/>
<path d="M676.198 409.493H679.831V417.852H687.069V420.816H679.831V442.167C679.831 446.111 681.271 448.057 684.109 448.057C685.299 448.057 686.511 447.965 687.741 447.754L688.303 450.464C687.007 450.991 685.391 451.268 683.467 451.268C678.614 451.268 676.198 448.232 676.198 442.167V420.816H670.523V417.852H676.198V409.493Z" fill="#414142"/>
<path d="M698.804 450.552H695.207V417.803H698.804V450.552ZM698.804 408.408H695.207V403.331H698.804V408.408Z" fill="#414142"/>
<path d="M710.428 433.774V434.753C710.428 438.702 711.403 441.921 713.367 444.442C715.308 446.924 717.961 448.198 721.308 448.198C724.641 448.198 727.281 446.924 729.245 444.42C731.181 441.895 732.161 438.671 732.161 434.753V433.774C732.161 429.917 731.177 426.706 729.201 424.181C727.233 421.616 724.584 420.351 721.264 420.351C717.943 420.351 715.308 421.616 713.367 424.159C711.403 426.693 710.428 429.891 710.428 433.774ZM706.805 434.753V433.774C706.805 428.881 708.131 424.906 710.775 421.849C713.406 418.774 716.916 417.241 721.264 417.241C725.625 417.241 729.122 418.774 731.774 421.849C734.432 424.906 735.758 428.881 735.758 433.774V434.753C735.758 439.633 734.44 443.608 731.81 446.669C729.179 449.73 725.669 451.268 721.308 451.268C716.92 451.268 713.406 449.73 710.775 446.695C708.131 443.647 706.805 439.655 706.805 434.753Z" fill="#414142"/>
<path d="M743.33 417.803H746.563L746.866 423.531C749.066 419.292 752.602 417.171 757.495 417.171C761.105 417.171 763.82 418.282 765.651 420.465C767.474 422.652 768.401 426.026 768.401 430.607V450.552H764.76V430.633C764.76 426.992 764.079 424.357 762.73 422.758C761.365 421.155 759.401 420.351 756.819 420.351C754.24 420.351 752.141 420.997 750.511 422.288C748.886 423.579 747.705 425.376 746.967 427.681V450.552H743.33V417.803Z" fill="#414142"/>
<path d="M800.384 406.493V450.551H796.756V406.493H800.384Z" fill="#414142"/>
<path d="M811.762 417.803H814.981L815.284 423.531C817.476 419.292 821.038 417.171 825.922 417.171C829.519 417.171 832.247 418.282 834.07 420.465C835.897 422.652 836.811 426.026 836.811 430.607V450.552H833.187V430.633C833.187 426.992 832.506 424.357 831.149 422.758C829.792 421.155 827.828 420.351 825.237 420.351C822.659 420.351 820.555 420.997 818.934 422.288C817.305 423.579 816.123 425.376 815.385 427.681V450.552H811.762V417.803Z" fill="#414142"/>
<path d="M848.311 409.493H851.943V417.852H859.177V420.816H851.943V442.167C851.943 446.111 853.366 448.057 856.221 448.057C857.416 448.057 858.628 447.965 859.854 447.754L860.42 450.464C859.12 450.991 857.508 451.268 855.576 451.268C850.731 451.268 848.311 448.232 848.311 442.167V420.816H842.623V417.852H848.311V409.493Z" fill="#414142"/>
<path d="M888 430.378C888 427.462 887.162 425.073 885.484 423.184C883.806 421.291 881.579 420.347 878.825 420.347C876.071 420.347 873.77 421.357 871.943 423.382C870.12 425.389 869.066 427.976 868.767 431.121L868.837 431.288H888V430.378ZM879.163 451.268C875.039 451.268 871.622 449.744 868.925 446.713C866.215 443.691 864.854 439.879 864.854 435.205V433.536C864.854 428.881 866.193 425.011 868.859 421.888C871.538 418.792 874.846 417.241 878.794 417.241C882.734 417.241 885.853 418.519 888.159 421.036C890.451 423.562 891.598 426.974 891.598 431.257V434.344H868.499V435.205C868.499 438.987 869.479 442.106 871.451 444.534C873.401 446.981 875.979 448.198 879.163 448.198C883.415 448.198 886.705 446.99 889.019 444.583L890.557 447.069C887.829 449.867 884.026 451.268 879.163 451.268Z" fill="#414142"/>
<path d="M901.029 435.912V436.527C901.029 440.568 901.841 443.752 903.493 446.058C905.114 448.355 907.503 449.519 910.652 449.519C915.154 449.519 918.317 447.512 920.139 443.515V428.301C918.33 423.957 915.203 421.796 910.714 421.796C907.6 421.796 905.21 423.056 903.532 425.63C901.863 428.186 901.029 431.617 901.029 435.912ZM910.086 418.629C914.574 418.629 917.996 420.588 920.311 424.488L920.732 419.248H923.802V451.579C923.802 455.813 922.63 459.178 920.311 461.58C917.97 464.009 914.733 465.226 910.573 465.226C908.957 465.226 907.27 465.024 905.505 464.655C903.734 464.273 902.193 463.746 900.897 463.065L901.797 460.021C904.45 461.339 907.358 462.002 910.516 462.002C913.67 462.002 916.077 461.084 917.706 459.274C919.344 457.496 920.17 454.913 920.17 451.579V447.464C917.803 450.916 914.425 452.642 909.998 452.642C906.08 452.642 902.992 451.197 900.757 448.285C898.516 445.386 897.396 441.451 897.396 436.527L897.427 435.895C897.427 430.593 898.547 426.394 900.8 423.289C903.036 420.179 906.128 418.629 910.086 418.629Z" fill="#414142"/>
<path d="M937.003 450.552H933.371V417.803H936.569L937.003 423.241V423.619C939.081 419.327 942.243 417.171 946.521 417.171C947.356 417.171 948.16 417.303 948.915 417.531L948.441 420.917L945.753 420.724C943.543 420.724 941.686 421.344 940.205 422.613C938.73 423.856 937.654 425.639 937.003 427.949V450.552Z" fill="#414142"/>
<path d="M956.384 442.017C956.384 443.827 956.999 445.294 958.22 446.414C959.467 447.512 961.255 448.057 963.605 448.057C965.946 448.057 968.115 447.477 970.127 446.282C972.134 445.079 973.593 443.515 974.502 441.548V434.731H967.219C963.96 434.731 961.338 435.398 959.357 436.791C957.372 438.148 956.384 439.914 956.384 442.017ZM962.84 451.285C959.678 451.285 957.205 450.464 955.444 448.795C953.669 447.108 952.791 444.807 952.791 441.815C952.791 438.859 954.087 436.466 956.7 434.661C959.313 432.855 962.84 431.942 967.285 431.942H974.502V427.883C974.502 425.525 973.759 423.689 972.262 422.358C970.764 421.036 968.704 420.386 966.086 420.386C963.473 420.386 961.334 421.014 959.665 422.257C957.987 423.531 957.152 425.072 957.152 426.93L953.823 426.908L953.753 426.741C953.639 424.247 954.789 422.007 957.166 420.135C959.559 418.234 962.568 417.294 966.209 417.294C969.833 417.294 972.732 418.225 974.875 420.074C977.036 421.941 978.112 424.563 978.112 427.949V444.055C978.112 446.339 978.389 448.522 978.955 450.626L975.147 450.696C974.691 448.738 974.48 446.924 974.48 445.36C973.206 447.134 971.546 448.575 969.53 449.651C967.514 450.762 965.282 451.285 962.84 451.285Z" fill="#414142"/>
<path d="M989.797 409.493H993.443V417.852H1000.68V420.816H993.443V442.167C993.443 446.111 994.875 448.057 997.712 448.057C998.907 448.057 1000.11 447.965 1001.34 447.754L1001.92 450.464C1000.62 450.991 999.003 451.268 997.071 451.268C992.231 451.268 989.797 448.232 989.797 442.167V420.816H984.127V417.852H989.797V409.493Z" fill="#414142"/>
<path d="M1012.41 450.552H1008.81V417.803H1012.41V450.552ZM1012.41 408.413H1008.81V403.331H1012.41V408.413Z" fill="#414142"/>
<path d="M1024.04 433.774V434.753C1024.04 438.702 1025.01 441.921 1026.97 444.442C1028.92 446.924 1031.57 448.198 1034.92 448.198C1038.26 448.198 1040.89 446.924 1042.86 444.42C1044.79 441.895 1045.77 438.671 1045.77 434.753V433.774C1045.77 429.917 1044.78 426.706 1042.81 424.181C1040.84 421.616 1038.19 420.351 1034.88 420.351C1031.57 420.351 1028.92 421.616 1026.97 424.159C1025.01 426.693 1024.04 429.891 1024.04 433.774ZM1020.41 434.753V433.774C1020.41 428.881 1021.74 424.906 1024.39 421.849C1027.02 418.778 1030.52 417.241 1034.88 417.241C1039.23 417.241 1042.73 418.778 1045.39 421.849C1048.05 424.906 1049.37 428.881 1049.37 433.774V434.753C1049.37 439.633 1048.05 443.608 1045.42 446.669C1042.78 449.73 1039.28 451.268 1034.92 451.268C1030.54 451.268 1027.02 449.73 1024.39 446.695C1021.74 443.647 1020.41 439.655 1020.41 434.753Z" fill="#414142"/>
<path d="M1056.95 417.803H1060.17L1060.48 423.531C1062.67 419.292 1066.23 417.171 1071.11 417.171C1074.71 417.171 1077.44 418.282 1079.26 420.465C1081.09 422.652 1082 426.026 1082 430.607V450.552H1078.37V430.633C1078.37 426.992 1077.69 424.357 1076.33 422.758C1074.99 421.155 1073.01 420.351 1070.43 420.351C1067.85 420.351 1065.74 420.997 1064.12 422.288C1062.5 423.579 1061.32 425.376 1060.58 427.681V450.552H1056.95V417.803Z" fill="#414142"/>
<path d="M1316.62 273.18C1331.36 273.18 1343.22 269.956 1352.19 263.518C1361.15 257.092 1365.64 248.695 1365.64 238.361C1365.64 228.028 1361.84 219.681 1354.23 213.343C1346.63 207 1333.57 201.389 1315.07 196.494C1294.03 191.233 1278.51 184.518 1268.51 176.343C1258.51 168.168 1253.51 157.174 1253.51 143.361C1253.51 129.542 1259.31 118.199 1270.9 109.319C1282.51 100.434 1297.6 96 1316.2 96C1334.79 96 1349.98 101.222 1361.77 111.645C1373.55 122.078 1379.26 135.048 1378.89 150.548L1378.6 151.253H1364.66C1364.66 138.661 1360.24 128.471 1351.41 120.663C1342.58 112.866 1330.82 108.97 1316.13 108.97C1301.43 108.97 1289.85 112.183 1281.4 118.626C1272.95 125.058 1268.72 133.166 1268.72 142.934C1268.72 152.713 1272.62 160.671 1280.41 166.825C1288.21 172.975 1301.9 178.53 1321.48 183.458C1341.06 188.392 1355.87 195.229 1365.92 203.97C1375.97 212.71 1381 224.193 1381 238.428C1381 252.668 1375.06 264.151 1363.18 272.892C1351.3 281.627 1335.82 286 1316.76 286C1297.6 286 1281.5 281.444 1268.44 272.326C1262.15 267.819 1257.19 262.064 1253.58 255.06C1249.96 248.062 1248.25 240.237 1248.44 231.591L1248.72 230.747H1262.67C1262.67 240.048 1265.15 247.99 1270.13 254.566C1279.62 266.976 1295.11 273.18 1316.62 273.18ZM1206.43 98.675H1221.51V223.838C1221.51 243.672 1215.49 258.99 1203.47 269.795C1191.45 280.6 1175.37 286 1155.23 286C1135.08 286 1119.07 280.572 1107.19 269.717C1095.3 258.867 1089.37 243.578 1089.37 223.838V98.675H1104.58V223.838C1104.58 239.349 1109.16 251.447 1118.32 260.138C1127.47 268.829 1139.78 273.18 1155.23 273.18C1170.67 273.18 1183.07 268.851 1192.42 260.21C1201.76 251.558 1206.43 239.443 1206.43 223.838V98.675ZM1040.63 283.036H1025.41V98.3975H1040.63V283.036ZM905.396 111.217H866.791V270.217H905.396C923.706 270.217 938.732 263.868 950.474 251.181C962.205 238.5 968.079 222.295 968.079 202.566V178.458C968.079 159.006 962.183 142.934 950.402 130.247C938.61 117.561 923.611 111.217 905.396 111.217ZM905.396 283.036H851.716V98.3975H905.396C928.115 98.3975 946.785 105.912 961.384 120.952C975.989 135.986 983.293 155.293 983.293 178.885V202.566C983.293 226.335 975.989 245.687 961.384 260.627C946.785 275.567 928.115 283.036 905.396 283.036ZM806.072 180.711V193.536H717.181V270.217H819.029V283.036H702.111V98.3975H818.33V111.217H717.181V180.711H806.072ZM477 98.3975H496.863L564.765 260.915H565.469L633.51 98.3975H653.65V283.036H638.58V201.433L639.839 120.663L639.001 120.385L570.4 283.036H559.978L491.505 121.229H490.661L492.076 201.433V283.036H477V98.3975Z" fill="#414142"/>
</svg>
