<svg width="1272" height="191" viewBox="0 0 1272 191" fill="none" xmlns="http://www.w3.org/2000/svg">
<path d="M546.3 157H557.073V82.653H557.871L606.017 157H617.455V63.9H606.815V138.247H606.017L557.339 63.9H546.3V157ZM644.102 157H695.041V147.291H654.875V63.9H644.102V157ZM715.018 157H725.791V120.159H748.401C764.76 120.159 776.863 108.588 776.863 91.83C776.863 74.939 765.292 63.9 748.401 63.9H715.018V157ZM725.791 110.583V73.476H747.47C758.642 73.476 765.824 81.19 765.824 91.83C765.824 102.603 758.642 110.583 747.47 110.583H725.791ZM832.821 157H843.594V120.159H866.204C882.563 120.159 894.666 108.588 894.666 91.83C894.666 74.939 883.095 63.9 866.204 63.9H832.821V157ZM843.594 110.583V73.476H865.273C876.445 73.476 883.627 81.19 883.627 91.83C883.627 102.603 876.445 110.583 865.273 110.583H843.594ZM926.516 157H940.481L961.362 78.397H962.16L983.041 157H997.006L1020.81 63.9H1009.24L990.223 143.833H989.425L968.544 63.9H954.978L934.097 143.833H933.299L914.28 63.9H902.709L926.516 157ZM1077.83 158.729C1099.25 158.729 1115.87 146.493 1121.72 127.208H1109.75C1105.1 141.439 1092.33 148.621 1077.97 148.621C1057.35 148.621 1041.26 132.528 1041.26 110.45C1041.26 88.638 1057.35 72.279 1077.97 72.279C1092.33 72.279 1105.23 79.594 1110.15 93.692H1121.72C1115.61 74.806 1099.38 62.171 1077.97 62.171C1050.44 62.171 1030.09 83.052 1030.09 110.45C1030.09 138.114 1050.3 158.729 1077.83 158.729Z" fill="black"/>
<path d="M546.3 157H544.3V159H546.3V157ZM557.073 157V159H559.073V157H557.073ZM557.073 82.653V80.653H555.073V82.653H557.073ZM557.871 82.653L559.55 81.5659L558.959 80.653H557.871V82.653ZM606.017 157L604.338 158.087L604.929 159H606.017V157ZM617.455 157V159H619.455V157H617.455ZM617.455 63.9H619.455V61.9H617.455V63.9ZM606.815 63.9V61.9H604.815V63.9H606.815ZM606.815 138.247V140.247H608.815V138.247H606.815ZM606.017 138.247L604.344 139.343L604.936 140.247H606.017V138.247ZM557.339 63.9L559.012 62.8044L558.42 61.9H557.339V63.9ZM546.3 63.9V61.9H544.3V63.9H546.3ZM546.3 159H557.073V155H546.3V159ZM559.073 157V82.653H555.073V157H559.073ZM557.073 84.653H557.871V80.653H557.073V84.653ZM556.192 83.7401L604.338 158.087L607.696 155.913L559.55 81.5659L556.192 83.7401ZM606.017 159H617.455V155H606.017V159ZM619.455 157V63.9H615.455V157H619.455ZM617.455 61.9H606.815V65.9H617.455V61.9ZM604.815 63.9V138.247H608.815V63.9H604.815ZM606.815 136.247H606.017V140.247H606.815V136.247ZM607.69 137.151L559.012 62.8044L555.666 64.9955L604.344 139.343L607.69 137.151ZM557.339 61.9H546.3V65.9H557.339V61.9ZM544.3 63.9V157H548.3V63.9H544.3ZM644.102 157H642.102V159H644.102V157ZM695.041 157V159H697.041V157H695.041ZM695.041 147.291H697.041V145.291H695.041V147.291ZM654.875 147.291H652.875V149.291H654.875V147.291ZM654.875 63.9H656.875V61.9H654.875V63.9ZM644.102 63.9V61.9H642.102V63.9H644.102ZM644.102 159H695.041V155H644.102V159ZM697.041 157V147.291H693.041V157H697.041ZM695.041 145.291H654.875V149.291H695.041V145.291ZM656.875 147.291V63.9H652.875V147.291H656.875ZM654.875 61.9H644.102V65.9H654.875V61.9ZM642.102 63.9V157H646.102V63.9H642.102ZM715.018 157H713.018V159H715.018V157ZM725.791 157V159H727.791V157H725.791ZM725.791 120.159V118.159H723.791V120.159H725.791ZM715.018 63.9V61.9H713.018V63.9H715.018ZM725.791 110.583H723.791V112.583H725.791V110.583ZM725.791 73.476V71.476H723.791V73.476H725.791ZM715.018 159H725.791V155H715.018V159ZM727.791 157V120.159H723.791V157H727.791ZM725.791 122.159H748.401V118.159H725.791V122.159ZM748.401 122.159C765.833 122.159 778.863 109.724 778.863 91.83H774.863C774.863 107.452 763.687 118.159 748.401 118.159V122.159ZM778.863 91.83C778.863 82.9126 775.798 75.3902 770.361 70.0977C764.93 64.811 757.288 61.9 748.401 61.9V65.9C756.405 65.9 762.994 68.5085 767.571 72.964C772.142 77.4138 774.863 83.8564 774.863 91.83H778.863ZM748.401 61.9H715.018V65.9H748.401V61.9ZM713.018 63.9V157H717.018V63.9H713.018ZM727.791 110.583V73.476H723.791V110.583H727.791ZM725.791 75.476H747.47V71.476H725.791V75.476ZM747.47 75.476C752.579 75.476 756.632 77.2295 759.408 80.0626C762.189 82.902 763.824 86.9663 763.824 91.83H767.824C767.824 86.0537 765.868 80.941 762.265 77.2634C758.656 73.5795 753.532 71.476 747.47 71.476V75.476ZM763.824 91.83C763.824 96.7692 762.183 100.941 759.39 103.865C756.608 106.778 752.558 108.583 747.47 108.583V112.583C753.553 112.583 758.681 110.398 762.283 106.628C765.874 102.868 767.824 97.6638 767.824 91.83H763.824ZM747.47 108.583H725.791V112.583H747.47V108.583ZM832.821 157H830.821V159H832.821V157ZM843.594 157V159H845.594V157H843.594ZM843.594 120.159V118.159H841.594V120.159H843.594ZM832.821 63.9V61.9H830.821V63.9H832.821ZM843.594 110.583H841.594V112.583H843.594V110.583ZM843.594 73.476V71.476H841.594V73.476H843.594ZM832.821 159H843.594V155H832.821V159ZM845.594 157V120.159H841.594V157H845.594ZM843.594 122.159H866.204V118.159H843.594V122.159ZM866.204 122.159C883.637 122.159 896.666 109.724 896.666 91.83H892.666C892.666 107.452 881.49 118.159 866.204 118.159V122.159ZM896.666 91.83C896.666 82.9126 893.602 75.3902 888.165 70.0977C882.734 64.811 875.091 61.9 866.204 61.9V65.9C874.209 65.9 880.797 68.5085 885.375 72.964C889.946 77.4138 892.666 83.8564 892.666 91.83H896.666ZM866.204 61.9H832.821V65.9H866.204V61.9ZM830.821 63.9V157H834.821V63.9H830.821ZM845.594 110.583V73.476H841.594V110.583H845.594ZM843.594 75.476H865.273V71.476H843.594V75.476ZM865.273 75.476C870.383 75.476 874.436 77.2295 877.211 80.0626C879.993 82.902 881.628 86.9663 881.628 91.83H885.628C885.628 86.0537 883.671 80.941 880.069 77.2634C876.46 73.5795 871.336 71.476 865.273 71.476V75.476ZM881.628 91.83C881.628 96.7692 879.986 100.941 877.194 103.865C874.411 106.778 870.362 108.583 865.273 108.583V112.583C871.357 112.583 876.484 110.398 880.086 106.628C883.678 102.868 885.628 97.6638 885.628 91.83H881.628ZM865.273 108.583H843.594V112.583H865.273V108.583ZM926.516 157L924.578 157.495L924.963 159H926.516V157ZM940.481 157V159H942.019L942.414 157.513L940.481 157ZM961.362 78.397V76.397H959.824L959.429 77.8835L961.362 78.397ZM962.16 78.397L964.093 77.8835L963.698 76.397H962.16V78.397ZM983.041 157L981.108 157.513L981.503 159H983.041V157ZM997.006 157V159H998.559L998.943 157.495L997.006 157ZM1020.81 63.9L1022.75 64.3955L1023.39 61.9H1020.81V63.9ZM1009.24 63.9V61.9H1007.66L1007.3 63.437L1009.24 63.9ZM990.223 143.833V145.833H991.803L992.169 144.296L990.223 143.833ZM989.425 143.833L987.49 144.339L987.88 145.833H989.425V143.833ZM968.544 63.9L970.479 63.3945L970.089 61.9H968.544V63.9ZM954.978 63.9V61.9H953.433L953.043 63.3945L954.978 63.9ZM934.097 143.833V145.833H935.641L936.032 144.339L934.097 143.833ZM933.299 143.833L931.353 144.296L931.719 145.833H933.299V143.833ZM914.28 63.9L916.226 63.437L915.86 61.9H914.28V63.9ZM902.709 63.9V61.9H900.133L900.771 64.3955L902.709 63.9ZM926.516 159H940.481V155H926.516V159ZM942.414 157.513L963.295 78.9105L959.429 77.8835L938.548 156.487L942.414 157.513ZM961.362 80.397H962.16V76.397H961.362V80.397ZM960.227 78.9105L981.108 157.513L984.974 156.487L964.093 77.8835L960.227 78.9105ZM983.041 159H997.006V155H983.041V159ZM998.943 157.495L1022.75 64.3955L1018.88 63.4045L995.068 156.505L998.943 157.495ZM1020.81 61.9H1009.24V65.9H1020.81V61.9ZM1007.3 63.437L988.277 143.37L992.169 144.296L1011.19 64.3629L1007.3 63.437ZM990.223 141.833H989.425V145.833H990.223V141.833ZM991.36 143.327L970.479 63.3945L966.609 64.4055L987.49 144.339L991.36 143.327ZM968.544 61.9H954.978V65.9H968.544V61.9ZM953.043 63.3945L932.162 143.327L936.032 144.339L956.913 64.4055L953.043 63.3945ZM934.097 141.833H933.299V145.833H934.097V141.833ZM935.245 143.37L916.226 63.437L912.334 64.3629L931.353 144.296L935.245 143.37ZM914.28 61.9H902.709V65.9H914.28V61.9ZM900.771 64.3955L924.578 157.495L928.453 156.505L904.646 63.4045L900.771 64.3955ZM1121.72 127.208L1123.64 127.789L1124.42 125.208H1121.72V127.208ZM1109.75 127.208V125.208H1108.3L1107.85 126.586L1109.75 127.208ZM1110.15 93.692L1108.27 94.3511L1108.73 95.692H1110.15V93.692ZM1121.72 93.692V95.692H1124.47L1123.63 93.0756L1121.72 93.692ZM1077.83 160.729C1100.09 160.729 1117.52 147.955 1123.64 127.789L1119.81 126.627C1114.23 145.031 1098.41 156.729 1077.83 156.729V160.729ZM1121.72 125.208H1109.75V129.208H1121.72V125.208ZM1107.85 126.586C1103.52 139.824 1091.66 146.621 1077.97 146.621V150.621C1093 150.621 1106.68 143.054 1111.66 127.83L1107.85 126.586ZM1077.97 146.621C1058.51 146.621 1043.26 131.475 1043.26 110.45H1039.26C1039.26 133.581 1056.2 150.621 1077.97 150.621V146.621ZM1043.26 110.45C1043.26 89.6813 1058.52 74.279 1077.97 74.279V70.279C1056.19 70.279 1039.26 87.5947 1039.26 110.45H1043.26ZM1077.97 74.279C1091.65 74.279 1103.68 81.2055 1108.27 94.3511L1112.04 93.0329C1106.79 77.9825 1093.01 70.279 1077.97 70.279V74.279ZM1110.15 95.692H1121.72V91.692H1110.15V95.692ZM1123.63 93.0756C1117.25 73.383 1100.27 60.171 1077.97 60.171V64.171C1098.49 64.171 1113.97 76.2289 1119.82 94.3083L1123.63 93.0756ZM1077.97 60.171C1049.31 60.171 1028.09 81.9731 1028.09 110.45H1032.09C1032.09 84.1309 1051.57 64.171 1077.97 64.171V60.171ZM1028.09 110.45C1028.09 139.193 1049.17 160.729 1077.83 160.729V156.729C1051.43 156.729 1032.09 137.035 1032.09 110.45H1028.09Z" fill="black"/>
<path d="M336.602 158H346.843V148.823H337.267C329.287 148.823 326.494 144.434 326.494 136.986V97.751H347.774V88.84H326.494V68.757H316.652V85.382C316.652 87.643 315.189 88.84 313.327 88.84H302.953V97.751H315.987V137.119C315.987 151.084 323.834 158 336.602 158ZM395.622 159.729C411.848 159.729 423.951 150.552 427.808 137.651H416.902C413.71 145.764 404.932 150.153 395.755 150.153C381.524 150.153 372.613 140.976 372.081 127.144H428.473V122.489C428.473 102.539 415.971 87.111 394.957 87.111C376.071 87.111 361.042 101.342 361.042 123.42C361.042 144.168 374.475 159.729 395.622 159.729ZM372.347 117.834C373.411 105.066 383.386 96.687 394.957 96.687C406.661 96.687 416.37 104.002 417.301 117.834H372.347ZM435.906 158H448.142L467.161 129.937H468.358L487.643 158H500.012L475.008 122.489L498.15 88.84H485.781L468.358 114.908H467.56L450.137 88.84H437.768L460.91 121.957L435.906 158Z" fill="black"/>
<path d="M142.363 158.729C158.456 158.729 169.229 149.951 169.229 136.917C169.229 108.322 127.733 122.952 127.733 105.396C127.733 99.411 133.319 95.155 141.964 95.155C151.141 95.155 156.062 99.544 156.993 106.061H167.101C166.037 93.559 155.397 86.111 142.629 86.111C128.132 86.111 117.625 93.692 117.625 105.396C117.625 132.794 158.988 118.031 158.988 137.449C158.988 144.498 153.269 149.552 142.895 149.552C132.787 149.552 126.935 145.163 125.738 136.917H115.497C116.694 149.818 126.004 158.729 142.363 158.729ZM203.582 157H208.636V147.69H205.444C202.119 147.69 200.39 145.695 200.39 142.237V57.25H189.883V142.237C189.883 151.68 194.937 157 203.582 157ZM256.714 158.729C277.462 158.729 292.89 143.168 292.89 122.42C292.89 101.672 277.728 86.111 256.847 86.111C236.232 86.111 220.671 101.539 220.671 122.42C220.671 143.434 235.966 158.729 256.714 158.729ZM256.714 149.153C241.951 149.153 231.444 137.981 231.444 122.42C231.444 107.258 241.818 95.687 256.714 95.687C271.61 95.687 282.117 107.125 282.117 122.42C282.117 137.848 271.61 149.153 256.714 149.153Z" fill="black"/>
<rect x="5" y="32" width="82" height="82" stroke="black" stroke-width="10"/>
<rect x="5" y="32" width="82" height="82" stroke="black" stroke-width="10"/>
<path fill-rule="evenodd" clip-rule="evenodd" d="M43 50H43.4645L45.5355 52.0711L47.6066 50H48H55V55H48V91H55V96H48H47.5355L45.5355 94L43.5355 96H43H36V91H43V55H36V50H43Z" fill="black"/>
</svg>
