<svg width="1272" height="191" viewBox="0 0 1272 191" fill="none" xmlns="http://www.w3.org/2000/svg">
<path d="M546.3 157H557.073V82.653H557.871L606.017 157H617.455V63.9H606.815V138.247H606.017L557.339 63.9H546.3V157ZM644.102 157H695.041V147.291H654.875V63.9H644.102V157ZM715.018 157H725.791V120.159H748.401C764.76 120.159 776.863 108.588 776.863 91.83C776.863 74.939 765.292 63.9 748.401 63.9H715.018V157ZM725.791 110.583V73.476H747.47C758.642 73.476 765.824 81.19 765.824 91.83C765.824 102.603 758.642 110.583 747.47 110.583H725.791ZM832.821 157H887.351V147.291H843.594V114.44H880.036V104.731H843.594V73.742H885.888V63.9H832.821V157ZM907.244 157H918.017V82.653H918.815L966.961 157H978.399V63.9H967.759V138.247H966.961L918.283 63.9H907.244V157ZM1024.2 157H1034.97V73.742H1063.43V63.9H995.736V73.742H1024.2V157ZM1080.77 157H1091.54V63.9H1080.77V157ZM1137.33 157H1148.1V73.742H1176.56V63.9H1108.86V73.742H1137.33V157ZM1217.17 157H1228.08V121.223L1261.99 63.9H1249.76L1222.89 110.184H1222.09L1194.96 63.9H1183.26L1217.17 121.223V157Z" fill="black"/>
<path d="M546.3 157H544.3V159H546.3V157ZM557.073 157V159H559.073V157H557.073ZM557.073 82.653V80.653H555.073V82.653H557.073ZM557.871 82.653L559.55 81.5659L558.959 80.653H557.871V82.653ZM606.017 157L604.338 158.087L604.929 159H606.017V157ZM617.455 157V159H619.455V157H617.455ZM617.455 63.9H619.455V61.9H617.455V63.9ZM606.815 63.9V61.9H604.815V63.9H606.815ZM606.815 138.247V140.247H608.815V138.247H606.815ZM606.017 138.247L604.344 139.343L604.936 140.247H606.017V138.247ZM557.339 63.9L559.012 62.8044L558.42 61.9H557.339V63.9ZM546.3 63.9V61.9H544.3V63.9H546.3ZM546.3 159H557.073V155H546.3V159ZM559.073 157V82.653H555.073V157H559.073ZM557.073 84.653H557.871V80.653H557.073V84.653ZM556.192 83.7401L604.338 158.087L607.696 155.913L559.55 81.5659L556.192 83.7401ZM606.017 159H617.455V155H606.017V159ZM619.455 157V63.9H615.455V157H619.455ZM617.455 61.9H606.815V65.9H617.455V61.9ZM604.815 63.9V138.247H608.815V63.9H604.815ZM606.815 136.247H606.017V140.247H606.815V136.247ZM607.69 137.151L559.012 62.8044L555.666 64.9955L604.344 139.343L607.69 137.151ZM557.339 61.9H546.3V65.9H557.339V61.9ZM544.3 63.9V157H548.3V63.9H544.3ZM644.102 157H642.102V159H644.102V157ZM695.041 157V159H697.041V157H695.041ZM695.041 147.291H697.041V145.291H695.041V147.291ZM654.875 147.291H652.875V149.291H654.875V147.291ZM654.875 63.9H656.875V61.9H654.875V63.9ZM644.102 63.9V61.9H642.102V63.9H644.102ZM644.102 159H695.041V155H644.102V159ZM697.041 157V147.291H693.041V157H697.041ZM695.041 145.291H654.875V149.291H695.041V145.291ZM656.875 147.291V63.9H652.875V147.291H656.875ZM654.875 61.9H644.102V65.9H654.875V61.9ZM642.102 63.9V157H646.102V63.9H642.102ZM715.018 157H713.018V159H715.018V157ZM725.791 157V159H727.791V157H725.791ZM725.791 120.159V118.159H723.791V120.159H725.791ZM715.018 63.9V61.9H713.018V63.9H715.018ZM725.791 110.583H723.791V112.583H725.791V110.583ZM725.791 73.476V71.476H723.791V73.476H725.791ZM715.018 159H725.791V155H715.018V159ZM727.791 157V120.159H723.791V157H727.791ZM725.791 122.159H748.401V118.159H725.791V122.159ZM748.401 122.159C765.833 122.159 778.863 109.724 778.863 91.83H774.863C774.863 107.452 763.687 118.159 748.401 118.159V122.159ZM778.863 91.83C778.863 82.9126 775.798 75.3902 770.361 70.0977C764.93 64.811 757.288 61.9 748.401 61.9V65.9C756.405 65.9 762.994 68.5085 767.571 72.964C772.142 77.4138 774.863 83.8564 774.863 91.83H778.863ZM748.401 61.9H715.018V65.9H748.401V61.9ZM713.018 63.9V157H717.018V63.9H713.018ZM727.791 110.583V73.476H723.791V110.583H727.791ZM725.791 75.476H747.47V71.476H725.791V75.476ZM747.47 75.476C752.579 75.476 756.632 77.2295 759.408 80.0626C762.189 82.902 763.824 86.9663 763.824 91.83H767.824C767.824 86.0537 765.868 80.941 762.265 77.2634C758.656 73.5795 753.532 71.476 747.47 71.476V75.476ZM763.824 91.83C763.824 96.7692 762.183 100.941 759.39 103.865C756.608 106.778 752.558 108.583 747.47 108.583V112.583C753.553 112.583 758.681 110.398 762.283 106.628C765.874 102.868 767.824 97.6638 767.824 91.83H763.824ZM747.47 108.583H725.791V112.583H747.47V108.583ZM832.821 157H830.821V159H832.821V157ZM887.352 157V159H889.352V157H887.352ZM887.352 147.291H889.352V145.291H887.352V147.291ZM843.594 147.291H841.594V149.291H843.594V147.291ZM843.594 114.44V112.44H841.594V114.44H843.594ZM880.036 114.44V116.44H882.036V114.44H880.036ZM880.036 104.731H882.036V102.731H880.036V104.731ZM843.594 104.731H841.594V106.731H843.594V104.731ZM843.594 73.742V71.742H841.594V73.742H843.594ZM885.888 73.742V75.742H887.888V73.742H885.888ZM885.888 63.9H887.888V61.9H885.888V63.9ZM832.821 63.9V61.9H830.821V63.9H832.821ZM832.821 159H887.352V155H832.821V159ZM889.352 157V147.291H885.352V157H889.352ZM887.352 145.291H843.594V149.291H887.352V145.291ZM845.594 147.291V114.44H841.594V147.291H845.594ZM843.594 116.44H880.036V112.44H843.594V116.44ZM882.036 114.44V104.731H878.036V114.44H882.036ZM880.036 102.731H843.594V106.731H880.036V102.731ZM845.594 104.731V73.742H841.594V104.731H845.594ZM843.594 75.742H885.888V71.742H843.594V75.742ZM887.888 73.742V63.9H883.888V73.742H887.888ZM885.888 61.9H832.821V65.9H885.888V61.9ZM830.821 63.9V157H834.821V63.9H830.821ZM907.244 157H905.244V159H907.244V157ZM918.017 157V159H920.017V157H918.017ZM918.017 82.653V80.653H916.017V82.653H918.017ZM918.815 82.653L920.494 81.5659L919.903 80.653H918.815V82.653ZM966.961 157L965.283 158.087L965.874 159H966.961V157ZM978.399 157V159H980.399V157H978.399ZM978.399 63.9H980.399V61.9H978.399V63.9ZM967.759 63.9V61.9H965.759V63.9H967.759ZM967.759 138.247V140.247H969.759V138.247H967.759ZM966.961 138.247L965.288 139.343L965.88 140.247H966.961V138.247ZM918.283 63.9L919.957 62.8044L919.364 61.9H918.283V63.9ZM907.244 63.9V61.9H905.244V63.9H907.244ZM907.244 159H918.017V155H907.244V159ZM920.017 157V82.653H916.017V157H920.017ZM918.017 84.653H918.815V80.653H918.017V84.653ZM917.137 83.7401L965.283 158.087L968.64 155.913L920.494 81.5659L917.137 83.7401ZM966.961 159H978.399V155H966.961V159ZM980.399 157V63.9H976.399V157H980.399ZM978.399 61.9H967.759V65.9H978.399V61.9ZM965.759 63.9V138.247H969.759V63.9H965.759ZM967.759 136.247H966.961V140.247H967.759V136.247ZM968.635 137.151L919.957 62.8044L916.61 64.9955L965.288 139.343L968.635 137.151ZM918.283 61.9H907.244V65.9H918.283V61.9ZM905.244 63.9V157H909.244V63.9H905.244ZM1024.2 157H1022.2V159H1024.2V157ZM1034.97 157V159H1036.97V157H1034.97ZM1034.97 73.742V71.742H1032.97V73.742H1034.97ZM1063.43 73.742V75.742H1065.43V73.742H1063.43ZM1063.43 63.9H1065.43V61.9H1063.43V63.9ZM995.736 63.9V61.9H993.736V63.9H995.736ZM995.736 73.742H993.736V75.742H995.736V73.742ZM1024.2 73.742H1026.2V71.742H1024.2V73.742ZM1024.2 159H1034.97V155H1024.2V159ZM1036.97 157V73.742H1032.97V157H1036.97ZM1034.97 75.742H1063.43V71.742H1034.97V75.742ZM1065.43 73.742V63.9H1061.43V73.742H1065.43ZM1063.43 61.9H995.736V65.9H1063.43V61.9ZM993.736 63.9V73.742H997.736V63.9H993.736ZM995.736 75.742H1024.2V71.742H995.736V75.742ZM1022.2 73.742V157H1026.2V73.742H1022.2ZM1080.77 157H1078.77V159H1080.77V157ZM1091.54 157V159H1093.54V157H1091.54ZM1091.54 63.9H1093.54V61.9H1091.54V63.9ZM1080.77 63.9V61.9H1078.77V63.9H1080.77ZM1080.77 159H1091.54V155H1080.77V159ZM1093.54 157V63.9H1089.54V157H1093.54ZM1091.54 61.9H1080.77V65.9H1091.54V61.9ZM1078.77 63.9V157H1082.77V63.9H1078.77ZM1137.33 157H1135.33V159H1137.33V157ZM1148.1 157V159H1150.1V157H1148.1ZM1148.1 73.742V71.742H1146.1V73.742H1148.1ZM1176.56 73.742V75.742H1178.56V73.742H1176.56ZM1176.56 63.9H1178.56V61.9H1176.56V63.9ZM1108.86 63.9V61.9H1106.86V63.9H1108.86ZM1108.86 73.742H1106.86V75.742H1108.86V73.742ZM1137.33 73.742H1139.33V71.742H1137.33V73.742ZM1137.33 159H1148.1V155H1137.33V159ZM1150.1 157V73.742H1146.1V157H1150.1ZM1148.1 75.742H1176.56V71.742H1148.1V75.742ZM1178.56 73.742V63.9H1174.56V73.742H1178.56ZM1176.56 61.9H1108.86V65.9H1176.56V61.9ZM1106.86 63.9V73.742H1110.86V63.9H1106.86ZM1108.86 75.742H1137.33V71.742H1108.86V75.742ZM1135.33 73.742V157H1139.33V73.742H1135.33ZM1217.17 157H1215.17V159H1217.17V157ZM1228.08 157V159H1230.08V157H1228.08ZM1228.08 121.223L1226.36 120.205L1226.08 120.676V121.223H1228.08ZM1261.99 63.9L1263.71 64.9184L1265.5 61.9H1261.99V63.9ZM1249.76 63.9V61.9H1248.6L1248.03 62.896L1249.76 63.9ZM1222.89 110.184V112.184H1224.04L1224.62 111.188L1222.89 110.184ZM1222.09 110.184L1220.37 111.195L1220.95 112.184H1222.09V110.184ZM1194.96 63.9L1196.69 62.8886L1196.11 61.9H1194.96V63.9ZM1183.26 63.9V61.9H1179.75L1181.53 64.9184L1183.26 63.9ZM1217.17 121.223H1219.17V120.676L1218.89 120.205L1217.17 121.223ZM1217.17 159H1228.08V155H1217.17V159ZM1230.08 157V121.223H1226.08V157H1230.08ZM1229.8 122.241L1263.71 64.9184L1260.27 62.8816L1226.36 120.205L1229.8 122.241ZM1261.99 61.9H1249.76V65.9H1261.99V61.9ZM1248.03 62.896L1221.16 109.18L1224.62 111.188L1251.49 64.904L1248.03 62.896ZM1222.89 108.184H1222.09V112.184H1222.89V108.184ZM1223.82 109.173L1196.69 62.8886L1193.23 64.9114L1220.37 111.195L1223.82 109.173ZM1194.96 61.9H1183.26V65.9H1194.96V61.9ZM1181.53 64.9184L1215.45 122.241L1218.89 120.205L1184.98 62.8816L1181.53 64.9184ZM1215.17 121.223V157H1219.17V121.223H1215.17Z" fill="black"/>
<path d="M336.602 158H346.843V148.823H337.267C329.287 148.823 326.494 144.434 326.494 136.986V97.751H347.774V88.84H326.494V68.757H316.652V85.382C316.652 87.643 315.189 88.84 313.327 88.84H302.953V97.751H315.987V137.119C315.987 151.084 323.834 158 336.602 158ZM395.622 159.729C411.848 159.729 423.951 150.552 427.808 137.651H416.902C413.71 145.764 404.932 150.153 395.755 150.153C381.524 150.153 372.613 140.976 372.081 127.144H428.473V122.489C428.473 102.539 415.971 87.111 394.957 87.111C376.071 87.111 361.042 101.342 361.042 123.42C361.042 144.168 374.475 159.729 395.622 159.729ZM372.347 117.834C373.411 105.066 383.386 96.687 394.957 96.687C406.661 96.687 416.37 104.002 417.301 117.834H372.347ZM435.906 158H448.142L467.161 129.937H468.358L487.643 158H500.012L475.008 122.489L498.15 88.84H485.781L468.358 114.908H467.56L450.137 88.84H437.768L460.91 121.957L435.906 158Z" fill="black"/>
<path d="M142.363 158.729C158.456 158.729 169.229 149.951 169.229 136.917C169.229 108.322 127.733 122.952 127.733 105.396C127.733 99.411 133.319 95.155 141.964 95.155C151.141 95.155 156.062 99.544 156.993 106.061H167.101C166.037 93.559 155.397 86.111 142.629 86.111C128.132 86.111 117.625 93.692 117.625 105.396C117.625 132.794 158.988 118.031 158.988 137.449C158.988 144.498 153.269 149.552 142.895 149.552C132.787 149.552 126.935 145.163 125.738 136.917H115.497C116.694 149.818 126.004 158.729 142.363 158.729ZM203.582 157H208.636V147.69H205.444C202.119 147.69 200.39 145.695 200.39 142.237V57.25H189.883V142.237C189.883 151.68 194.937 157 203.582 157ZM256.714 158.729C277.462 158.729 292.89 143.168 292.89 122.42C292.89 101.672 277.728 86.111 256.847 86.111C236.232 86.111 220.671 101.539 220.671 122.42C220.671 143.434 235.966 158.729 256.714 158.729ZM256.714 149.153C241.951 149.153 231.444 137.981 231.444 122.42C231.444 107.258 241.818 95.687 256.714 95.687C271.61 95.687 282.117 107.125 282.117 122.42C282.117 137.848 271.61 149.153 256.714 149.153Z" fill="black"/>
<rect x="5" y="32" width="82" height="82" stroke="black" stroke-width="10"/>
<rect x="5" y="32" width="82" height="82" stroke="black" stroke-width="10"/>
<path fill-rule="evenodd" clip-rule="evenodd" d="M43 50H43.4645L45.5355 52.0711L47.6066 50H48H55V55H48V91H55V96H48H47.5355L45.5355 94L43.5355 96H43H36V91H43V55H36V50H43Z" fill="black"/>
</svg>
