<svg width="1272" height="191" viewBox="0 0 1272 191" fill="none" xmlns="http://www.w3.org/2000/svg">
<path d="M546.3 157H557.073V82.653H557.871L606.017 157H617.455V63.9H606.815V138.247H606.017L557.339 63.9H546.3V157ZM644.102 157H695.041V147.291H654.875V63.9H644.102V157ZM715.018 157H725.791V120.159H748.401C764.76 120.159 776.863 108.588 776.863 91.83C776.863 74.939 765.292 63.9 748.401 63.9H715.018V157ZM725.791 110.583V73.476H747.47C758.642 73.476 765.824 81.19 765.824 91.83C765.824 102.603 758.642 110.583 747.47 110.583H725.791ZM873.918 158.729C895.331 158.729 911.956 146.493 917.808 127.208H905.838C901.183 141.439 888.415 148.621 874.051 148.621C853.436 148.621 837.343 132.528 837.343 110.45C837.343 88.638 853.436 72.279 874.051 72.279C888.415 72.279 901.316 79.594 906.237 93.692H917.808C911.69 74.806 895.464 62.171 874.051 62.171C846.52 62.171 826.171 83.052 826.171 110.45C826.171 138.114 846.387 158.729 873.918 158.729ZM979.13 158.729C1006.93 158.729 1027.41 137.848 1027.41 110.45C1027.41 83.318 1007.06 62.171 979.263 62.171C951.599 62.171 931.117 83.052 931.117 110.45C931.117 138.114 951.466 158.729 979.13 158.729ZM979.263 148.621C957.983 148.621 942.289 132.528 942.289 110.45C942.289 88.638 957.983 72.279 979.263 72.279C1000.54 72.279 1016.24 88.638 1016.24 110.45C1016.24 132.528 1000.54 148.621 979.263 148.621ZM1047.39 157H1058.16V119.361H1078.51L1099.12 157H1111.63L1089.81 118.297C1100.32 115.238 1109.23 105.13 1109.23 91.431C1109.23 75.072 1097.93 63.9 1078.91 63.9H1047.39V157ZM1058.16 109.785V73.476H1078.24C1091.41 73.476 1098.06 81.589 1098.06 91.431C1098.06 103.667 1089.81 109.785 1078.91 109.785H1058.16ZM1130.9 157H1185.43V147.291H1141.68V114.44H1178.12V104.731H1141.68V73.742H1183.97V63.9H1130.9V157Z" fill="black"/>
<path d="M546.3 157H544.3V159H546.3V157ZM557.073 157V159H559.073V157H557.073ZM557.073 82.653V80.653H555.073V82.653H557.073ZM557.871 82.653L559.55 81.5659L558.959 80.653H557.871V82.653ZM606.017 157L604.338 158.087L604.929 159H606.017V157ZM617.455 157V159H619.455V157H617.455ZM617.455 63.9H619.455V61.9H617.455V63.9ZM606.815 63.9V61.9H604.815V63.9H606.815ZM606.815 138.247V140.247H608.815V138.247H606.815ZM606.017 138.247L604.344 139.343L604.936 140.247H606.017V138.247ZM557.339 63.9L559.012 62.8044L558.42 61.9H557.339V63.9ZM546.3 63.9V61.9H544.3V63.9H546.3ZM546.3 159H557.073V155H546.3V159ZM559.073 157V82.653H555.073V157H559.073ZM557.073 84.653H557.871V80.653H557.073V84.653ZM556.192 83.7401L604.338 158.087L607.696 155.913L559.55 81.5659L556.192 83.7401ZM606.017 159H617.455V155H606.017V159ZM619.455 157V63.9H615.455V157H619.455ZM617.455 61.9H606.815V65.9H617.455V61.9ZM604.815 63.9V138.247H608.815V63.9H604.815ZM606.815 136.247H606.017V140.247H606.815V136.247ZM607.69 137.151L559.012 62.8044L555.666 64.9955L604.344 139.343L607.69 137.151ZM557.339 61.9H546.3V65.9H557.339V61.9ZM544.3 63.9V157H548.3V63.9H544.3ZM644.102 157H642.102V159H644.102V157ZM695.041 157V159H697.041V157H695.041ZM695.041 147.291H697.041V145.291H695.041V147.291ZM654.875 147.291H652.875V149.291H654.875V147.291ZM654.875 63.9H656.875V61.9H654.875V63.9ZM644.102 63.9V61.9H642.102V63.9H644.102ZM644.102 159H695.041V155H644.102V159ZM697.041 157V147.291H693.041V157H697.041ZM695.041 145.291H654.875V149.291H695.041V145.291ZM656.875 147.291V63.9H652.875V147.291H656.875ZM654.875 61.9H644.102V65.9H654.875V61.9ZM642.102 63.9V157H646.102V63.9H642.102ZM715.018 157H713.018V159H715.018V157ZM725.791 157V159H727.791V157H725.791ZM725.791 120.159V118.159H723.791V120.159H725.791ZM715.018 63.9V61.9H713.018V63.9H715.018ZM725.791 110.583H723.791V112.583H725.791V110.583ZM725.791 73.476V71.476H723.791V73.476H725.791ZM715.018 159H725.791V155H715.018V159ZM727.791 157V120.159H723.791V157H727.791ZM725.791 122.159H748.401V118.159H725.791V122.159ZM748.401 122.159C765.833 122.159 778.863 109.724 778.863 91.83H774.863C774.863 107.452 763.687 118.159 748.401 118.159V122.159ZM778.863 91.83C778.863 82.9126 775.798 75.3902 770.361 70.0977C764.93 64.811 757.288 61.9 748.401 61.9V65.9C756.405 65.9 762.994 68.5085 767.571 72.964C772.142 77.4138 774.863 83.8564 774.863 91.83H778.863ZM748.401 61.9H715.018V65.9H748.401V61.9ZM713.018 63.9V157H717.018V63.9H713.018ZM727.791 110.583V73.476H723.791V110.583H727.791ZM725.791 75.476H747.47V71.476H725.791V75.476ZM747.47 75.476C752.579 75.476 756.632 77.2295 759.408 80.0626C762.189 82.902 763.824 86.9663 763.824 91.83H767.824C767.824 86.0537 765.868 80.941 762.265 77.2634C758.656 73.5795 753.532 71.476 747.47 71.476V75.476ZM763.824 91.83C763.824 96.7692 762.183 100.941 759.39 103.865C756.608 106.778 752.558 108.583 747.47 108.583V112.583C753.553 112.583 758.681 110.398 762.283 106.628C765.874 102.868 767.824 97.6638 767.824 91.83H763.824ZM747.47 108.583H725.791V112.583H747.47V108.583ZM917.809 127.208L919.722 127.789L920.505 125.208H917.809V127.208ZM905.839 127.208V125.208H904.388L903.938 126.586L905.839 127.208ZM906.237 93.692L904.349 94.3511L904.817 95.692H906.237V93.692ZM917.809 93.692V95.692H920.559L919.711 93.0756L917.809 93.692ZM873.918 160.729C896.172 160.729 913.603 147.955 919.722 127.789L915.895 126.627C910.31 145.031 894.491 156.729 873.918 156.729V160.729ZM917.809 125.208H905.839V129.208H917.809V125.208ZM903.938 126.586C899.607 139.824 887.745 146.621 874.051 146.621V150.621C889.086 150.621 902.76 143.054 907.739 127.83L903.938 126.586ZM874.051 146.621C854.592 146.621 839.343 131.475 839.343 110.45H835.343C835.343 133.581 852.281 150.621 874.051 150.621V146.621ZM839.343 110.45C839.343 89.6813 854.601 74.279 874.051 74.279V70.279C852.272 70.279 835.343 87.5947 835.343 110.45H839.343ZM874.051 74.279C887.735 74.279 899.761 81.2055 904.349 94.3511L908.126 93.0329C902.872 77.9825 889.096 70.279 874.051 70.279V74.279ZM906.237 95.692H917.809V91.692H906.237V95.692ZM919.711 93.0756C913.332 73.383 896.351 60.171 874.051 60.171V64.171C894.578 64.171 910.049 76.2289 915.906 94.3083L919.711 93.0756ZM874.051 60.171C845.39 60.171 824.171 81.9731 824.171 110.45H828.171C828.171 84.1309 847.651 64.171 874.051 64.171V60.171ZM824.171 110.45C824.171 139.193 845.257 160.729 873.918 160.729V156.729C847.518 156.729 828.171 137.035 828.171 110.45H824.171ZM979.13 160.729C1008.04 160.729 1029.41 138.942 1029.41 110.45H1025.41C1025.41 136.754 1005.81 156.729 979.13 156.729V160.729ZM1029.41 110.45C1029.41 82.239 1008.19 60.171 979.263 60.171V64.171C1005.93 64.171 1025.41 84.397 1025.41 110.45H1029.41ZM979.263 60.171C950.48 60.171 929.117 81.962 929.117 110.45H933.117C933.117 84.142 952.718 64.171 979.263 64.171V60.171ZM929.117 110.45C929.117 139.204 950.347 160.729 979.13 160.729V156.729C952.585 156.729 933.117 137.024 933.117 110.45H929.117ZM979.263 146.621C959.143 146.621 944.289 131.48 944.289 110.45H940.289C940.289 133.576 956.822 150.621 979.263 150.621V146.621ZM944.289 110.45C944.289 89.6765 959.152 74.279 979.263 74.279V70.279C956.813 70.279 940.289 87.5995 940.289 110.45H944.289ZM979.263 74.279C999.373 74.279 1014.24 89.6765 1014.24 110.45H1018.24C1018.24 87.5995 1001.71 70.279 979.263 70.279V74.279ZM1014.24 110.45C1014.24 131.48 999.382 146.621 979.263 146.621V150.621C1001.7 150.621 1018.24 133.576 1018.24 110.45H1014.24ZM1047.39 157H1045.39V159H1047.39V157ZM1058.16 157V159H1060.16V157H1058.16ZM1058.16 119.361V117.361H1056.16V119.361H1058.16ZM1078.51 119.361L1080.26 118.4L1079.69 117.361H1078.51V119.361ZM1099.12 157L1097.37 157.961L1097.94 159H1099.12V157ZM1111.63 157V159H1115.05L1113.37 156.018L1111.63 157ZM1089.81 118.297L1089.26 116.377L1086.83 117.082L1088.07 119.279L1089.81 118.297ZM1047.39 63.9V61.9H1045.39V63.9H1047.39ZM1058.16 109.785H1056.16V111.785H1058.16V109.785ZM1058.16 73.476V71.476H1056.16V73.476H1058.16ZM1047.39 159H1058.16V155H1047.39V159ZM1060.16 157V119.361H1056.16V157H1060.16ZM1058.16 121.361H1078.51V117.361H1058.16V121.361ZM1076.76 120.322L1097.37 157.961L1100.88 156.039L1080.26 118.4L1076.76 120.322ZM1099.12 159H1111.63V155H1099.12V159ZM1113.37 156.018L1091.56 117.315L1088.07 119.279L1109.88 157.982L1113.37 156.018ZM1090.37 120.217C1101.7 116.919 1111.23 106.052 1111.23 91.431H1107.23C1107.23 104.208 1098.94 113.557 1089.26 116.377L1090.37 120.217ZM1111.23 91.431C1111.23 82.7731 1108.23 75.332 1102.56 70.0661C1096.91 64.8123 1088.81 61.9 1078.91 61.9V65.9C1088.03 65.9 1095.08 68.5737 1099.84 72.9956C1104.58 77.4055 1107.23 83.7299 1107.23 91.431H1111.23ZM1078.91 61.9H1047.39V65.9H1078.91V61.9ZM1045.39 63.9V157H1049.39V63.9H1045.39ZM1060.16 109.785V73.476H1056.16V109.785H1060.16ZM1058.16 75.476H1078.24V71.476H1058.16V75.476ZM1078.24 75.476C1084.41 75.476 1088.82 77.3655 1091.69 80.1877C1094.56 83.0162 1096.06 86.9634 1096.06 91.431H1100.06C1100.06 86.0566 1098.24 81.0263 1094.49 77.3378C1090.74 73.643 1085.25 71.476 1078.24 71.476V75.476ZM1096.06 91.431C1096.06 97.0722 1094.18 101.083 1091.24 103.705C1088.27 106.357 1084 107.785 1078.91 107.785V111.785C1084.72 111.785 1090.03 110.154 1093.91 106.688C1097.82 103.192 1100.06 98.0258 1100.06 91.431H1096.06ZM1078.91 107.785H1058.16V111.785H1078.91V107.785ZM1130.9 157H1128.9V159H1130.9V157ZM1185.43 157V159H1187.43V157H1185.43ZM1185.43 147.291H1187.43V145.291H1185.43V147.291ZM1141.68 147.291H1139.68V149.291H1141.68V147.291ZM1141.68 114.44V112.44H1139.68V114.44H1141.68ZM1178.12 114.44V116.44H1180.12V114.44H1178.12ZM1178.12 104.731H1180.12V102.731H1178.12V104.731ZM1141.68 104.731H1139.68V106.731H1141.68V104.731ZM1141.68 73.742V71.742H1139.68V73.742H1141.68ZM1183.97 73.742V75.742H1185.97V73.742H1183.97ZM1183.97 63.9H1185.97V61.9H1183.97V63.9ZM1130.9 63.9V61.9H1128.9V63.9H1130.9ZM1130.9 159H1185.43V155H1130.9V159ZM1187.43 157V147.291H1183.43V157H1187.43ZM1185.43 145.291H1141.68V149.291H1185.43V145.291ZM1143.68 147.291V114.44H1139.68V147.291H1143.68ZM1141.68 116.44H1178.12V112.44H1141.68V116.44ZM1180.12 114.44V104.731H1176.12V114.44H1180.12ZM1178.12 102.731H1141.68V106.731H1178.12V102.731ZM1143.68 104.731V73.742H1139.68V104.731H1143.68ZM1141.68 75.742H1183.97V71.742H1141.68V75.742ZM1185.97 73.742V63.9H1181.97V73.742H1185.97ZM1183.97 61.9H1130.9V65.9H1183.97V61.9ZM1128.9 63.9V157H1132.9V63.9H1128.9Z" fill="black"/>
<path d="M336.602 158H346.843V148.823H337.267C329.287 148.823 326.494 144.434 326.494 136.986V97.751H347.774V88.84H326.494V68.757H316.652V85.382C316.652 87.643 315.189 88.84 313.327 88.84H302.953V97.751H315.987V137.119C315.987 151.084 323.834 158 336.602 158ZM395.622 159.729C411.848 159.729 423.951 150.552 427.808 137.651H416.902C413.71 145.764 404.932 150.153 395.755 150.153C381.524 150.153 372.613 140.976 372.081 127.144H428.473V122.489C428.473 102.539 415.971 87.111 394.957 87.111C376.071 87.111 361.042 101.342 361.042 123.42C361.042 144.168 374.475 159.729 395.622 159.729ZM372.347 117.834C373.411 105.066 383.386 96.687 394.957 96.687C406.661 96.687 416.37 104.002 417.301 117.834H372.347ZM435.906 158H448.142L467.161 129.937H468.358L487.643 158H500.012L475.008 122.489L498.15 88.84H485.781L468.358 114.908H467.56L450.137 88.84H437.768L460.91 121.957L435.906 158Z" fill="black"/>
<path d="M142.363 158.729C158.456 158.729 169.229 149.951 169.229 136.917C169.229 108.322 127.733 122.952 127.733 105.396C127.733 99.411 133.319 95.155 141.964 95.155C151.141 95.155 156.062 99.544 156.993 106.061H167.101C166.037 93.559 155.397 86.111 142.629 86.111C128.132 86.111 117.625 93.692 117.625 105.396C117.625 132.794 158.988 118.031 158.988 137.449C158.988 144.498 153.269 149.552 142.895 149.552C132.787 149.552 126.935 145.163 125.738 136.917H115.497C116.694 149.818 126.004 158.729 142.363 158.729ZM203.582 157H208.636V147.69H205.444C202.119 147.69 200.39 145.695 200.39 142.237V57.25H189.883V142.237C189.883 151.68 194.937 157 203.582 157ZM256.714 158.729C277.462 158.729 292.89 143.168 292.89 122.42C292.89 101.672 277.728 86.111 256.847 86.111C236.232 86.111 220.671 101.539 220.671 122.42C220.671 143.434 235.966 158.729 256.714 158.729ZM256.714 149.153C241.951 149.153 231.444 137.981 231.444 122.42C231.444 107.258 241.818 95.687 256.714 95.687C271.61 95.687 282.117 107.125 282.117 122.42C282.117 137.848 271.61 149.153 256.714 149.153Z" fill="black"/>
<rect x="5" y="32" width="82" height="82" stroke="black" stroke-width="10"/>
<rect x="5" y="32" width="82" height="82" stroke="black" stroke-width="10"/>
<path fill-rule="evenodd" clip-rule="evenodd" d="M43 50H43.4645L45.5355 52.0711L47.6066 50H48H55V55H48V91H55V96H48H47.5355L45.5355 94L43.5355 96H43H36V91H43V55H36V50H43Z" fill="black"/>
</svg>
