<svg width="538" height="191" viewBox="0 0 538 191" fill="none" xmlns="http://www.w3.org/2000/svg">
<path d="M336.602 158H346.843V148.823H337.267C329.287 148.823 326.494 144.434 326.494 136.986V97.751H347.774V88.84H326.494V68.757H316.652V85.382C316.652 87.643 315.189 88.84 313.327 88.84H302.953V97.751H315.987V137.119C315.987 151.084 323.834 158 336.602 158ZM395.622 159.729C411.848 159.729 423.951 150.552 427.808 137.651H416.902C413.71 145.764 404.932 150.153 395.755 150.153C381.524 150.153 372.613 140.976 372.081 127.144H428.473V122.489C428.473 102.539 415.971 87.111 394.957 87.111C376.071 87.111 361.042 101.342 361.042 123.42C361.042 144.168 374.475 159.729 395.622 159.729ZM372.347 117.834C373.411 105.066 383.386 96.687 394.957 96.687C406.661 96.687 416.37 104.002 417.301 117.834H372.347ZM435.906 158H448.142L467.161 129.937H468.358L487.643 158H500.012L475.008 122.489L498.15 88.84H485.781L468.358 114.908H467.56L450.137 88.84H437.768L460.91 121.957L435.906 158Z" fill="black"/>
<path d="M142.363 158.729C158.456 158.729 169.229 149.951 169.229 136.917C169.229 108.322 127.733 122.952 127.733 105.396C127.733 99.411 133.319 95.155 141.964 95.155C151.141 95.155 156.062 99.544 156.993 106.061H167.101C166.037 93.559 155.397 86.111 142.629 86.111C128.132 86.111 117.625 93.692 117.625 105.396C117.625 132.794 158.988 118.031 158.988 137.449C158.988 144.498 153.269 149.552 142.895 149.552C132.787 149.552 126.935 145.163 125.738 136.917H115.497C116.694 149.818 126.004 158.729 142.363 158.729ZM203.582 157H208.636V147.69H205.444C202.119 147.69 200.39 145.695 200.39 142.237V57.25H189.883V142.237C189.883 151.68 194.937 157 203.582 157ZM256.714 158.729C277.462 158.729 292.89 143.168 292.89 122.42C292.89 101.672 277.728 86.111 256.847 86.111C236.232 86.111 220.671 101.539 220.671 122.42C220.671 143.434 235.966 158.729 256.714 158.729ZM256.714 149.153C241.951 149.153 231.444 137.981 231.444 122.42C231.444 107.258 241.818 95.687 256.714 95.687C271.61 95.687 282.117 107.125 282.117 122.42C282.117 137.848 271.61 149.153 256.714 149.153Z" fill="black"/>
<rect x="5" y="32" width="82" height="82" stroke="black" stroke-width="10"/>
<rect x="5" y="32" width="82" height="82" stroke="black" stroke-width="10"/>
<path fill-rule="evenodd" clip-rule="evenodd" d="M43 50H43.4645L45.5355 52.0711L47.6066 50H48H55V55H48V91H55V96H48H47.5355L45.5355 94L43.5355 96H43H36V91H43V55H36V50H43Z" fill="black"/>
</svg>
