<svg width="1272" height="191" viewBox="0 0 1272 191" fill="none" xmlns="http://www.w3.org/2000/svg">
<path d="M546.3 157H557.073V82.653H557.871L606.017 157H617.455V63.9H606.815V138.247H606.017L557.339 63.9H546.3V157ZM644.102 157H695.041V147.291H654.875V63.9H644.102V157ZM715.018 157H725.791V120.159H748.401C764.76 120.159 776.863 108.588 776.863 91.83C776.863 74.939 765.292 63.9 748.401 63.9H715.018V157ZM725.791 110.583V73.476H747.47C758.642 73.476 765.824 81.19 765.824 91.83C765.824 102.603 758.642 110.583 747.47 110.583H725.791ZM845.988 157H859.953L880.834 78.397H881.632L902.513 157H916.478L940.285 63.9H928.714L909.695 143.833H908.897L888.016 63.9H874.45L853.569 143.833H852.771L833.752 63.9H822.181L845.988 157ZM956.21 157H1010.74V147.291H966.983V114.44H1003.43V104.731H966.983V73.742H1009.28V63.9H956.21V157ZM1030.63 157H1063.35C1079.05 157 1092.08 147.291 1092.08 130.533C1092.08 117.366 1083.3 110.716 1077.05 108.588V107.79C1084.5 103.8 1088.89 96.884 1088.89 87.707C1088.89 74.141 1078.38 63.9 1060.69 63.9H1030.63V157ZM1041.27 104.199V73.476H1060.69C1070.67 73.476 1077.85 79.328 1077.85 88.505C1077.85 97.948 1070.8 104.199 1060.29 104.199H1041.27ZM1041.27 147.557V113.243H1060.29C1071.07 113.243 1080.91 118.031 1080.91 130.267C1080.91 142.237 1072.53 147.557 1061.49 147.557H1041.27Z" fill="black"/>
<path d="M546.3 157H544.3V159H546.3V157ZM557.073 157V159H559.073V157H557.073ZM557.073 82.653V80.653H555.073V82.653H557.073ZM557.871 82.653L559.55 81.5659L558.959 80.653H557.871V82.653ZM606.017 157L604.338 158.087L604.929 159H606.017V157ZM617.455 157V159H619.455V157H617.455ZM617.455 63.9H619.455V61.9H617.455V63.9ZM606.815 63.9V61.9H604.815V63.9H606.815ZM606.815 138.247V140.247H608.815V138.247H606.815ZM606.017 138.247L604.344 139.343L604.936 140.247H606.017V138.247ZM557.339 63.9L559.012 62.8044L558.42 61.9H557.339V63.9ZM546.3 63.9V61.9H544.3V63.9H546.3ZM546.3 159H557.073V155H546.3V159ZM559.073 157V82.653H555.073V157H559.073ZM557.073 84.653H557.871V80.653H557.073V84.653ZM556.192 83.7401L604.338 158.087L607.696 155.913L559.55 81.5659L556.192 83.7401ZM606.017 159H617.455V155H606.017V159ZM619.455 157V63.9H615.455V157H619.455ZM617.455 61.9H606.815V65.9H617.455V61.9ZM604.815 63.9V138.247H608.815V63.9H604.815ZM606.815 136.247H606.017V140.247H606.815V136.247ZM607.69 137.151L559.012 62.8044L555.666 64.9955L604.344 139.343L607.69 137.151ZM557.339 61.9H546.3V65.9H557.339V61.9ZM544.3 63.9V157H548.3V63.9H544.3ZM644.102 157H642.102V159H644.102V157ZM695.041 157V159H697.041V157H695.041ZM695.041 147.291H697.041V145.291H695.041V147.291ZM654.875 147.291H652.875V149.291H654.875V147.291ZM654.875 63.9H656.875V61.9H654.875V63.9ZM644.102 63.9V61.9H642.102V63.9H644.102ZM644.102 159H695.041V155H644.102V159ZM697.041 157V147.291H693.041V157H697.041ZM695.041 145.291H654.875V149.291H695.041V145.291ZM656.875 147.291V63.9H652.875V147.291H656.875ZM654.875 61.9H644.102V65.9H654.875V61.9ZM642.102 63.9V157H646.102V63.9H642.102ZM715.018 157H713.018V159H715.018V157ZM725.791 157V159H727.791V157H725.791ZM725.791 120.159V118.159H723.791V120.159H725.791ZM715.018 63.9V61.9H713.018V63.9H715.018ZM725.791 110.583H723.791V112.583H725.791V110.583ZM725.791 73.476V71.476H723.791V73.476H725.791ZM715.018 159H725.791V155H715.018V159ZM727.791 157V120.159H723.791V157H727.791ZM725.791 122.159H748.401V118.159H725.791V122.159ZM748.401 122.159C765.833 122.159 778.863 109.724 778.863 91.83H774.863C774.863 107.452 763.687 118.159 748.401 118.159V122.159ZM778.863 91.83C778.863 82.9126 775.798 75.3902 770.361 70.0977C764.93 64.811 757.288 61.9 748.401 61.9V65.9C756.405 65.9 762.994 68.5085 767.571 72.964C772.142 77.4138 774.863 83.8564 774.863 91.83H778.863ZM748.401 61.9H715.018V65.9H748.401V61.9ZM713.018 63.9V157H717.018V63.9H713.018ZM727.791 110.583V73.476H723.791V110.583H727.791ZM725.791 75.476H747.47V71.476H725.791V75.476ZM747.47 75.476C752.579 75.476 756.632 77.2295 759.408 80.0626C762.189 82.902 763.824 86.9663 763.824 91.83H767.824C767.824 86.0537 765.868 80.941 762.265 77.2634C758.656 73.5795 753.532 71.476 747.47 71.476V75.476ZM763.824 91.83C763.824 96.7692 762.183 100.941 759.39 103.865C756.608 106.778 752.558 108.583 747.47 108.583V112.583C753.553 112.583 758.681 110.398 762.283 106.628C765.874 102.868 767.824 97.6638 767.824 91.83H763.824ZM747.47 108.583H725.791V112.583H747.47V108.583ZM845.988 157L844.051 157.495L844.436 159H845.988V157ZM859.953 157V159H861.492L861.886 157.513L859.953 157ZM880.834 78.397V76.397H879.296L878.902 77.8835L880.834 78.397ZM881.632 78.397L883.565 77.8835L883.171 76.397H881.632V78.397ZM902.513 157L900.581 157.513L900.975 159H902.513V157ZM916.478 157V159H918.031L918.416 157.495L916.478 157ZM940.285 63.9L942.223 64.3955L942.861 61.9H940.285V63.9ZM928.714 63.9V61.9H927.135L926.769 63.437L928.714 63.9ZM909.695 143.833V145.833H911.275L911.641 144.296L909.695 143.833ZM908.897 143.833L906.962 144.339L907.353 145.833H908.897V143.833ZM888.016 63.9L889.952 63.3945L889.561 61.9H888.016V63.9ZM874.451 63.9V61.9H872.906L872.515 63.3945L874.451 63.9ZM853.569 143.833V145.833H855.114L855.505 144.339L853.569 143.833ZM852.771 143.833L850.826 144.296L851.192 145.833H852.771V143.833ZM833.752 63.9L835.698 63.437L835.332 61.9H833.752V63.9ZM822.181 63.9V61.9H819.606L820.244 64.3955L822.181 63.9ZM845.988 159H859.953V155H845.988V159ZM861.886 157.513L882.767 78.9105L878.902 77.8835L858.021 156.487L861.886 157.513ZM880.834 80.397H881.632V76.397H880.834V80.397ZM879.7 78.9105L900.581 157.513L904.446 156.487L883.565 77.8835L879.7 78.9105ZM902.513 159H916.478V155H902.513V159ZM918.416 157.495L942.223 64.3955L938.348 63.4045L914.541 156.505L918.416 157.495ZM940.285 61.9H928.714V65.9H940.285V61.9ZM926.769 63.437L907.75 143.37L911.641 144.296L930.66 64.3629L926.769 63.437ZM909.695 141.833H908.897V145.833H909.695V141.833ZM910.833 143.327L889.952 63.3945L886.081 64.4055L906.962 144.339L910.833 143.327ZM888.016 61.9H874.451V65.9H888.016V61.9ZM872.515 63.3945L851.634 143.327L855.505 144.339L876.386 64.4055L872.515 63.3945ZM853.569 141.833H852.771V145.833H853.569V141.833ZM854.717 143.37L835.698 63.437L831.807 64.3629L850.826 144.296L854.717 143.37ZM833.752 61.9H822.181V65.9H833.752V61.9ZM820.244 64.3955L844.051 157.495L847.926 156.505L824.119 63.4045L820.244 64.3955ZM956.21 157H954.21V159H956.21V157ZM1010.74 157V159H1012.74V157H1010.74ZM1010.74 147.291H1012.74V145.291H1010.74V147.291ZM966.983 147.291H964.983V149.291H966.983V147.291ZM966.983 114.44V112.44H964.983V114.44H966.983ZM1003.43 114.44V116.44H1005.43V114.44H1003.43ZM1003.43 104.731H1005.43V102.731H1003.43V104.731ZM966.983 104.731H964.983V106.731H966.983V104.731ZM966.983 73.742V71.742H964.983V73.742H966.983ZM1009.28 73.742V75.742H1011.28V73.742H1009.28ZM1009.28 63.9H1011.28V61.9H1009.28V63.9ZM956.21 63.9V61.9H954.21V63.9H956.21ZM956.21 159H1010.74V155H956.21V159ZM1012.74 157V147.291H1008.74V157H1012.74ZM1010.74 145.291H966.983V149.291H1010.74V145.291ZM968.983 147.291V114.44H964.983V147.291H968.983ZM966.983 116.44H1003.43V112.44H966.983V116.44ZM1005.43 114.44V104.731H1001.43V114.44H1005.43ZM1003.43 102.731H966.983V106.731H1003.43V102.731ZM968.983 104.731V73.742H964.983V104.731H968.983ZM966.983 75.742H1009.28V71.742H966.983V75.742ZM1011.28 73.742V63.9H1007.28V73.742H1011.28ZM1009.28 61.9H956.21V65.9H1009.28V61.9ZM954.21 63.9V157H958.21V63.9H954.21ZM1030.63 157H1028.63V159H1030.63V157ZM1077.05 108.588H1075.05V110.02L1076.41 110.481L1077.05 108.588ZM1077.05 107.79L1076.11 106.027L1075.05 106.593V107.79H1077.05ZM1030.63 63.9V61.9H1028.63V63.9H1030.63ZM1041.27 104.199H1039.27V106.199H1041.27V104.199ZM1041.27 73.476V71.476H1039.27V73.476H1041.27ZM1041.27 147.557H1039.27V149.557H1041.27V147.557ZM1041.27 113.243V111.243H1039.27V113.243H1041.27ZM1030.63 159H1063.35V155H1030.63V159ZM1063.35 159C1071.6 159 1079.27 156.449 1084.91 151.562C1090.58 146.648 1094.08 139.473 1094.08 130.533H1090.08C1090.08 138.351 1087.06 144.409 1082.29 148.539C1077.49 152.697 1070.8 155 1063.35 155V159ZM1094.08 130.533C1094.08 116.283 1084.52 109.018 1077.69 106.695L1076.41 110.481C1082.08 112.414 1090.08 118.449 1090.08 130.533H1094.08ZM1079.05 108.588V107.79H1075.05V108.588H1079.05ZM1077.99 109.553C1086.09 105.217 1090.89 97.6264 1090.89 87.707H1086.89C1086.89 96.1416 1082.91 102.383 1076.11 106.027L1077.99 109.553ZM1090.89 87.707C1090.89 80.3795 1088.04 73.8699 1082.74 69.2146C1077.47 64.5742 1069.92 61.9 1060.69 61.9V65.9C1069.15 65.9 1075.7 68.3463 1080.1 72.2179C1084.49 76.0746 1086.89 81.4685 1086.89 87.707H1090.89ZM1060.69 61.9H1030.63V65.9H1060.69V61.9ZM1028.63 63.9V157H1032.63V63.9H1028.63ZM1043.27 104.199V73.476H1039.27V104.199H1043.27ZM1041.27 75.476H1060.69V71.476H1041.27V75.476ZM1060.69 75.476C1065.3 75.476 1069.1 76.826 1071.71 79.067C1074.29 81.2834 1075.85 84.4784 1075.85 88.505H1079.85C1079.85 83.3546 1077.81 79.0351 1074.31 76.0312C1070.84 73.052 1066.06 71.476 1060.69 71.476V75.476ZM1075.85 88.505C1075.85 92.6987 1074.3 96.0642 1071.68 98.4005C1069.04 100.756 1065.15 102.199 1060.29 102.199V106.199C1065.94 106.199 1070.83 104.517 1074.34 101.386C1077.87 98.2358 1079.85 93.7543 1079.85 88.505H1075.85ZM1060.29 102.199H1041.27V106.199H1060.29V102.199ZM1043.27 147.557V113.243H1039.27V147.557H1043.27ZM1041.27 115.243H1060.29V111.243H1041.27V115.243ZM1060.29 115.243C1065.42 115.243 1070.12 116.39 1073.47 118.793C1076.74 121.128 1078.91 124.768 1078.91 130.267H1082.91C1082.91 123.53 1080.16 118.658 1075.8 115.54C1071.54 112.49 1065.93 111.243 1060.29 111.243V115.243ZM1078.91 130.267C1078.91 135.742 1077.02 139.457 1074.08 141.849C1071.07 144.293 1066.72 145.557 1061.49 145.557V149.557C1067.3 149.557 1072.66 148.161 1076.6 144.952C1080.61 141.692 1082.91 136.762 1082.91 130.267H1078.91ZM1061.49 145.557H1041.27V149.557H1061.49V145.557Z" fill="black"/>
<path d="M336.602 158H346.843V148.823H337.267C329.287 148.823 326.494 144.434 326.494 136.986V97.751H347.774V88.84H326.494V68.757H316.652V85.382C316.652 87.643 315.189 88.84 313.327 88.84H302.953V97.751H315.987V137.119C315.987 151.084 323.834 158 336.602 158ZM395.622 159.729C411.848 159.729 423.951 150.552 427.808 137.651H416.902C413.71 145.764 404.932 150.153 395.755 150.153C381.524 150.153 372.613 140.976 372.081 127.144H428.473V122.489C428.473 102.539 415.971 87.111 394.957 87.111C376.071 87.111 361.042 101.342 361.042 123.42C361.042 144.168 374.475 159.729 395.622 159.729ZM372.347 117.834C373.411 105.066 383.386 96.687 394.957 96.687C406.661 96.687 416.37 104.002 417.301 117.834H372.347ZM435.906 158H448.142L467.161 129.937H468.358L487.643 158H500.012L475.008 122.489L498.15 88.84H485.781L468.358 114.908H467.56L450.137 88.84H437.768L460.91 121.957L435.906 158Z" fill="black"/>
<path d="M142.363 158.729C158.456 158.729 169.229 149.951 169.229 136.917C169.229 108.322 127.733 122.952 127.733 105.396C127.733 99.411 133.319 95.155 141.964 95.155C151.141 95.155 156.062 99.544 156.993 106.061H167.101C166.037 93.559 155.397 86.111 142.629 86.111C128.132 86.111 117.625 93.692 117.625 105.396C117.625 132.794 158.988 118.031 158.988 137.449C158.988 144.498 153.269 149.552 142.895 149.552C132.787 149.552 126.935 145.163 125.738 136.917H115.497C116.694 149.818 126.004 158.729 142.363 158.729ZM203.582 157H208.636V147.69H205.444C202.119 147.69 200.39 145.695 200.39 142.237V57.25H189.883V142.237C189.883 151.68 194.937 157 203.582 157ZM256.714 158.729C277.462 158.729 292.89 143.168 292.89 122.42C292.89 101.672 277.728 86.111 256.847 86.111C236.232 86.111 220.671 101.539 220.671 122.42C220.671 143.434 235.966 158.729 256.714 158.729ZM256.714 149.153C241.951 149.153 231.444 137.981 231.444 122.42C231.444 107.258 241.818 95.687 256.714 95.687C271.61 95.687 282.117 107.125 282.117 122.42C282.117 137.848 271.61 149.153 256.714 149.153Z" fill="black"/>
<rect x="5" y="32" width="82" height="82" stroke="black" stroke-width="10"/>
<rect x="5" y="32" width="82" height="82" stroke="black" stroke-width="10"/>
<path fill-rule="evenodd" clip-rule="evenodd" d="M43 50H43.4645L45.5355 52.0711L47.6066 50H48H55V55H48V91H55V96H48H47.5355L45.5355 94L43.5355 96H43H36V91H43V55H36V50H43Z" fill="black"/>
</svg>
